<ttFont>
<head>
    <!-- Most of this table will be recalculated by the compiler -->
    <tableVersion value="1.0"/>
    <fontRevision value="1.437"/>
    <checkSumAdjustment value="0xa9e5e9c6"/>
    <magicNumber value="0x5f0f3cf5"/>
    <flags value="00000000 00001101"/>
    <unitsPerEm value="1000"/>
    <created value="Fri Jul 30 13:54:32 2021"/>
    <modified value="Mon Jun 15 12:00:00 2026"/>
    <xMin value="-637"/>
    <yMin value="-400"/>
    <xMax value="757"/>
    <yMax value="1120"/>
    <macStyle value="00000000 00000010"/>
    <lowestRecPPEM value="6"/>
    <fontDirectionHint value="2"/>
    <indexToLocFormat value="0"/>
    <glyphDataFormat value="0"/>
  </head>
    <TTGlyph name=".notdef" xMin="87" yMin="0" xMax="513" yMax="730">
      <contour>
        <pt x="87" y="0" on="1"/>
        <pt x="87" y="730" on="1"/>
        <pt x="513" y="730" on="1"/>
        <pt x="513" y="0" on="1"/>
      </contour>
      <contour>
        <pt x="138" y="109" on="1"/>
        <pt x="442" y="680" on="1"/>
        <pt x="138" y="680" on="1"/>
      </contour>
      <contour>
        <pt x="158" y="50" on="1"/>
        <pt x="462" y="50" on="1"/>
        <pt x="462" y="621" on="1"/>
      </contour>
    </TTGlyph>
    <TTGlyph name="A" xMin="15" yMin="0" xMax="593" yMax="739">
      <contour>
        <pt x="15" y="0" on="1"/>
        <pt x="382" y="739" on="1"/>
        <pt x="491" y="739" on="1"/>
        <pt x="593" y="0" on="1"/>
        <pt x="497" y="0" on="1"/>
        <pt x="477" y="162" on="1"/>
        <pt x="195" y="162" on="1"/>
        <pt x="116" y="0" on="1"/>
      </contour>
      <contour>
        <pt x="237" y="250" on="1"/>
        <pt x="467" y="250" on="1"/>
        <pt x="421" y="634" on="1"/>
      </contour>
    </TTGlyph>
    <TTGlyph name="AE" xMin="15" yMin="0" xMax="593" yMax="738">
      <contour>
        <pt x="15" y="0" on="1"/>
        <pt x="351" y="738" on="1"/>
        <pt x="593" y="738" on="1"/>
        <pt x="584" y="648" on="1"/>
        <pt x="393" y="648" on="1"/>
        <pt x="370" y="424" on="1"/>
        <pt x="512" y="424" on="1"/>
        <pt x="503" y="335" on="1"/>
        <pt x="361" y="335" on="1"/>
        <pt x="336" y="90" on="1"/>
        <pt x="527" y="90" on="1"/>
        <pt x="518" y="0" on="1"/>
        <pt x="275" y="0" on="1"/>
        <pt x="292" y="160" on="1"/>
        <pt x="146" y="160" on="1"/>
        <pt x="75" y="0" on="1"/>
      </contour>
      <contour>
        <pt x="185" y="250" on="1"/>
        <pt x="300" y="250" on="1"/>
        <pt x="335" y="585" on="1"/>
      </contour>
    </TTGlyph>
    <TTGlyph name="AEacute" xMin="15" yMin="0" xMax="593" yMax="950">
      <component glyphName="AE" x="0" y="0" flags="0x204"/>
      <component glyphName="acutecomb.case" x="611" y="0" flags="0x4"/>
    </TTGlyph>
    <TTGlyph name="Aacute" xMin="15" yMin="0" xMax="593" yMax="961">
      <contour>
        <pt x="15" y="0" on="1"/>
        <pt x="382" y="730" on="1"/>
        <pt x="491" y="730" on="1"/>
        <pt x="593" y="0" on="1"/>
        <pt x="497" y="0" on="1"/>
        <pt x="477" y="160" on="1"/>
        <pt x="195" y="160" on="1"/>
        <pt x="116" y="0" on="1"/>
      </contour>
      <contour>
        <pt x="237" y="247" on="1"/>
        <pt x="467" y="247" on="1"/>
        <pt x="421" y="626" on="1"/>
      </contour>
      <contour>
        <pt x="389" y="813" on="1"/>
        <pt x="389" y="813" on="0"/>
        <pt x="418" y="850" on="0"/>
        <pt x="459" y="900" on="0"/>
        <pt x="496" y="944" on="0"/>
        <pt x="503" y="951" on="1"/>
        <pt x="513" y="961" on="0"/>
        <pt x="526" y="961" on="1"/>
        <pt x="542" y="961" on="0"/>
        <pt x="553" y="947" on="1"/>
        <pt x="562" y="937" on="0"/>
        <pt x="562" y="919" on="1"/>
        <pt x="562" y="900" on="0"/>
        <pt x="550" y="888" on="1"/>
        <pt x="544" y="882" on="0"/>
        <pt x="514" y="857" on="0"/>
        <pt x="480" y="831" on="0"/>
        <pt x="458" y="813" on="0"/>
        <pt x="458" y="813" on="1"/>
      </contour>
    </TTGlyph>
    <TTGlyph name="Abreve" xMin="15" yMin="0" xMax="593" yMax="933">
      <contour>
        <pt x="15" y="0" on="1"/>
        <pt x="377" y="730" on="1"/>
        <pt x="485" y="730" on="1"/>
        <pt x="585" y="0" on="1"/>
        <pt x="490" y="0" on="1"/>
        <pt x="471" y="160" on="1"/>
        <pt x="191" y="160" on="1"/>
        <pt x="115" y="0" on="1"/>
      </contour>
      <contour>
        <pt x="234" y="247" on="1"/>
        <pt x="460" y="247" on="1"/>
        <pt x="415" y="626" on="1"/>
      </contour>
      <contour>
        <pt x="441" y="802" on="1"/>
        <pt x="402" y="802" on="0"/>
        <pt x="349" y="843" on="0"/>
        <pt x="322" y="904" on="0"/>
        <pt x="322" y="933" on="1"/>
        <pt x="385" y="933" on="1"/>
        <pt x="390" y="912" on="0"/>
        <pt x="418" y="875" on="0"/>
        <pt x="448" y="875" on="1"/>
        <pt x="477" y="875" on="0"/>
        <pt x="517" y="911" on="0"/>
        <pt x="530" y="933" on="1"/>
        <pt x="593" y="933" on="1"/>
        <pt x="582" y="902" on="0"/>
        <pt x="541" y="840" on="0"/>
        <pt x="480" y="802" on="0"/>
      </contour>
    </TTGlyph>
    <TTGlyph name="Acircumflex" xMin="15" yMin="0" xMax="593" yMax="947">
      <contour>
        <pt x="15" y="0" on="1"/>
        <pt x="382" y="730" on="1"/>
        <pt x="491" y="730" on="1"/>
        <pt x="593" y="0" on="1"/>
        <pt x="497" y="0" on="1"/>
        <pt x="477" y="160" on="1"/>
        <pt x="195" y="160" on="1"/>
        <pt x="116" y="0" on="1"/>
      </contour>
      <contour>
        <pt x="237" y="247" on="1"/>
        <pt x="467" y="247" on="1"/>
        <pt x="421" y="626" on="1"/>
      </contour>
      <contour>
        <pt x="291" y="816" on="1"/>
        <pt x="415" y="927" on="1"/>
        <pt x="438" y="947" on="0"/>
        <pt x="466" y="947" on="1"/>
        <pt x="492" y="947" on="0"/>
        <pt x="508" y="927" on="1"/>
        <pt x="593" y="816" on="1"/>
        <pt x="507" y="816" on="1"/>
        <pt x="455" y="883" on="1"/>
        <pt x="380" y="816" on="1"/>
      </contour>
    </TTGlyph>
    <TTGlyph name="Adieresis" xMin="15" yMin="0" xMax="593" yMax="926">
      <contour>
        <pt x="15" y="0" on="1"/>
        <pt x="378" y="730" on="1"/>
        <pt x="485" y="730" on="1"/>
        <pt x="586" y="0" on="1"/>
        <pt x="491" y="0" on="1"/>
        <pt x="471" y="160" on="1"/>
        <pt x="191" y="160" on="1"/>
        <pt x="115" y="0" on="1"/>
      </contour>
      <contour>
        <pt x="234" y="247" on="1"/>
        <pt x="461" y="247" on="1"/>
        <pt x="416" y="626" on="1"/>
      </contour>
      <contour>
        <pt x="349" y="809" on="1"/>
        <pt x="327" y="809" on="0"/>
        <pt x="298" y="844" on="0"/>
        <pt x="298" y="868" on="1"/>
        <pt x="298" y="892" on="0"/>
        <pt x="327" y="926" on="0"/>
        <pt x="349" y="926" on="1"/>
        <pt x="370" y="926" on="0"/>
        <pt x="398" y="892" on="0"/>
        <pt x="398" y="868" on="1"/>
        <pt x="398" y="844" on="0"/>
        <pt x="370" y="809" on="0"/>
      </contour>
      <contour>
        <pt x="544" y="809" on="1"/>
        <pt x="523" y="809" on="0"/>
        <pt x="494" y="844" on="0"/>
        <pt x="494" y="868" on="1"/>
        <pt x="494" y="892" on="0"/>
        <pt x="523" y="926" on="0"/>
        <pt x="544" y="926" on="1"/>
        <pt x="565" y="926" on="0"/>
        <pt x="593" y="892" on="0"/>
        <pt x="593" y="868" on="1"/>
        <pt x="593" y="844" on="0"/>
        <pt x="565" y="809" on="0"/>
      </contour>
    </TTGlyph>
    <TTGlyph name="Agrave" xMin="15" yMin="0" xMax="593" yMax="944">
      <contour>
        <pt x="15" y="0" on="1"/>
        <pt x="382" y="730" on="1"/>
        <pt x="491" y="730" on="1"/>
        <pt x="593" y="0" on="1"/>
        <pt x="497" y="0" on="1"/>
        <pt x="477" y="160" on="1"/>
        <pt x="195" y="160" on="1"/>
        <pt x="116" y="0" on="1"/>
      </contour>
      <contour>
        <pt x="237" y="247" on="1"/>
        <pt x="467" y="247" on="1"/>
        <pt x="421" y="626" on="1"/>
      </contour>
      <contour>
        <pt x="435" y="813" on="1"/>
        <pt x="403" y="840" on="0"/>
        <pt x="382" y="860" on="1"/>
        <pt x="360" y="882" on="0"/>
        <pt x="360" y="905" on="1"/>
        <pt x="360" y="915" on="0"/>
        <pt x="375" y="944" on="0"/>
        <pt x="394" y="944" on="1"/>
        <pt x="411" y="944" on="0"/>
        <pt x="423" y="927" on="1"/>
        <pt x="440" y="903" on="0"/>
        <pt x="484" y="841" on="0"/>
        <pt x="504" y="813" on="1"/>
      </contour>
    </TTGlyph>
    <TTGlyph name="Alpha" xMin="15" yMin="0" xMax="593" yMax="739">
      <component glyphName="A" x="0" y="0" flags="0x204"/>
    </TTGlyph>
    <TTGlyph name="Alphatonos" xMin="15" yMin="0" xMax="593" yMax="739">
      <component glyphName="A" x="0" y="0" flags="0x204"/>
      <component glyphName="tonos.case" x="-215" y="0" flags="0x4"/>
    </TTGlyph>
    <TTGlyph name="Amacron" xMin="15" yMin="0" xMax="593" yMax="906">
      <contour>
        <pt x="15" y="0" on="1"/>
        <pt x="382" y="730" on="1"/>
        <pt x="491" y="730" on="1"/>
        <pt x="593" y="0" on="1"/>
        <pt x="497" y="0" on="1"/>
        <pt x="477" y="160" on="1"/>
        <pt x="195" y="160" on="1"/>
        <pt x="116" y="0" on="1"/>
      </contour>
      <contour>
        <pt x="237" y="247" on="1"/>
        <pt x="467" y="247" on="1"/>
        <pt x="421" y="626" on="1"/>
      </contour>
      <contour>
        <pt x="316" y="833" on="1"/>
        <pt x="330" y="906" on="1"/>
        <pt x="588" y="906" on="1"/>
        <pt x="574" y="833" on="1"/>
      </contour>
    </TTGlyph>
    <TTGlyph name="Aogonek" xMin="15" yMin="-191" xMax="593" yMax="739">
      <contour>
        <pt x="15" y="0" on="1"/>
        <pt x="382" y="739" on="1"/>
        <pt x="491" y="739" on="1"/>
        <pt x="593" y="0" on="1"/>
        <pt x="549" y="-19" on="0"/>
        <pt x="492" y="-70" on="0"/>
        <pt x="492" y="-98" on="1"/>
        <pt x="492" y="-111" on="0"/>
        <pt x="514" y="-129" on="0"/>
        <pt x="530" y="-129" on="1"/>
        <pt x="549" y="-129" on="0"/>
        <pt x="572" y="-118" on="1"/>
        <pt x="562" y="-178" on="1"/>
        <pt x="525" y="-191" on="0"/>
        <pt x="498" y="-191" on="1"/>
        <pt x="460" y="-191" on="0"/>
        <pt x="420" y="-148" on="0"/>
        <pt x="420" y="-117" on="1"/>
        <pt x="420" y="-80" on="0"/>
        <pt x="474" y="-15" on="0"/>
        <pt x="519" y="0" on="1"/>
        <pt x="497" y="0" on="1"/>
        <pt x="477" y="162" on="1"/>
        <pt x="195" y="162" on="1"/>
        <pt x="116" y="0" on="1"/>
      </contour>
      <contour>
        <pt x="237" y="250" on="1"/>
        <pt x="467" y="250" on="1"/>
        <pt x="421" y="634" on="1"/>
      </contour>
    </TTGlyph>
    <TTGlyph name="Aring" xMin="15" yMin="0" xMax="593" yMax="915">
      <contour>
        <pt x="15" y="0" on="1"/>
        <pt x="382" y="730" on="1"/>
        <pt x="491" y="730" on="1"/>
        <pt x="593" y="0" on="1"/>
        <pt x="497" y="0" on="1"/>
        <pt x="477" y="160" on="1"/>
        <pt x="195" y="160" on="1"/>
        <pt x="116" y="0" on="1"/>
      </contour>
      <contour>
        <pt x="237" y="247" on="1"/>
        <pt x="467" y="247" on="1"/>
        <pt x="421" y="626" on="1"/>
      </contour>
      <contour>
        <pt x="445" y="676" on="1"/>
        <pt x="415" y="676" on="0"/>
        <pt x="369" y="709" on="0"/>
        <pt x="340" y="764" on="0"/>
        <pt x="340" y="796" on="1"/>
        <pt x="340" y="828" on="0"/>
        <pt x="369" y="882" on="0"/>
        <pt x="415" y="915" on="0"/>
        <pt x="445" y="915" on="1"/>
        <pt x="488" y="915" on="0"/>
        <pt x="545" y="844" on="0"/>
        <pt x="545" y="796" on="1"/>
        <pt x="545" y="747" on="0"/>
        <pt x="488" y="676" on="0"/>
      </contour>
      <contour>
        <pt x="442" y="740" on="1"/>
        <pt x="464" y="740" on="0"/>
        <pt x="491" y="773" on="0"/>
        <pt x="491" y="796" on="1"/>
        <pt x="491" y="819" on="0"/>
        <pt x="464" y="851" on="0"/>
        <pt x="442" y="851" on="1"/>
        <pt x="421" y="851" on="0"/>
        <pt x="394" y="819" on="0"/>
        <pt x="394" y="796" on="1"/>
        <pt x="394" y="773" on="0"/>
        <pt x="421" y="740" on="0"/>
      </contour>
    </TTGlyph>
    <TTGlyph name="Atilde" xMin="15" yMin="0" xMax="593" yMax="931">
      <contour>
        <pt x="15" y="0" on="1"/>
        <pt x="366" y="730" on="1"/>
        <pt x="471" y="730" on="1"/>
        <pt x="568" y="0" on="1"/>
        <pt x="476" y="0" on="1"/>
        <pt x="457" y="160" on="1"/>
        <pt x="186" y="160" on="1"/>
        <pt x="112" y="0" on="1"/>
      </contour>
      <contour>
        <pt x="227" y="247" on="1"/>
        <pt x="448" y="247" on="1"/>
        <pt x="403" y="626" on="1"/>
      </contour>
      <contour>
        <pt x="496" y="816" on="1"/>
        <pt x="471" y="816" on="0"/>
        <pt x="436" y="839" on="0"/>
        <pt x="404" y="862" on="0"/>
        <pt x="381" y="862" on="1"/>
        <pt x="341" y="862" on="0"/>
        <pt x="325" y="819" on="1"/>
        <pt x="267" y="819" on="1"/>
        <pt x="285" y="876" on="0"/>
        <pt x="346" y="931" on="0"/>
        <pt x="381" y="931" on="1"/>
        <pt x="412" y="931" on="0"/>
        <pt x="448" y="908" on="0"/>
        <pt x="478" y="885" on="0"/>
        <pt x="496" y="885" on="1"/>
        <pt x="513" y="885" on="0"/>
        <pt x="533" y="906" on="0"/>
        <pt x="543" y="917" on="1"/>
        <pt x="554" y="931" on="0"/>
        <pt x="567" y="931" on="1"/>
        <pt x="579" y="931" on="0"/>
        <pt x="593" y="911" on="0"/>
        <pt x="593" y="897" on="1"/>
        <pt x="593" y="887" on="0"/>
        <pt x="589" y="879" on="1"/>
        <pt x="577" y="857" on="0"/>
        <pt x="533" y="816" on="0"/>
      </contour>
    </TTGlyph>
    <TTGlyph name="B" xMin="15" yMin="0" xMax="593" yMax="739">
      <contour>
        <pt x="15" y="0" on="1"/>
        <pt x="154" y="739" on="1"/>
        <pt x="400" y="739" on="1"/>
        <pt x="467" y="739" on="0"/>
        <pt x="552" y="692" on="0"/>
        <pt x="593" y="616" on="0"/>
        <pt x="593" y="573" on="1"/>
        <pt x="593" y="520" on="0"/>
        <pt x="536" y="418" on="0"/>
        <pt x="481" y="390" on="1"/>
        <pt x="522" y="371" on="0"/>
        <pt x="562" y="293" on="0"/>
        <pt x="562" y="245" on="1"/>
        <pt x="562" y="202" on="0"/>
        <pt x="530" y="116" on="0"/>
        <pt x="464" y="45" on="0"/>
        <pt x="363" y="0" on="0"/>
        <pt x="296" y="0" on="1"/>
      </contour>
      <contour>
        <pt x="189" y="422" on="1"/>
        <pt x="358" y="422" on="1"/>
        <pt x="403" y="422" on="0"/>
        <pt x="464" y="461" on="0"/>
        <pt x="495" y="521" on="0"/>
        <pt x="495" y="552" on="1"/>
        <pt x="495" y="591" on="0"/>
        <pt x="446" y="651" on="0"/>
        <pt x="394" y="651" on="1"/>
        <pt x="231" y="651" on="1"/>
      </contour>
      <contour>
        <pt x="126" y="87" on="1"/>
        <pt x="303" y="87" on="1"/>
        <pt x="353" y="87" on="0"/>
        <pt x="422" y="133" on="0"/>
        <pt x="460" y="201" on="0"/>
        <pt x="460" y="236" on="1"/>
        <pt x="460" y="277" on="0"/>
        <pt x="403" y="341" on="0"/>
        <pt x="342" y="341" on="1"/>
        <pt x="173" y="341" on="1"/>
      </contour>
    </TTGlyph>
    <TTGlyph name="Beta" xMin="15" yMin="0" xMax="593" yMax="739">
      <component glyphName="B" x="0" y="0" flags="0x204"/>
    </TTGlyph>
    <TTGlyph name="C" xMin="15" yMin="-13" xMax="593" yMax="752">
      <contour>
        <pt x="266" y="-13" on="1"/>
        <pt x="198" y="-13" on="0"/>
        <pt x="102" y="37" on="0"/>
        <pt x="42" y="123" on="0"/>
        <pt x="15" y="234" on="0"/>
        <pt x="15" y="290" on="1"/>
        <pt x="15" y="383" on="0"/>
        <pt x="67" y="550" on="0"/>
        <pt x="161" y="678" on="0"/>
        <pt x="291" y="752" on="0"/>
        <pt x="369" y="752" on="1"/>
        <pt x="452" y="752" on="0"/>
        <pt x="570" y="669" on="0"/>
        <pt x="593" y="584" on="1"/>
        <pt x="508" y="551" on="1"/>
        <pt x="492" y="606" on="0"/>
        <pt x="414" y="664" on="0"/>
        <pt x="359" y="664" on="1"/>
        <pt x="301" y="664" on="0"/>
        <pt x="208" y="601" on="0"/>
        <pt x="143" y="498" on="0"/>
        <pt x="107" y="368" on="0"/>
        <pt x="107" y="301" on="1"/>
        <pt x="107" y="235" on="0"/>
        <pt x="149" y="132" on="0"/>
        <pt x="225" y="74" on="0"/>
        <pt x="277" y="74" on="1"/>
        <pt x="339" y="74" on="0"/>
        <pt x="426" y="130" on="0"/>
        <pt x="459" y="189" on="1"/>
        <pt x="535" y="155" on="1"/>
        <pt x="491" y="71" on="0"/>
        <pt x="353" y="-13" on="0"/>
      </contour>
    </TTGlyph>
    <TTGlyph name="Cacute" xMin="15" yMin="-13" xMax="593" yMax="944">
      <contour>
        <pt x="266" y="-13" on="1"/>
        <pt x="198" y="-13" on="0"/>
        <pt x="102" y="37" on="0"/>
        <pt x="42" y="122" on="0"/>
        <pt x="15" y="231" on="0"/>
        <pt x="15" y="287" on="1"/>
        <pt x="15" y="378" on="0"/>
        <pt x="67" y="543" on="0"/>
        <pt x="161" y="670" on="0"/>
        <pt x="291" y="743" on="0"/>
        <pt x="369" y="743" on="1"/>
        <pt x="452" y="743" on="0"/>
        <pt x="570" y="661" on="0"/>
        <pt x="593" y="577" on="1"/>
        <pt x="508" y="544" on="1"/>
        <pt x="492" y="599" on="0"/>
        <pt x="414" y="656" on="0"/>
        <pt x="359" y="656" on="1"/>
        <pt x="301" y="656" on="0"/>
        <pt x="208" y="594" on="0"/>
        <pt x="143" y="492" on="0"/>
        <pt x="107" y="364" on="0"/>
        <pt x="107" y="297" on="1"/>
        <pt x="107" y="232" on="0"/>
        <pt x="149" y="130" on="0"/>
        <pt x="225" y="73" on="0"/>
        <pt x="277" y="73" on="1"/>
        <pt x="339" y="73" on="0"/>
        <pt x="426" y="128" on="0"/>
        <pt x="459" y="187" on="1"/>
        <pt x="535" y="153" on="1"/>
        <pt x="491" y="70" on="0"/>
        <pt x="353" y="-13" on="0"/>
      </contour>
      <contour>
        <pt x="320" y="813" on="1"/>
        <pt x="323" y="816" on="0"/>
        <pt x="359" y="850" on="0"/>
        <pt x="404" y="893" on="0"/>
        <pt x="443" y="929" on="0"/>
        <pt x="450" y="934" on="1"/>
        <pt x="464" y="944" on="0"/>
        <pt x="475" y="944" on="1"/>
        <pt x="490" y="944" on="0"/>
        <pt x="510" y="921" on="0"/>
        <pt x="510" y="905" on="1"/>
        <pt x="510" y="891" on="0"/>
        <pt x="498" y="873" on="0"/>
        <pt x="492" y="868" on="1"/>
        <pt x="486" y="863" on="0"/>
        <pt x="459" y="847" on="0"/>
        <pt x="427" y="829" on="0"/>
        <pt x="401" y="815" on="0"/>
        <pt x="397" y="813" on="1"/>
      </contour>
    </TTGlyph>
    <TTGlyph name="Ccaron" xMin="15" yMin="-13" xMax="593" yMax="933">
      <contour>
        <pt x="266" y="-13" on="1"/>
        <pt x="198" y="-13" on="0"/>
        <pt x="102" y="37" on="0"/>
        <pt x="42" y="122" on="0"/>
        <pt x="15" y="231" on="0"/>
        <pt x="15" y="287" on="1"/>
        <pt x="15" y="378" on="0"/>
        <pt x="67" y="543" on="0"/>
        <pt x="161" y="670" on="0"/>
        <pt x="291" y="743" on="0"/>
        <pt x="369" y="743" on="1"/>
        <pt x="452" y="743" on="0"/>
        <pt x="570" y="661" on="0"/>
        <pt x="593" y="577" on="1"/>
        <pt x="508" y="544" on="1"/>
        <pt x="492" y="599" on="0"/>
        <pt x="414" y="656" on="0"/>
        <pt x="359" y="656" on="1"/>
        <pt x="301" y="656" on="0"/>
        <pt x="208" y="594" on="0"/>
        <pt x="143" y="492" on="0"/>
        <pt x="107" y="364" on="0"/>
        <pt x="107" y="297" on="1"/>
        <pt x="107" y="232" on="0"/>
        <pt x="149" y="130" on="0"/>
        <pt x="225" y="73" on="0"/>
        <pt x="277" y="73" on="1"/>
        <pt x="339" y="73" on="0"/>
        <pt x="426" y="128" on="0"/>
        <pt x="459" y="187" on="1"/>
        <pt x="535" y="153" on="1"/>
        <pt x="491" y="70" on="0"/>
        <pt x="353" y="-13" on="0"/>
      </contour>
      <contour>
        <pt x="382" y="802" on="1"/>
        <pt x="353" y="802" on="0"/>
        <pt x="338" y="823" on="1"/>
        <pt x="250" y="933" on="1"/>
        <pt x="338" y="933" on="1"/>
        <pt x="390" y="867" on="1"/>
        <pt x="468" y="933" on="1"/>
        <pt x="561" y="933" on="1"/>
        <pt x="433" y="823" on="1"/>
        <pt x="409" y="802" on="0"/>
      </contour>
    </TTGlyph>
    <TTGlyph name="Ccedilla" xMin="15" yMin="-200" xMax="593" yMax="752">
      <contour>
        <pt x="266" y="-13" on="1"/>
        <pt x="198" y="-13" on="0"/>
        <pt x="102" y="37" on="0"/>
        <pt x="42" y="123" on="0"/>
        <pt x="15" y="234" on="0"/>
        <pt x="15" y="290" on="1"/>
        <pt x="15" y="383" on="0"/>
        <pt x="67" y="550" on="0"/>
        <pt x="161" y="678" on="0"/>
        <pt x="291" y="752" on="0"/>
        <pt x="369" y="752" on="1"/>
        <pt x="452" y="752" on="0"/>
        <pt x="570" y="669" on="0"/>
        <pt x="593" y="584" on="1"/>
        <pt x="508" y="551" on="1"/>
        <pt x="492" y="606" on="0"/>
        <pt x="414" y="664" on="0"/>
        <pt x="359" y="664" on="1"/>
        <pt x="301" y="664" on="0"/>
        <pt x="208" y="601" on="0"/>
        <pt x="143" y="498" on="0"/>
        <pt x="107" y="368" on="0"/>
        <pt x="107" y="301" on="1"/>
        <pt x="107" y="235" on="0"/>
        <pt x="149" y="132" on="0"/>
        <pt x="225" y="74" on="0"/>
        <pt x="277" y="74" on="1"/>
        <pt x="339" y="74" on="0"/>
        <pt x="426" y="130" on="0"/>
        <pt x="459" y="189" on="1"/>
        <pt x="535" y="155" on="1"/>
        <pt x="491" y="71" on="0"/>
        <pt x="353" y="-13" on="0"/>
      </contour>
      <contour>
        <pt x="208" y="-200" on="1"/>
        <pt x="172" y="-200" on="0"/>
        <pt x="125" y="-180" on="1"/>
        <pt x="147" y="-140" on="1"/>
        <pt x="163" y="-147" on="0"/>
        <pt x="190" y="-155" on="0"/>
        <pt x="202" y="-155" on="1"/>
        <pt x="227" y="-155" on="0"/>
        <pt x="256" y="-129" on="0"/>
        <pt x="256" y="-115" on="1"/>
        <pt x="256" y="-105" on="0"/>
        <pt x="241" y="-91" on="0"/>
        <pt x="223" y="-91" on="1"/>
        <pt x="208" y="-91" on="0"/>
        <pt x="195" y="-96" on="0"/>
        <pt x="189" y="-96" on="1"/>
        <pt x="171" y="-96" on="0"/>
        <pt x="171" y="-77" on="1"/>
        <pt x="171" y="-71" on="0"/>
        <pt x="177" y="-63" on="1"/>
        <pt x="242" y="27" on="1"/>
        <pt x="270" y="4" on="1"/>
        <pt x="231" y="-50" on="1"/>
        <pt x="238" y="-49" on="0"/>
        <pt x="248" y="-48" on="0"/>
        <pt x="255" y="-48" on="1"/>
        <pt x="286" y="-48" on="0"/>
        <pt x="317" y="-83" on="0"/>
        <pt x="317" y="-106" on="1"/>
        <pt x="317" y="-139" on="0"/>
        <pt x="262" y="-200" on="0"/>
      </contour>
    </TTGlyph>
    <TTGlyph name="Ccircumflex" xMin="15" yMin="-13" xMax="593" yMax="950">
      <component glyphName="C" x="0" y="0" flags="0x204"/>
      <component glyphName="uni0302.case" x="604" y="0" flags="0x4"/>
    </TTGlyph>
    <TTGlyph name="Cdotaccent" xMin="15" yMin="-13" xMax="593" yMax="943">
      <contour>
        <pt x="266" y="-13" on="1"/>
        <pt x="198" y="-13" on="0"/>
        <pt x="102" y="37" on="0"/>
        <pt x="42" y="122" on="0"/>
        <pt x="15" y="231" on="0"/>
        <pt x="15" y="287" on="1"/>
        <pt x="15" y="378" on="0"/>
        <pt x="67" y="543" on="0"/>
        <pt x="161" y="670" on="0"/>
        <pt x="291" y="743" on="0"/>
        <pt x="369" y="743" on="1"/>
        <pt x="452" y="743" on="0"/>
        <pt x="570" y="661" on="0"/>
        <pt x="593" y="577" on="1"/>
        <pt x="508" y="544" on="1"/>
        <pt x="492" y="599" on="0"/>
        <pt x="414" y="656" on="0"/>
        <pt x="359" y="656" on="1"/>
        <pt x="301" y="656" on="0"/>
        <pt x="208" y="594" on="0"/>
        <pt x="143" y="492" on="0"/>
        <pt x="107" y="364" on="0"/>
        <pt x="107" y="297" on="1"/>
        <pt x="107" y="232" on="0"/>
        <pt x="149" y="130" on="0"/>
        <pt x="225" y="73" on="0"/>
        <pt x="277" y="73" on="1"/>
        <pt x="339" y="73" on="0"/>
        <pt x="426" y="128" on="0"/>
        <pt x="459" y="187" on="1"/>
        <pt x="535" y="153" on="1"/>
        <pt x="491" y="70" on="0"/>
        <pt x="353" y="-13" on="0"/>
      </contour>
      <contour>
        <pt x="396" y="825" on="1"/>
        <pt x="375" y="825" on="0"/>
        <pt x="344" y="860" on="0"/>
        <pt x="344" y="884" on="1"/>
        <pt x="344" y="909" on="0"/>
        <pt x="375" y="943" on="0"/>
        <pt x="396" y="943" on="1"/>
        <pt x="418" y="943" on="0"/>
        <pt x="449" y="909" on="0"/>
        <pt x="449" y="884" on="1"/>
        <pt x="449" y="860" on="0"/>
        <pt x="418" y="825" on="0"/>
      </contour>
    </TTGlyph>
    <TTGlyph name="Chi" xMin="15" yMin="0" xMax="593" yMax="739">
      <component glyphName="X" x="0" y="0" flags="0x204"/>
    </TTGlyph>
    <TTGlyph name="D" xMin="15" yMin="0" xMax="612" yMax="739">
      <contour>
        <pt x="15" y="0" on="1"/>
        <pt x="146" y="739" on="1"/>
        <pt x="317" y="739" on="1"/>
        <pt x="481" y="739" on="0"/>
        <pt x="612" y="546" on="0"/>
        <pt x="586" y="353" on="1"/>
        <pt x="569" y="235" on="0"/>
        <pt x="459" y="77" on="0"/>
        <pt x="292" y="0" on="0"/>
        <pt x="186" y="0" on="1"/>
      </contour>
      <contour>
        <pt x="120" y="87" on="1"/>
        <pt x="199" y="87" on="1"/>
        <pt x="275" y="87" on="0"/>
        <pt x="399" y="140" on="0"/>
        <pt x="484" y="259" on="0"/>
        <pt x="497" y="359" on="1"/>
        <pt x="519" y="515" on="0"/>
        <pt x="424" y="651" on="0"/>
        <pt x="298" y="651" on="1"/>
        <pt x="220" y="651" on="1"/>
      </contour>
    </TTGlyph>
    <TTGlyph name="Dcaron" xMin="15" yMin="0" xMax="612" yMax="933">
      <contour>
        <pt x="15" y="0" on="1"/>
        <pt x="146" y="730" on="1"/>
        <pt x="317" y="730" on="1"/>
        <pt x="481" y="730" on="0"/>
        <pt x="612" y="540" on="0"/>
        <pt x="586" y="349" on="1"/>
        <pt x="569" y="232" on="0"/>
        <pt x="459" y="76" on="0"/>
        <pt x="292" y="0" on="0"/>
        <pt x="186" y="0" on="1"/>
      </contour>
      <contour>
        <pt x="120" y="86" on="1"/>
        <pt x="199" y="86" on="1"/>
        <pt x="275" y="86" on="0"/>
        <pt x="399" y="138" on="0"/>
        <pt x="484" y="256" on="0"/>
        <pt x="497" y="355" on="1"/>
        <pt x="519" y="509" on="0"/>
        <pt x="424" y="643" on="0"/>
        <pt x="298" y="643" on="1"/>
        <pt x="220" y="643" on="1"/>
      </contour>
      <contour>
        <pt x="383" y="802" on="1"/>
        <pt x="355" y="802" on="0"/>
        <pt x="340" y="823" on="1"/>
        <pt x="257" y="933" on="1"/>
        <pt x="340" y="933" on="1"/>
        <pt x="391" y="867" on="1"/>
        <pt x="466" y="933" on="1"/>
        <pt x="555" y="933" on="1"/>
        <pt x="432" y="823" on="1"/>
        <pt x="409" y="802" on="0"/>
      </contour>
    </TTGlyph>
    <TTGlyph name="Dcroat" xMin="15" yMin="0" xMax="611" yMax="739">
      <contour>
        <pt x="39" y="0" on="1"/>
        <pt x="96" y="335" on="1"/>
        <pt x="15" y="335" on="1"/>
        <pt x="30" y="424" on="1"/>
        <pt x="111" y="424" on="1"/>
        <pt x="166" y="739" on="1"/>
        <pt x="328" y="739" on="1"/>
        <pt x="486" y="739" on="0"/>
        <pt x="611" y="546" on="0"/>
        <pt x="586" y="353" on="1"/>
        <pt x="570" y="235" on="0"/>
        <pt x="466" y="77" on="0"/>
        <pt x="304" y="0" on="0"/>
        <pt x="204" y="0" on="1"/>
      </contour>
      <contour>
        <pt x="140" y="87" on="1"/>
        <pt x="216" y="87" on="1"/>
        <pt x="288" y="87" on="0"/>
        <pt x="408" y="140" on="0"/>
        <pt x="489" y="259" on="0"/>
        <pt x="502" y="359" on="1"/>
        <pt x="523" y="515" on="0"/>
        <pt x="432" y="651" on="0"/>
        <pt x="311" y="651" on="1"/>
        <pt x="236" y="651" on="1"/>
        <pt x="198" y="424" on="1"/>
        <pt x="321" y="424" on="1"/>
        <pt x="306" y="335" on="1"/>
        <pt x="183" y="335" on="1"/>
      </contour>
    </TTGlyph>
    <TTGlyph name="E" xMin="15" yMin="0" xMax="593" yMax="739">
      <contour>
        <pt x="15" y="0" on="1"/>
        <pt x="152" y="739" on="1"/>
        <pt x="593" y="739" on="1"/>
        <pt x="576" y="649" on="1"/>
        <pt x="229" y="649" on="1"/>
        <pt x="187" y="425" on="1"/>
        <pt x="445" y="425" on="1"/>
        <pt x="427" y="336" on="1"/>
        <pt x="171" y="336" on="1"/>
        <pt x="125" y="90" on="1"/>
        <pt x="472" y="90" on="1"/>
        <pt x="456" y="0" on="1"/>
      </contour>
    </TTGlyph>
    <TTGlyph name="Eacute" xMin="15" yMin="0" xMax="593" yMax="944">
      <contour>
        <pt x="15" y="0" on="1"/>
        <pt x="152" y="730" on="1"/>
        <pt x="593" y="730" on="1"/>
        <pt x="576" y="641" on="1"/>
        <pt x="229" y="641" on="1"/>
        <pt x="187" y="420" on="1"/>
        <pt x="445" y="420" on="1"/>
        <pt x="427" y="332" on="1"/>
        <pt x="171" y="332" on="1"/>
        <pt x="125" y="89" on="1"/>
        <pt x="472" y="89" on="1"/>
        <pt x="456" y="0" on="1"/>
      </contour>
      <contour>
        <pt x="322" y="813" on="1"/>
        <pt x="326" y="816" on="0"/>
        <pt x="362" y="850" on="0"/>
        <pt x="408" y="893" on="0"/>
        <pt x="447" y="929" on="0"/>
        <pt x="454" y="934" on="1"/>
        <pt x="468" y="944" on="0"/>
        <pt x="479" y="944" on="1"/>
        <pt x="493" y="944" on="0"/>
        <pt x="514" y="921" on="0"/>
        <pt x="514" y="905" on="1"/>
        <pt x="514" y="891" on="0"/>
        <pt x="503" y="873" on="0"/>
        <pt x="495" y="868" on="1"/>
        <pt x="490" y="863" on="0"/>
        <pt x="462" y="847" on="0"/>
        <pt x="430" y="829" on="0"/>
        <pt x="404" y="815" on="0"/>
        <pt x="400" y="813" on="1"/>
      </contour>
    </TTGlyph>
    <TTGlyph name="Ebreve" xMin="15" yMin="0" xMax="593" yMax="950">
      <component glyphName="E" x="0" y="0" flags="0x204"/>
      <component glyphName="uni0306.case" x="619" y="0" flags="0x4"/>
    </TTGlyph>
    <TTGlyph name="Ecaron" xMin="15" yMin="0" xMax="593" yMax="933">
      <contour>
        <pt x="15" y="0" on="1"/>
        <pt x="152" y="730" on="1"/>
        <pt x="593" y="730" on="1"/>
        <pt x="576" y="641" on="1"/>
        <pt x="229" y="641" on="1"/>
        <pt x="187" y="420" on="1"/>
        <pt x="445" y="420" on="1"/>
        <pt x="427" y="332" on="1"/>
        <pt x="171" y="332" on="1"/>
        <pt x="125" y="89" on="1"/>
        <pt x="472" y="89" on="1"/>
        <pt x="456" y="0" on="1"/>
      </contour>
      <contour>
        <pt x="385" y="802" on="1"/>
        <pt x="356" y="802" on="0"/>
        <pt x="340" y="823" on="1"/>
        <pt x="253" y="933" on="1"/>
        <pt x="340" y="933" on="1"/>
        <pt x="393" y="867" on="1"/>
        <pt x="471" y="933" on="1"/>
        <pt x="565" y="933" on="1"/>
        <pt x="436" y="823" on="1"/>
        <pt x="412" y="802" on="0"/>
      </contour>
    </TTGlyph>
    <TTGlyph name="Ecircumflex" xMin="15" yMin="0" xMax="593" yMax="947">
      <contour>
        <pt x="15" y="0" on="1"/>
        <pt x="152" y="730" on="1"/>
        <pt x="593" y="730" on="1"/>
        <pt x="576" y="641" on="1"/>
        <pt x="229" y="641" on="1"/>
        <pt x="187" y="420" on="1"/>
        <pt x="445" y="420" on="1"/>
        <pt x="427" y="332" on="1"/>
        <pt x="171" y="332" on="1"/>
        <pt x="125" y="89" on="1"/>
        <pt x="472" y="89" on="1"/>
        <pt x="456" y="0" on="1"/>
      </contour>
      <contour>
        <pt x="230" y="816" on="1"/>
        <pt x="359" y="927" on="1"/>
        <pt x="382" y="947" on="0"/>
        <pt x="411" y="947" on="1"/>
        <pt x="438" y="947" on="0"/>
        <pt x="455" y="927" on="1"/>
        <pt x="543" y="816" on="1"/>
        <pt x="454" y="816" on="1"/>
        <pt x="400" y="883" on="1"/>
        <pt x="323" y="816" on="1"/>
      </contour>
    </TTGlyph>
    <TTGlyph name="Edieresis" xMin="15" yMin="0" xMax="593" yMax="926">
      <contour>
        <pt x="15" y="0" on="1"/>
        <pt x="152" y="730" on="1"/>
        <pt x="593" y="730" on="1"/>
        <pt x="576" y="641" on="1"/>
        <pt x="229" y="641" on="1"/>
        <pt x="187" y="420" on="1"/>
        <pt x="445" y="420" on="1"/>
        <pt x="427" y="332" on="1"/>
        <pt x="171" y="332" on="1"/>
        <pt x="125" y="89" on="1"/>
        <pt x="472" y="89" on="1"/>
        <pt x="456" y="0" on="1"/>
      </contour>
      <contour>
        <pt x="294" y="809" on="1"/>
        <pt x="273" y="809" on="0"/>
        <pt x="242" y="844" on="0"/>
        <pt x="242" y="868" on="1"/>
        <pt x="242" y="892" on="0"/>
        <pt x="273" y="926" on="0"/>
        <pt x="294" y="926" on="1"/>
        <pt x="316" y="926" on="0"/>
        <pt x="346" y="892" on="0"/>
        <pt x="346" y="868" on="1"/>
        <pt x="346" y="844" on="0"/>
        <pt x="316" y="809" on="0"/>
      </contour>
      <contour>
        <pt x="498" y="809" on="1"/>
        <pt x="477" y="809" on="0"/>
        <pt x="447" y="844" on="0"/>
        <pt x="447" y="868" on="1"/>
        <pt x="447" y="892" on="0"/>
        <pt x="477" y="926" on="0"/>
        <pt x="498" y="926" on="1"/>
        <pt x="520" y="926" on="0"/>
        <pt x="551" y="892" on="0"/>
        <pt x="551" y="868" on="1"/>
        <pt x="551" y="844" on="0"/>
        <pt x="520" y="809" on="0"/>
      </contour>
    </TTGlyph>
    <TTGlyph name="Edotaccent" xMin="15" yMin="0" xMax="593" yMax="943">
      <contour>
        <pt x="15" y="0" on="1"/>
        <pt x="152" y="730" on="1"/>
        <pt x="593" y="730" on="1"/>
        <pt x="576" y="641" on="1"/>
        <pt x="229" y="641" on="1"/>
        <pt x="187" y="420" on="1"/>
        <pt x="445" y="420" on="1"/>
        <pt x="427" y="332" on="1"/>
        <pt x="171" y="332" on="1"/>
        <pt x="125" y="89" on="1"/>
        <pt x="472" y="89" on="1"/>
        <pt x="456" y="0" on="1"/>
      </contour>
      <contour>
        <pt x="399" y="825" on="1"/>
        <pt x="378" y="825" on="0"/>
        <pt x="347" y="860" on="0"/>
        <pt x="347" y="884" on="1"/>
        <pt x="347" y="909" on="0"/>
        <pt x="378" y="943" on="0"/>
        <pt x="399" y="943" on="1"/>
        <pt x="422" y="943" on="0"/>
        <pt x="452" y="909" on="0"/>
        <pt x="452" y="884" on="1"/>
        <pt x="452" y="860" on="0"/>
        <pt x="422" y="825" on="0"/>
      </contour>
    </TTGlyph>
    <TTGlyph name="Egrave" xMin="15" yMin="0" xMax="593" yMax="944">
      <contour>
        <pt x="15" y="0" on="1"/>
        <pt x="152" y="730" on="1"/>
        <pt x="593" y="730" on="1"/>
        <pt x="576" y="641" on="1"/>
        <pt x="229" y="641" on="1"/>
        <pt x="187" y="420" on="1"/>
        <pt x="445" y="420" on="1"/>
        <pt x="427" y="332" on="1"/>
        <pt x="171" y="332" on="1"/>
        <pt x="125" y="89" on="1"/>
        <pt x="472" y="89" on="1"/>
        <pt x="456" y="0" on="1"/>
      </contour>
      <contour>
        <pt x="379" y="813" on="1"/>
        <pt x="346" y="840" on="0"/>
        <pt x="325" y="860" on="1"/>
        <pt x="302" y="882" on="0"/>
        <pt x="302" y="905" on="1"/>
        <pt x="302" y="915" on="0"/>
        <pt x="317" y="944" on="0"/>
        <pt x="337" y="944" on="1"/>
        <pt x="354" y="944" on="0"/>
        <pt x="368" y="927" on="1"/>
        <pt x="385" y="903" on="0"/>
        <pt x="430" y="841" on="0"/>
        <pt x="450" y="813" on="1"/>
      </contour>
    </TTGlyph>
    <TTGlyph name="Emacron" xMin="15" yMin="0" xMax="593" yMax="906">
      <contour>
        <pt x="15" y="0" on="1"/>
        <pt x="152" y="730" on="1"/>
        <pt x="593" y="730" on="1"/>
        <pt x="576" y="641" on="1"/>
        <pt x="229" y="641" on="1"/>
        <pt x="187" y="420" on="1"/>
        <pt x="445" y="420" on="1"/>
        <pt x="427" y="332" on="1"/>
        <pt x="171" y="332" on="1"/>
        <pt x="125" y="89" on="1"/>
        <pt x="472" y="89" on="1"/>
        <pt x="456" y="0" on="1"/>
      </contour>
      <contour>
        <pt x="257" y="833" on="1"/>
        <pt x="269" y="906" on="1"/>
        <pt x="537" y="906" on="1"/>
        <pt x="524" y="833" on="1"/>
      </contour>
    </TTGlyph>
    <TTGlyph name="Eng" xMin="32" yMin="-182" xMax="598" yMax="739">
      <contour>
        <pt x="160" y="-182" on="1"/>
        <pt x="173" y="-99" on="1"/>
        <pt x="242" y="-99" on="1"/>
        <pt x="298" y="-99" on="0"/>
        <pt x="374" y="-37" on="0"/>
        <pt x="382" y="15" on="1"/>
        <pt x="219" y="633" on="1"/>
        <pt x="217" y="608" on="0"/>
        <pt x="209" y="534" on="0"/>
        <pt x="199" y="452" on="0"/>
        <pt x="192" y="415" on="1"/>
        <pt x="124" y="0" on="1"/>
        <pt x="32" y="0" on="1"/>
        <pt x="154" y="739" on="1"/>
        <pt x="279" y="739" on="1"/>
        <pt x="424" y="181" on="1"/>
        <pt x="427" y="206" on="0"/>
        <pt x="434" y="281" on="0"/>
        <pt x="443" y="365" on="0"/>
        <pt x="450" y="402" on="1"/>
        <pt x="506" y="739" on="1"/>
        <pt x="598" y="739" on="1"/>
        <pt x="477" y="15" on="1"/>
        <pt x="468" y="-45" on="0"/>
        <pt x="399" y="-134" on="0"/>
        <pt x="294" y="-182" on="0"/>
        <pt x="228" y="-182" on="1"/>
      </contour>
    </TTGlyph>
    <TTGlyph name="Eogonek" xMin="15" yMin="-191" xMax="593" yMax="739">
      <contour>
        <pt x="15" y="0" on="1"/>
        <pt x="152" y="739" on="1"/>
        <pt x="593" y="739" on="1"/>
        <pt x="576" y="649" on="1"/>
        <pt x="229" y="649" on="1"/>
        <pt x="187" y="425" on="1"/>
        <pt x="445" y="425" on="1"/>
        <pt x="427" y="336" on="1"/>
        <pt x="171" y="336" on="1"/>
        <pt x="125" y="90" on="1"/>
        <pt x="472" y="90" on="1"/>
        <pt x="456" y="0" on="1"/>
      </contour>
      <contour>
        <pt x="327" y="-191" on="1"/>
        <pt x="288" y="-191" on="0"/>
        <pt x="246" y="-148" on="0"/>
        <pt x="246" y="-117" on="1"/>
        <pt x="246" y="-80" on="0"/>
        <pt x="303" y="-15" on="0"/>
        <pt x="350" y="0" on="1"/>
        <pt x="426" y="0" on="1"/>
        <pt x="380" y="-19" on="0"/>
        <pt x="321" y="-70" on="0"/>
        <pt x="321" y="-98" on="1"/>
        <pt x="321" y="-111" on="0"/>
        <pt x="343" y="-129" on="0"/>
        <pt x="361" y="-129" on="1"/>
        <pt x="380" y="-129" on="0"/>
        <pt x="403" y="-118" on="1"/>
        <pt x="393" y="-178" on="1"/>
        <pt x="355" y="-191" on="0"/>
      </contour>
    </TTGlyph>
    <TTGlyph name="Epsilon" xMin="15" yMin="0" xMax="593" yMax="739">
      <component glyphName="E" x="0" y="0" flags="0x204"/>
    </TTGlyph>
    <TTGlyph name="Epsilontonos" xMin="-69" yMin="0" xMax="593" yMax="739">
      <component glyphName="E" x="0" y="0" flags="0x204"/>
      <component glyphName="tonos.case" x="-340" y="0" flags="0x4"/>
    </TTGlyph>
    <TTGlyph name="Eta" xMin="15" yMin="0" xMax="593" yMax="739">
      <component glyphName="H" x="0" y="0" flags="0x204"/>
    </TTGlyph>
    <TTGlyph name="Etatonos" xMin="-69" yMin="0" xMax="593" yMax="739">
      <component glyphName="tonos.case" x="-340" y="0" flags="0x4"/>
      <component glyphName="H" x="0" y="0" flags="0x204"/>
    </TTGlyph>
    <TTGlyph name="Eth" xMin="15" yMin="0" xMax="611" yMax="739">
      <contour>
        <pt x="39" y="0" on="1"/>
        <pt x="96" y="335" on="1"/>
        <pt x="15" y="335" on="1"/>
        <pt x="30" y="424" on="1"/>
        <pt x="111" y="424" on="1"/>
        <pt x="166" y="739" on="1"/>
        <pt x="328" y="739" on="1"/>
        <pt x="486" y="739" on="0"/>
        <pt x="611" y="546" on="0"/>
        <pt x="586" y="353" on="1"/>
        <pt x="570" y="235" on="0"/>
        <pt x="466" y="77" on="0"/>
        <pt x="304" y="0" on="0"/>
        <pt x="204" y="0" on="1"/>
      </contour>
      <contour>
        <pt x="140" y="87" on="1"/>
        <pt x="216" y="87" on="1"/>
        <pt x="288" y="87" on="0"/>
        <pt x="408" y="140" on="0"/>
        <pt x="489" y="259" on="0"/>
        <pt x="502" y="359" on="1"/>
        <pt x="523" y="515" on="0"/>
        <pt x="432" y="651" on="0"/>
        <pt x="311" y="651" on="1"/>
        <pt x="236" y="651" on="1"/>
        <pt x="198" y="424" on="1"/>
        <pt x="321" y="424" on="1"/>
        <pt x="306" y="335" on="1"/>
        <pt x="183" y="335" on="1"/>
      </contour>
    </TTGlyph>
    <TTGlyph name="Euro" xMin="11" yMin="-10" xMax="547" yMax="730">
      <contour>
        <pt x="321" y="-10" on="1"/>
        <pt x="217" y="-10" on="0"/>
        <pt x="94" y="107" on="0"/>
        <pt x="94" y="205" on="1"/>
        <pt x="94" y="245" on="1"/>
        <pt x="11" y="245" on="1"/>
        <pt x="11" y="310" on="1"/>
        <pt x="94" y="310" on="1"/>
        <pt x="94" y="410" on="1"/>
        <pt x="11" y="410" on="1"/>
        <pt x="11" y="475" on="1"/>
        <pt x="94" y="475" on="1"/>
        <pt x="94" y="515" on="1"/>
        <pt x="94" y="613" on="0"/>
        <pt x="217" y="730" on="0"/>
        <pt x="321" y="730" on="1"/>
        <pt x="416" y="730" on="0"/>
        <pt x="537" y="627" on="0"/>
        <pt x="547" y="535" on="1"/>
        <pt x="455" y="535" on="1"/>
        <pt x="448" y="589" on="0"/>
        <pt x="377" y="650" on="0"/>
        <pt x="321" y="650" on="1"/>
        <pt x="259" y="650" on="0"/>
        <pt x="187" y="578" on="0"/>
        <pt x="187" y="515" on="1"/>
        <pt x="187" y="475" on="1"/>
        <pt x="357" y="475" on="1"/>
        <pt x="357" y="410" on="1"/>
        <pt x="187" y="410" on="1"/>
        <pt x="187" y="310" on="1"/>
        <pt x="357" y="310" on="1"/>
        <pt x="357" y="245" on="1"/>
        <pt x="187" y="245" on="1"/>
        <pt x="187" y="205" on="1"/>
        <pt x="187" y="142" on="0"/>
        <pt x="258" y="70" on="0"/>
        <pt x="321" y="70" on="1"/>
        <pt x="377" y="70" on="0"/>
        <pt x="448" y="131" on="0"/>
        <pt x="455" y="185" on="1"/>
        <pt x="547" y="185" on="1"/>
        <pt x="537" y="94" on="0"/>
        <pt x="416" y="-10" on="0"/>
      </contour>
    </TTGlyph>
    <TTGlyph name="F" xMin="15" yMin="0" xMax="593" yMax="739">
      <contour>
        <pt x="15" y="0" on="1"/>
        <pt x="158" y="739" on="1"/>
        <pt x="593" y="739" on="1"/>
        <pt x="575" y="649" on="1"/>
        <pt x="237" y="649" on="1"/>
        <pt x="193" y="425" on="1"/>
        <pt x="532" y="425" on="1"/>
        <pt x="515" y="336" on="1"/>
        <pt x="177" y="336" on="1"/>
        <pt x="111" y="0" on="1"/>
      </contour>
    </TTGlyph>
    <TTGlyph name="G" xMin="15" yMin="-13" xMax="593" yMax="752">
      <contour>
        <pt x="251" y="-13" on="1"/>
        <pt x="177" y="-13" on="0"/>
        <pt x="71" y="64" on="0"/>
        <pt x="15" y="202" on="0"/>
        <pt x="15" y="293" on="1"/>
        <pt x="15" y="386" on="0"/>
        <pt x="66" y="552" on="0"/>
        <pt x="160" y="679" on="0"/>
        <pt x="288" y="752" on="0"/>
        <pt x="365" y="752" on="1"/>
        <pt x="455" y="752" on="0"/>
        <pt x="572" y="668" on="0"/>
        <pt x="593" y="584" on="1"/>
        <pt x="508" y="551" on="1"/>
        <pt x="498" y="593" on="0"/>
        <pt x="424" y="664" on="0"/>
        <pt x="359" y="664" on="1"/>
        <pt x="300" y="664" on="0"/>
        <pt x="207" y="603" on="0"/>
        <pt x="142" y="499" on="0"/>
        <pt x="108" y="370" on="0"/>
        <pt x="108" y="302" on="1"/>
        <pt x="108" y="195" on="0"/>
        <pt x="199" y="76" on="0"/>
        <pt x="268" y="74" on="1"/>
        <pt x="316" y="72" on="0"/>
        <pt x="402" y="106" on="0"/>
        <pt x="469" y="193" on="0"/>
        <pt x="485" y="269" on="1"/>
        <pt x="490" y="292" on="1"/>
        <pt x="301" y="292" on="1"/>
        <pt x="317" y="381" on="1"/>
        <pt x="593" y="381" on="1"/>
        <pt x="523" y="0" on="1"/>
        <pt x="468" y="0" on="1"/>
        <pt x="462" y="91" on="1"/>
        <pt x="381" y="-13" on="0"/>
      </contour>
    </TTGlyph>
    <TTGlyph name="Gamma" xMin="74" yMin="0" xMax="645" yMax="739">
      <component glyphName="uni0413" x="0" y="0" flags="0x204"/>
    </TTGlyph>
    <TTGlyph name="Gbreve" xMin="15" yMin="-13" xMax="593" yMax="933">
      <contour>
        <pt x="251" y="-13" on="1"/>
        <pt x="177" y="-13" on="0"/>
        <pt x="71" y="63" on="0"/>
        <pt x="15" y="200" on="0"/>
        <pt x="15" y="290" on="1"/>
        <pt x="15" y="381" on="0"/>
        <pt x="66" y="545" on="0"/>
        <pt x="160" y="671" on="0"/>
        <pt x="288" y="743" on="0"/>
        <pt x="365" y="743" on="1"/>
        <pt x="455" y="743" on="0"/>
        <pt x="572" y="660" on="0"/>
        <pt x="593" y="577" on="1"/>
        <pt x="508" y="544" on="1"/>
        <pt x="498" y="586" on="0"/>
        <pt x="424" y="656" on="0"/>
        <pt x="359" y="656" on="1"/>
        <pt x="300" y="656" on="0"/>
        <pt x="207" y="596" on="0"/>
        <pt x="142" y="493" on="0"/>
        <pt x="108" y="366" on="0"/>
        <pt x="108" y="298" on="1"/>
        <pt x="108" y="193" on="0"/>
        <pt x="199" y="75" on="0"/>
        <pt x="268" y="73" on="1"/>
        <pt x="316" y="71" on="0"/>
        <pt x="402" y="105" on="0"/>
        <pt x="469" y="191" on="0"/>
        <pt x="485" y="266" on="1"/>
        <pt x="490" y="289" on="1"/>
        <pt x="301" y="289" on="1"/>
        <pt x="317" y="376" on="1"/>
        <pt x="593" y="376" on="1"/>
        <pt x="523" y="0" on="1"/>
        <pt x="468" y="0" on="1"/>
        <pt x="462" y="90" on="1"/>
        <pt x="381" y="-13" on="0"/>
      </contour>
      <contour>
        <pt x="413" y="802" on="1"/>
        <pt x="372" y="802" on="0"/>
        <pt x="316" y="843" on="0"/>
        <pt x="288" y="904" on="0"/>
        <pt x="288" y="933" on="1"/>
        <pt x="355" y="933" on="1"/>
        <pt x="359" y="912" on="0"/>
        <pt x="389" y="875" on="0"/>
        <pt x="419" y="875" on="1"/>
        <pt x="450" y="875" on="0"/>
        <pt x="492" y="911" on="0"/>
        <pt x="505" y="933" on="1"/>
        <pt x="571" y="933" on="1"/>
        <pt x="560" y="902" on="0"/>
        <pt x="516" y="840" on="0"/>
        <pt x="454" y="802" on="0"/>
      </contour>
    </TTGlyph>
    <TTGlyph name="Gcaron" xMin="15" yMin="-13" xMax="593" yMax="950">
      <component glyphName="G" x="0" y="0" flags="0x204"/>
      <component glyphName="uni030C.case" x="599" y="0" flags="0x4"/>
    </TTGlyph>
    <TTGlyph name="Gcircumflex" xMin="15" yMin="-13" xMax="593" yMax="950">
      <component glyphName="G" x="0" y="0" flags="0x204"/>
      <component glyphName="uni0302.case" x="599" y="0" flags="0x4"/>
    </TTGlyph>
    <TTGlyph name="Gdotaccent" xMin="15" yMin="-13" xMax="593" yMax="943">
      <contour>
        <pt x="251" y="-13" on="1"/>
        <pt x="177" y="-13" on="0"/>
        <pt x="71" y="63" on="0"/>
        <pt x="15" y="200" on="0"/>
        <pt x="15" y="290" on="1"/>
        <pt x="15" y="381" on="0"/>
        <pt x="66" y="545" on="0"/>
        <pt x="160" y="671" on="0"/>
        <pt x="288" y="743" on="0"/>
        <pt x="365" y="743" on="1"/>
        <pt x="455" y="743" on="0"/>
        <pt x="572" y="660" on="0"/>
        <pt x="593" y="577" on="1"/>
        <pt x="508" y="544" on="1"/>
        <pt x="498" y="586" on="0"/>
        <pt x="424" y="656" on="0"/>
        <pt x="359" y="656" on="1"/>
        <pt x="300" y="656" on="0"/>
        <pt x="207" y="596" on="0"/>
        <pt x="142" y="493" on="0"/>
        <pt x="108" y="366" on="0"/>
        <pt x="108" y="298" on="1"/>
        <pt x="108" y="193" on="0"/>
        <pt x="199" y="75" on="0"/>
        <pt x="268" y="73" on="1"/>
        <pt x="316" y="71" on="0"/>
        <pt x="402" y="105" on="0"/>
        <pt x="469" y="191" on="0"/>
        <pt x="485" y="266" on="1"/>
        <pt x="490" y="289" on="1"/>
        <pt x="301" y="289" on="1"/>
        <pt x="317" y="376" on="1"/>
        <pt x="593" y="376" on="1"/>
        <pt x="523" y="0" on="1"/>
        <pt x="468" y="0" on="1"/>
        <pt x="462" y="90" on="1"/>
        <pt x="381" y="-13" on="0"/>
      </contour>
      <contour>
        <pt x="420" y="825" on="1"/>
        <pt x="399" y="825" on="0"/>
        <pt x="369" y="860" on="0"/>
        <pt x="369" y="884" on="1"/>
        <pt x="369" y="909" on="0"/>
        <pt x="399" y="943" on="0"/>
        <pt x="420" y="943" on="1"/>
        <pt x="442" y="943" on="0"/>
        <pt x="472" y="909" on="0"/>
        <pt x="472" y="884" on="1"/>
        <pt x="472" y="860" on="0"/>
        <pt x="442" y="825" on="0"/>
      </contour>
    </TTGlyph>
    <TTGlyph name="H" xMin="15" yMin="0" xMax="593" yMax="739">
      <contour>
        <pt x="15" y="0" on="1"/>
        <pt x="135" y="739" on="1"/>
        <pt x="217" y="739" on="1"/>
        <pt x="166" y="425" on="1"/>
        <pt x="461" y="425" on="1"/>
        <pt x="512" y="739" on="1"/>
        <pt x="593" y="739" on="1"/>
        <pt x="473" y="0" on="1"/>
        <pt x="392" y="0" on="1"/>
        <pt x="447" y="336" on="1"/>
        <pt x="151" y="336" on="1"/>
        <pt x="96" y="0" on="1"/>
      </contour>
    </TTGlyph>
    <TTGlyph name="Hbar" xMin="15" yMin="0" xMax="593" yMax="739">
      <contour>
        <pt x="15" y="0" on="1"/>
        <pt x="98" y="558" on="1"/>
        <pt x="40" y="558" on="1"/>
        <pt x="53" y="645" on="1"/>
        <pt x="112" y="645" on="1"/>
        <pt x="126" y="739" on="1"/>
        <pt x="201" y="739" on="1"/>
        <pt x="187" y="645" on="1"/>
        <pt x="461" y="645" on="1"/>
        <pt x="475" y="739" on="1"/>
        <pt x="550" y="739" on="1"/>
        <pt x="536" y="645" on="1"/>
        <pt x="593" y="645" on="1"/>
        <pt x="580" y="558" on="1"/>
        <pt x="523" y="558" on="1"/>
        <pt x="439" y="0" on="1"/>
        <pt x="364" y="0" on="1"/>
        <pt x="414" y="336" on="1"/>
        <pt x="141" y="336" on="1"/>
        <pt x="90" y="0" on="1"/>
      </contour>
      <contour>
        <pt x="154" y="425" on="1"/>
        <pt x="429" y="425" on="1"/>
        <pt x="448" y="558" on="1"/>
        <pt x="174" y="558" on="1"/>
      </contour>
    </TTGlyph>
    <TTGlyph name="Hcircumflex" xMin="15" yMin="0" xMax="593" yMax="950">
      <component glyphName="H" x="0" y="0" flags="0x204"/>
      <component glyphName="uni0302.case" x="599" y="0" flags="0x4"/>
    </TTGlyph>
    <TTGlyph name="I" xMin="191" yMin="0" xMax="409" yMax="739">
      <contour>
        <pt x="191" y="0" on="1"/>
        <pt x="308" y="739" on="1"/>
        <pt x="409" y="739" on="1"/>
        <pt x="292" y="0" on="1"/>
      </contour>
    </TTGlyph>
    <TTGlyph name="Iacute" xMin="191" yMin="0" xMax="532" yMax="944">
      <contour>
        <pt x="191" y="0" on="1"/>
        <pt x="308" y="739" on="1"/>
        <pt x="409" y="739" on="1"/>
        <pt x="292" y="0" on="1"/>
      </contour>
      <contour>
        <pt x="323" y="813" on="1"/>
        <pt x="327" y="816" on="0"/>
        <pt x="366" y="850" on="0"/>
        <pt x="416" y="893" on="0"/>
        <pt x="459" y="929" on="0"/>
        <pt x="467" y="934" on="1"/>
        <pt x="481" y="944" on="0"/>
        <pt x="494" y="944" on="1"/>
        <pt x="510" y="944" on="0"/>
        <pt x="532" y="921" on="0"/>
        <pt x="532" y="905" on="1"/>
        <pt x="532" y="891" on="0"/>
        <pt x="519" y="873" on="0"/>
        <pt x="512" y="868" on="1"/>
        <pt x="506" y="863" on="0"/>
        <pt x="476" y="847" on="0"/>
        <pt x="440" y="829" on="0"/>
        <pt x="413" y="815" on="0"/>
        <pt x="409" y="813" on="1"/>
      </contour>
    </TTGlyph>
    <TTGlyph name="Ibreve" xMin="191" yMin="0" xMax="566" yMax="950">
      <component glyphName="I" x="0" y="0" flags="0x204"/>
      <component glyphName="uni0306.case" x="599" y="0" flags="0x4"/>
    </TTGlyph>
    <TTGlyph name="Icircumflex" xMin="191" yMin="0" xMax="563" yMax="947">
      <contour>
        <pt x="191" y="0" on="1"/>
        <pt x="308" y="739" on="1"/>
        <pt x="409" y="739" on="1"/>
        <pt x="292" y="0" on="1"/>
      </contour>
      <contour>
        <pt x="222" y="816" on="1"/>
        <pt x="362" y="927" on="1"/>
        <pt x="388" y="947" on="0"/>
        <pt x="419" y="947" on="1"/>
        <pt x="449" y="947" on="0"/>
        <pt x="467" y="927" on="1"/>
        <pt x="563" y="816" on="1"/>
        <pt x="466" y="816" on="1"/>
        <pt x="408" y="883" on="1"/>
        <pt x="323" y="816" on="1"/>
      </contour>
    </TTGlyph>
    <TTGlyph name="Idieresis" xMin="191" yMin="0" xMax="572" yMax="926">
      <contour>
        <pt x="191" y="0" on="1"/>
        <pt x="308" y="739" on="1"/>
        <pt x="409" y="739" on="1"/>
        <pt x="292" y="0" on="1"/>
      </contour>
      <contour>
        <pt x="293" y="809" on="1"/>
        <pt x="269" y="809" on="0"/>
        <pt x="236" y="844" on="0"/>
        <pt x="236" y="868" on="1"/>
        <pt x="236" y="892" on="0"/>
        <pt x="269" y="926" on="0"/>
        <pt x="293" y="926" on="1"/>
        <pt x="317" y="926" on="0"/>
        <pt x="350" y="892" on="0"/>
        <pt x="350" y="868" on="1"/>
        <pt x="350" y="844" on="0"/>
        <pt x="317" y="809" on="0"/>
      </contour>
      <contour>
        <pt x="515" y="809" on="1"/>
        <pt x="492" y="809" on="0"/>
        <pt x="459" y="844" on="0"/>
        <pt x="459" y="868" on="1"/>
        <pt x="459" y="892" on="0"/>
        <pt x="492" y="926" on="0"/>
        <pt x="515" y="926" on="1"/>
        <pt x="539" y="926" on="0"/>
        <pt x="572" y="892" on="0"/>
        <pt x="572" y="868" on="1"/>
        <pt x="572" y="844" on="0"/>
        <pt x="539" y="809" on="0"/>
      </contour>
    </TTGlyph>
    <TTGlyph name="Idotaccent" xMin="191" yMin="0" xMax="469" yMax="944">
      <component glyphName="I" x="0" y="0" flags="0x204"/>
      <component glyphName="uni0307.case" x="599" y="0" flags="0x4"/>
    </TTGlyph>
    <TTGlyph name="Igrave" xMin="191" yMin="0" xMax="462" yMax="944">
      <contour>
        <pt x="191" y="0" on="1"/>
        <pt x="308" y="739" on="1"/>
        <pt x="409" y="739" on="1"/>
        <pt x="292" y="0" on="1"/>
      </contour>
      <contour>
        <pt x="385" y="813" on="1"/>
        <pt x="349" y="840" on="0"/>
        <pt x="326" y="860" on="1"/>
        <pt x="300" y="882" on="0"/>
        <pt x="300" y="905" on="1"/>
        <pt x="300" y="915" on="0"/>
        <pt x="317" y="944" on="0"/>
        <pt x="338" y="944" on="1"/>
        <pt x="357" y="944" on="0"/>
        <pt x="372" y="927" on="1"/>
        <pt x="391" y="903" on="0"/>
        <pt x="440" y="841" on="0"/>
        <pt x="462" y="813" on="1"/>
      </contour>
    </TTGlyph>
    <TTGlyph name="Imacron" xMin="191" yMin="0" xMax="557" yMax="906">
      <contour>
        <pt x="191" y="0" on="1"/>
        <pt x="308" y="739" on="1"/>
        <pt x="409" y="739" on="1"/>
        <pt x="292" y="0" on="1"/>
      </contour>
      <contour>
        <pt x="251" y="833" on="1"/>
        <pt x="266" y="906" on="1"/>
        <pt x="557" y="906" on="1"/>
        <pt x="542" y="833" on="1"/>
      </contour>
    </TTGlyph>
    <TTGlyph name="Iogonek" xMin="84" yMin="-191" xMax="409" yMax="739">
      <contour>
        <pt x="191" y="0" on="1"/>
        <pt x="308" y="739" on="1"/>
        <pt x="409" y="739" on="1"/>
        <pt x="292" y="0" on="1"/>
      </contour>
      <contour>
        <pt x="173" y="-191" on="1"/>
        <pt x="129" y="-191" on="0"/>
        <pt x="84" y="-148" on="0"/>
        <pt x="84" y="-117" on="1"/>
        <pt x="84" y="-80" on="0"/>
        <pt x="145" y="-15" on="0"/>
        <pt x="196" y="0" on="1"/>
        <pt x="279" y="0" on="1"/>
        <pt x="230" y="-19" on="0"/>
        <pt x="165" y="-70" on="0"/>
        <pt x="165" y="-98" on="1"/>
        <pt x="165" y="-111" on="0"/>
        <pt x="190" y="-129" on="0"/>
        <pt x="208" y="-129" on="1"/>
        <pt x="230" y="-129" on="0"/>
        <pt x="255" y="-118" on="1"/>
        <pt x="243" y="-178" on="1"/>
        <pt x="202" y="-191" on="0"/>
      </contour>
    </TTGlyph>
    <TTGlyph name="Iota" xMin="191" yMin="0" xMax="409" yMax="739">
      <component glyphName="I" x="0" y="0" flags="0x204"/>
    </TTGlyph>
    <TTGlyph name="Iotadieresis" xMin="191" yMin="0" xMax="575" yMax="945">
      <component glyphName="I" x="0" y="0" flags="0x204"/>
      <component glyphName="uni0308.case" x="599" y="0" flags="0x4"/>
    </TTGlyph>
    <TTGlyph name="Iotatonos" xMin="-69" yMin="0" xMax="409" yMax="739">
      <component glyphName="tonos.case" x="-340" y="0" flags="0x4"/>
      <component glyphName="I" x="0" y="0" flags="0x204"/>
    </TTGlyph>
    <TTGlyph name="Itilde" xMin="191" yMin="0" xMax="564" yMax="945">
      <component glyphName="I" x="0" y="0" flags="0x204"/>
      <component glyphName="tildecomb.case" x="600" y="0" flags="0x4"/>
    </TTGlyph>
    <TTGlyph name="J" xMin="20" yMin="-13" xMax="580" yMax="739">
      <contour>
        <pt x="210" y="-13" on="1"/>
        <pt x="117" y="-13" on="0"/>
        <pt x="20" y="109" on="0"/>
        <pt x="31" y="210" on="1"/>
        <pt x="126" y="237" on="1"/>
        <pt x="124" y="223" on="0"/>
        <pt x="121" y="195" on="0"/>
        <pt x="121" y="183" on="1"/>
        <pt x="121" y="130" on="0"/>
        <pt x="171" y="72" on="0"/>
        <pt x="223" y="72" on="1"/>
        <pt x="257" y="72" on="0"/>
        <pt x="316" y="98" on="0"/>
        <pt x="362" y="169" on="0"/>
        <pt x="376" y="236" on="1"/>
        <pt x="478" y="739" on="1"/>
        <pt x="580" y="739" on="1"/>
        <pt x="477" y="235" on="1"/>
        <pt x="459" y="145" on="0"/>
        <pt x="396" y="44" on="0"/>
        <pt x="320" y="-2" on="0"/>
        <pt x="243" y="-13" on="0"/>
      </contour>
    </TTGlyph>
    <TTGlyph name="Jcircumflex" xMin="20" yMin="-13" xMax="624" yMax="950">
      <component glyphName="J" x="0" y="0" flags="0x204"/>
      <component glyphName="uni0302.case" x="659" y="0" flags="0x4"/>
    </TTGlyph>
    <TTGlyph name="K" xMin="15" yMin="0" xMax="593" yMax="739">
      <contour>
        <pt x="15" y="0" on="1"/>
        <pt x="141" y="739" on="1"/>
        <pt x="225" y="739" on="1"/>
        <pt x="164" y="382" on="1"/>
        <pt x="478" y="739" on="1"/>
        <pt x="593" y="739" on="1"/>
        <pt x="313" y="426" on="1"/>
        <pt x="489" y="0" on="1"/>
        <pt x="396" y="0" on="1"/>
        <pt x="250" y="358" on="1"/>
        <pt x="140" y="232" on="1"/>
        <pt x="100" y="0" on="1"/>
      </contour>
    </TTGlyph>
    <TTGlyph name="Kappa" xMin="15" yMin="0" xMax="593" yMax="739">
      <component glyphName="K" x="0" y="0" flags="0x204"/>
    </TTGlyph>
    <TTGlyph name="L" xMin="55" yMin="0" xMax="553" yMax="739">
      <contour>
        <pt x="55" y="0" on="1"/>
        <pt x="205" y="739" on="1"/>
        <pt x="306" y="739" on="1"/>
        <pt x="174" y="90" on="1"/>
        <pt x="553" y="90" on="1"/>
        <pt x="535" y="0" on="1"/>
      </contour>
    </TTGlyph>
    <TTGlyph name="Lacute" xMin="55" yMin="0" xMax="553" yMax="950">
      <component glyphName="L" x="0" y="0" flags="0x204"/>
      <component glyphName="acutecomb.case" x="492" y="0" flags="0x4"/>
    </TTGlyph>
    <TTGlyph name="Lambda" xMin="-10" yMin="0" xMax="517" yMax="739">
      <contour>
        <pt x="-10" y="0" on="1"/>
        <pt x="313" y="739" on="1"/>
        <pt x="440" y="739" on="1"/>
        <pt x="517" y="0" on="1"/>
        <pt x="424" y="0" on="1"/>
        <pt x="377" y="501" on="1"/>
        <pt x="370" y="573" on="0"/>
        <pt x="365" y="668" on="0"/>
        <pt x="365" y="668" on="1"/>
        <pt x="365" y="668" on="0"/>
        <pt x="333" y="574" on="0"/>
        <pt x="302" y="502" on="1"/>
        <pt x="90" y="0" on="1"/>
      </contour>
    </TTGlyph>
    <TTGlyph name="Lcaron" xMin="30" yMin="0" xMax="579" yMax="749">
      <contour>
        <pt x="30" y="0" on="1"/>
        <pt x="180" y="739" on="1"/>
        <pt x="281" y="739" on="1"/>
        <pt x="149" y="90" on="1"/>
        <pt x="528" y="90" on="1"/>
        <pt x="510" y="0" on="1"/>
      </contour>
      <contour>
        <pt x="438" y="546" on="1"/>
        <pt x="440" y="552" on="0"/>
        <pt x="456" y="597" on="0"/>
        <pt x="477" y="656" on="0"/>
        <pt x="495" y="706" on="0"/>
        <pt x="500" y="716" on="1"/>
        <pt x="504" y="726" on="0"/>
        <pt x="527" y="749" on="0"/>
        <pt x="545" y="749" on="1"/>
        <pt x="560" y="749" on="0"/>
        <pt x="579" y="731" on="0"/>
        <pt x="579" y="715" on="1"/>
        <pt x="579" y="706" on="0"/>
        <pt x="566" y="683" on="1"/>
        <pt x="490" y="546" on="1"/>
      </contour>
    </TTGlyph>
    <TTGlyph name="Ldot" xMin="55" yMin="0" xMax="553" yMax="739">
      <component glyphName="L" x="0" y="0" flags="0x204"/>
      <component glyphName="period" x="145" y="275" flags="0x4"/>
    </TTGlyph>
    <TTGlyph name="Lslash" xMin="33" yMin="0" xMax="575" yMax="739">
      <contour>
        <pt x="77" y="0" on="1"/>
        <pt x="138" y="294" on="1"/>
        <pt x="33" y="237" on="1"/>
        <pt x="49" y="318" on="1"/>
        <pt x="153" y="374" on="1"/>
        <pt x="227" y="739" on="1"/>
        <pt x="328" y="739" on="1"/>
        <pt x="268" y="438" on="1"/>
        <pt x="480" y="558" on="1"/>
        <pt x="465" y="477" on="1"/>
        <pt x="251" y="358" on="1"/>
        <pt x="197" y="91" on="1"/>
        <pt x="575" y="91" on="1"/>
        <pt x="557" y="0" on="1"/>
      </contour>
    </TTGlyph>
    <TTGlyph name="M" xMin="25" yMin="0" xMax="584" yMax="739">
      <contour>
        <pt x="25" y="0" on="1"/>
        <pt x="123" y="739" on="1"/>
        <pt x="230" y="739" on="1"/>
        <pt x="271" y="140" on="1"/>
        <pt x="472" y="739" on="1"/>
        <pt x="584" y="739" on="1"/>
        <pt x="486" y="0" on="1"/>
        <pt x="420" y="0" on="1"/>
        <pt x="502" y="618" on="1"/>
        <pt x="290" y="0" on="1"/>
        <pt x="225" y="0" on="1"/>
        <pt x="175" y="636" on="1"/>
        <pt x="91" y="0" on="1"/>
      </contour>
    </TTGlyph>
    <TTGlyph name="Mu" xMin="25" yMin="0" xMax="584" yMax="739">
      <component glyphName="M" x="0" y="0" flags="0x204"/>
    </TTGlyph>
    <TTGlyph name="N" xMin="15" yMin="0" xMax="593" yMax="739">
      <contour>
        <pt x="15" y="0" on="1"/>
        <pt x="135" y="739" on="1"/>
        <pt x="251" y="739" on="1"/>
        <pt x="409" y="104" on="1"/>
        <pt x="512" y="739" on="1"/>
        <pt x="593" y="739" on="1"/>
        <pt x="473" y="0" on="1"/>
        <pt x="357" y="0" on="1"/>
        <pt x="201" y="637" on="1"/>
        <pt x="96" y="0" on="1"/>
      </contour>
    </TTGlyph>
    <TTGlyph name="Nacute" xMin="15" yMin="0" xMax="593" yMax="944">
      <contour>
        <pt x="15" y="0" on="1"/>
        <pt x="135" y="730" on="1"/>
        <pt x="251" y="730" on="1"/>
        <pt x="409" y="103" on="1"/>
        <pt x="512" y="730" on="1"/>
        <pt x="593" y="730" on="1"/>
        <pt x="473" y="0" on="1"/>
        <pt x="357" y="0" on="1"/>
        <pt x="201" y="629" on="1"/>
        <pt x="96" y="0" on="1"/>
      </contour>
      <contour>
        <pt x="330" y="813" on="1"/>
        <pt x="334" y="816" on="0"/>
        <pt x="364" y="850" on="0"/>
        <pt x="404" y="893" on="0"/>
        <pt x="439" y="929" on="0"/>
        <pt x="446" y="934" on="1"/>
        <pt x="457" y="944" on="0"/>
        <pt x="467" y="944" on="1"/>
        <pt x="479" y="944" on="0"/>
        <pt x="497" y="921" on="0"/>
        <pt x="497" y="905" on="1"/>
        <pt x="497" y="891" on="0"/>
        <pt x="488" y="873" on="0"/>
        <pt x="481" y="868" on="1"/>
        <pt x="476" y="863" on="0"/>
        <pt x="453" y="847" on="0"/>
        <pt x="424" y="829" on="0"/>
        <pt x="402" y="815" on="0"/>
        <pt x="398" y="813" on="1"/>
      </contour>
    </TTGlyph>
    <TTGlyph name="Ncaron" xMin="15" yMin="0" xMax="593" yMax="933">
      <contour>
        <pt x="15" y="0" on="1"/>
        <pt x="135" y="730" on="1"/>
        <pt x="251" y="730" on="1"/>
        <pt x="409" y="103" on="1"/>
        <pt x="512" y="730" on="1"/>
        <pt x="593" y="730" on="1"/>
        <pt x="473" y="0" on="1"/>
        <pt x="357" y="0" on="1"/>
        <pt x="201" y="629" on="1"/>
        <pt x="96" y="0" on="1"/>
      </contour>
      <contour>
        <pt x="385" y="802" on="1"/>
        <pt x="360" y="802" on="0"/>
        <pt x="346" y="823" on="1"/>
        <pt x="269" y="933" on="1"/>
        <pt x="346" y="933" on="1"/>
        <pt x="392" y="867" on="1"/>
        <pt x="460" y="933" on="1"/>
        <pt x="543" y="933" on="1"/>
        <pt x="430" y="823" on="1"/>
        <pt x="409" y="802" on="0"/>
      </contour>
    </TTGlyph>
    <TTGlyph name="Ntilde" xMin="15" yMin="0" xMax="593" yMax="931">
      <contour>
        <pt x="15" y="0" on="1"/>
        <pt x="135" y="730" on="1"/>
        <pt x="251" y="730" on="1"/>
        <pt x="409" y="103" on="1"/>
        <pt x="512" y="730" on="1"/>
        <pt x="593" y="730" on="1"/>
        <pt x="473" y="0" on="1"/>
        <pt x="357" y="0" on="1"/>
        <pt x="201" y="629" on="1"/>
        <pt x="96" y="0" on="1"/>
      </contour>
      <contour>
        <pt x="455" y="816" on="1"/>
        <pt x="431" y="816" on="0"/>
        <pt x="398" y="839" on="0"/>
        <pt x="369" y="862" on="0"/>
        <pt x="346" y="862" on="1"/>
        <pt x="308" y="862" on="0"/>
        <pt x="294" y="819" on="1"/>
        <pt x="239" y="819" on="1"/>
        <pt x="256" y="876" on="0"/>
        <pt x="313" y="931" on="0"/>
        <pt x="347" y="931" on="1"/>
        <pt x="375" y="931" on="0"/>
        <pt x="410" y="908" on="0"/>
        <pt x="438" y="885" on="0"/>
        <pt x="455" y="885" on="1"/>
        <pt x="471" y="885" on="0"/>
        <pt x="490" y="906" on="0"/>
        <pt x="498" y="917" on="1"/>
        <pt x="510" y="931" on="0"/>
        <pt x="522" y="931" on="1"/>
        <pt x="532" y="931" on="0"/>
        <pt x="547" y="911" on="0"/>
        <pt x="547" y="897" on="1"/>
        <pt x="547" y="887" on="0"/>
        <pt x="543" y="879" on="1"/>
        <pt x="531" y="857" on="0"/>
        <pt x="490" y="816" on="0"/>
      </contour>
    </TTGlyph>
    <TTGlyph name="Nu" xMin="15" yMin="0" xMax="593" yMax="739">
      <component glyphName="N" x="0" y="0" flags="0x204"/>
    </TTGlyph>
    <TTGlyph name="O" xMin="15" yMin="-13" xMax="593" yMax="752">
      <contour>
        <pt x="248" y="-13" on="1"/>
        <pt x="176" y="-13" on="0"/>
        <pt x="71" y="68" on="0"/>
        <pt x="15" y="207" on="0"/>
        <pt x="15" y="297" on="1"/>
        <pt x="15" y="393" on="0"/>
        <pt x="65" y="558" on="0"/>
        <pt x="154" y="682" on="0"/>
        <pt x="281" y="752" on="0"/>
        <pt x="359" y="752" on="1"/>
        <pt x="433" y="752" on="0"/>
        <pt x="537" y="670" on="0"/>
        <pt x="593" y="531" on="0"/>
        <pt x="593" y="443" on="1"/>
        <pt x="593" y="348" on="0"/>
        <pt x="544" y="182" on="0"/>
        <pt x="452" y="58" on="0"/>
        <pt x="325" y="-13" on="0"/>
      </contour>
      <contour>
        <pt x="261" y="74" on="1"/>
        <pt x="318" y="74" on="0"/>
        <pt x="410" y="135" on="0"/>
        <pt x="473" y="239" on="0"/>
        <pt x="507" y="370" on="0"/>
        <pt x="507" y="441" on="1"/>
        <pt x="507" y="513" on="0"/>
        <pt x="465" y="612" on="0"/>
        <pt x="392" y="664" on="0"/>
        <pt x="346" y="664" on="1"/>
        <pt x="289" y="664" on="0"/>
        <pt x="199" y="604" on="0"/>
        <pt x="135" y="502" on="0"/>
        <pt x="102" y="370" on="0"/>
        <pt x="102" y="298" on="1"/>
        <pt x="102" y="226" on="0"/>
        <pt x="144" y="124" on="0"/>
        <pt x="216" y="74" on="0"/>
      </contour>
    </TTGlyph>
    <TTGlyph name="OE" xMin="15" yMin="-13" xMax="593" yMax="752">
      <contour>
        <pt x="155" y="-13" on="1"/>
        <pt x="111" y="-13" on="0"/>
        <pt x="48" y="68" on="0"/>
        <pt x="15" y="209" on="0"/>
        <pt x="15" y="298" on="1"/>
        <pt x="15" y="315" on="0"/>
        <pt x="17" y="352" on="0"/>
        <pt x="18" y="369" on="1"/>
        <pt x="26" y="481" on="0"/>
        <pt x="78" y="654" on="0"/>
        <pt x="164" y="752" on="0"/>
        <pt x="221" y="752" on="1"/>
        <pt x="263" y="752" on="0"/>
        <pt x="324" y="678" on="0"/>
        <pt x="341" y="616" on="1"/>
        <pt x="354" y="739" on="1"/>
        <pt x="593" y="739" on="1"/>
        <pt x="584" y="649" on="1"/>
        <pt x="389" y="649" on="1"/>
        <pt x="365" y="425" on="1"/>
        <pt x="510" y="425" on="1"/>
        <pt x="500" y="336" on="1"/>
        <pt x="356" y="336" on="1"/>
        <pt x="330" y="91" on="1"/>
        <pt x="526" y="91" on="1"/>
        <pt x="516" y="0" on="1"/>
        <pt x="277" y="0" on="1"/>
        <pt x="286" y="88" on="1"/>
        <pt x="264" y="46" on="0"/>
        <pt x="201" y="-13" on="0"/>
      </contour>
      <contour>
        <pt x="163" y="75" on="1"/>
        <pt x="218" y="75" on="0"/>
        <pt x="295" y="231" on="0"/>
        <pt x="306" y="369" on="1"/>
        <pt x="309" y="408" on="0"/>
        <pt x="309" y="440" on="1"/>
        <pt x="309" y="513" on="0"/>
        <pt x="284" y="612" on="0"/>
        <pt x="241" y="665" on="0"/>
        <pt x="213" y="665" on="1"/>
        <pt x="173" y="665" on="0"/>
        <pt x="113" y="586" on="0"/>
        <pt x="77" y="452" on="0"/>
        <pt x="70" y="369" on="1"/>
        <pt x="67" y="332" on="0"/>
        <pt x="67" y="298" on="1"/>
        <pt x="67" y="226" on="0"/>
        <pt x="92" y="127" on="0"/>
        <pt x="136" y="75" on="0"/>
      </contour>
    </TTGlyph>
    <TTGlyph name="Oacute" xMin="15" yMin="-13" xMax="593" yMax="944">
      <contour>
        <pt x="248" y="-13" on="1"/>
        <pt x="176" y="-13" on="0"/>
        <pt x="71" y="67" on="0"/>
        <pt x="15" y="205" on="0"/>
        <pt x="15" y="293" on="1"/>
        <pt x="15" y="388" on="0"/>
        <pt x="65" y="551" on="0"/>
        <pt x="154" y="674" on="0"/>
        <pt x="281" y="743" on="0"/>
        <pt x="359" y="743" on="1"/>
        <pt x="433" y="743" on="0"/>
        <pt x="537" y="662" on="0"/>
        <pt x="593" y="525" on="0"/>
        <pt x="593" y="438" on="1"/>
        <pt x="593" y="344" on="0"/>
        <pt x="544" y="180" on="0"/>
        <pt x="452" y="57" on="0"/>
        <pt x="325" y="-13" on="0"/>
      </contour>
      <contour>
        <pt x="261" y="73" on="1"/>
        <pt x="318" y="73" on="0"/>
        <pt x="410" y="133" on="0"/>
        <pt x="473" y="236" on="0"/>
        <pt x="507" y="366" on="0"/>
        <pt x="507" y="436" on="1"/>
        <pt x="507" y="507" on="0"/>
        <pt x="465" y="605" on="0"/>
        <pt x="392" y="656" on="0"/>
        <pt x="346" y="656" on="1"/>
        <pt x="289" y="656" on="0"/>
        <pt x="199" y="597" on="0"/>
        <pt x="135" y="496" on="0"/>
        <pt x="102" y="366" on="0"/>
        <pt x="102" y="294" on="1"/>
        <pt x="102" y="223" on="0"/>
        <pt x="144" y="123" on="0"/>
        <pt x="216" y="73" on="0"/>
      </contour>
      <contour>
        <pt x="324" y="813" on="1"/>
        <pt x="327" y="816" on="0"/>
        <pt x="361" y="850" on="0"/>
        <pt x="404" y="893" on="0"/>
        <pt x="441" y="929" on="0"/>
        <pt x="448" y="934" on="1"/>
        <pt x="460" y="944" on="0"/>
        <pt x="472" y="944" on="1"/>
        <pt x="485" y="944" on="0"/>
        <pt x="505" y="921" on="0"/>
        <pt x="505" y="905" on="1"/>
        <pt x="505" y="891" on="0"/>
        <pt x="493" y="873" on="0"/>
        <pt x="487" y="868" on="1"/>
        <pt x="481" y="863" on="0"/>
        <pt x="456" y="847" on="0"/>
        <pt x="426" y="829" on="0"/>
        <pt x="401" y="815" on="0"/>
        <pt x="398" y="813" on="1"/>
      </contour>
    </TTGlyph>
    <TTGlyph name="Obreve" xMin="15" yMin="-13" xMax="593" yMax="950">
      <component glyphName="O" x="0" y="0" flags="0x204"/>
      <component glyphName="uni0306.case" x="599" y="0" flags="0x4"/>
    </TTGlyph>
    <TTGlyph name="Ocircumflex" xMin="15" yMin="-13" xMax="593" yMax="947">
      <contour>
        <pt x="248" y="-13" on="1"/>
        <pt x="176" y="-13" on="0"/>
        <pt x="71" y="67" on="0"/>
        <pt x="15" y="205" on="0"/>
        <pt x="15" y="293" on="1"/>
        <pt x="15" y="388" on="0"/>
        <pt x="65" y="551" on="0"/>
        <pt x="154" y="674" on="0"/>
        <pt x="281" y="743" on="0"/>
        <pt x="359" y="743" on="1"/>
        <pt x="433" y="743" on="0"/>
        <pt x="537" y="662" on="0"/>
        <pt x="593" y="525" on="0"/>
        <pt x="593" y="438" on="1"/>
        <pt x="593" y="344" on="0"/>
        <pt x="544" y="180" on="0"/>
        <pt x="452" y="57" on="0"/>
        <pt x="325" y="-13" on="0"/>
      </contour>
      <contour>
        <pt x="261" y="73" on="1"/>
        <pt x="318" y="73" on="0"/>
        <pt x="410" y="133" on="0"/>
        <pt x="473" y="236" on="0"/>
        <pt x="507" y="366" on="0"/>
        <pt x="507" y="436" on="1"/>
        <pt x="507" y="507" on="0"/>
        <pt x="465" y="605" on="0"/>
        <pt x="392" y="656" on="0"/>
        <pt x="346" y="656" on="1"/>
        <pt x="289" y="656" on="0"/>
        <pt x="199" y="597" on="0"/>
        <pt x="135" y="496" on="0"/>
        <pt x="102" y="366" on="0"/>
        <pt x="102" y="294" on="1"/>
        <pt x="102" y="223" on="0"/>
        <pt x="144" y="123" on="0"/>
        <pt x="216" y="73" on="0"/>
      </contour>
      <contour>
        <pt x="231" y="816" on="1"/>
        <pt x="353" y="927" on="1"/>
        <pt x="374" y="947" on="0"/>
        <pt x="401" y="947" on="1"/>
        <pt x="427" y="947" on="0"/>
        <pt x="442" y="927" on="1"/>
        <pt x="525" y="816" on="1"/>
        <pt x="441" y="816" on="1"/>
        <pt x="392" y="883" on="1"/>
        <pt x="319" y="816" on="1"/>
      </contour>
    </TTGlyph>
    <TTGlyph name="Odieresis" xMin="15" yMin="-13" xMax="593" yMax="926">
      <contour>
        <pt x="248" y="-13" on="1"/>
        <pt x="176" y="-13" on="0"/>
        <pt x="71" y="67" on="0"/>
        <pt x="15" y="205" on="0"/>
        <pt x="15" y="293" on="1"/>
        <pt x="15" y="388" on="0"/>
        <pt x="65" y="551" on="0"/>
        <pt x="154" y="674" on="0"/>
        <pt x="281" y="743" on="0"/>
        <pt x="359" y="743" on="1"/>
        <pt x="433" y="743" on="0"/>
        <pt x="537" y="662" on="0"/>
        <pt x="593" y="525" on="0"/>
        <pt x="593" y="438" on="1"/>
        <pt x="593" y="344" on="0"/>
        <pt x="544" y="180" on="0"/>
        <pt x="452" y="57" on="0"/>
        <pt x="325" y="-13" on="0"/>
      </contour>
      <contour>
        <pt x="261" y="73" on="1"/>
        <pt x="318" y="73" on="0"/>
        <pt x="410" y="133" on="0"/>
        <pt x="473" y="236" on="0"/>
        <pt x="507" y="366" on="0"/>
        <pt x="507" y="436" on="1"/>
        <pt x="507" y="507" on="0"/>
        <pt x="465" y="605" on="0"/>
        <pt x="392" y="656" on="0"/>
        <pt x="346" y="656" on="1"/>
        <pt x="289" y="656" on="0"/>
        <pt x="199" y="597" on="0"/>
        <pt x="135" y="496" on="0"/>
        <pt x="102" y="366" on="0"/>
        <pt x="102" y="294" on="1"/>
        <pt x="102" y="223" on="0"/>
        <pt x="144" y="123" on="0"/>
        <pt x="216" y="73" on="0"/>
      </contour>
      <contour>
        <pt x="292" y="809" on="1"/>
        <pt x="272" y="809" on="0"/>
        <pt x="242" y="844" on="0"/>
        <pt x="242" y="868" on="1"/>
        <pt x="242" y="892" on="0"/>
        <pt x="272" y="926" on="0"/>
        <pt x="292" y="926" on="1"/>
        <pt x="313" y="926" on="0"/>
        <pt x="340" y="892" on="0"/>
        <pt x="340" y="868" on="1"/>
        <pt x="340" y="844" on="0"/>
        <pt x="313" y="809" on="0"/>
      </contour>
      <contour>
        <pt x="484" y="809" on="1"/>
        <pt x="464" y="809" on="0"/>
        <pt x="435" y="844" on="0"/>
        <pt x="435" y="868" on="1"/>
        <pt x="435" y="892" on="0"/>
        <pt x="464" y="926" on="0"/>
        <pt x="484" y="926" on="1"/>
        <pt x="505" y="926" on="0"/>
        <pt x="532" y="892" on="0"/>
        <pt x="532" y="868" on="1"/>
        <pt x="532" y="844" on="0"/>
        <pt x="505" y="809" on="0"/>
      </contour>
    </TTGlyph>
    <TTGlyph name="Ograve" xMin="15" yMin="-13" xMax="593" yMax="944">
      <contour>
        <pt x="248" y="-13" on="1"/>
        <pt x="176" y="-13" on="0"/>
        <pt x="71" y="67" on="0"/>
        <pt x="15" y="205" on="0"/>
        <pt x="15" y="293" on="1"/>
        <pt x="15" y="388" on="0"/>
        <pt x="65" y="551" on="0"/>
        <pt x="154" y="674" on="0"/>
        <pt x="281" y="743" on="0"/>
        <pt x="359" y="743" on="1"/>
        <pt x="433" y="743" on="0"/>
        <pt x="537" y="662" on="0"/>
        <pt x="593" y="525" on="0"/>
        <pt x="593" y="438" on="1"/>
        <pt x="593" y="344" on="0"/>
        <pt x="544" y="180" on="0"/>
        <pt x="452" y="57" on="0"/>
        <pt x="325" y="-13" on="0"/>
      </contour>
      <contour>
        <pt x="261" y="73" on="1"/>
        <pt x="318" y="73" on="0"/>
        <pt x="410" y="133" on="0"/>
        <pt x="473" y="236" on="0"/>
        <pt x="507" y="366" on="0"/>
        <pt x="507" y="436" on="1"/>
        <pt x="507" y="507" on="0"/>
        <pt x="465" y="605" on="0"/>
        <pt x="392" y="656" on="0"/>
        <pt x="346" y="656" on="1"/>
        <pt x="289" y="656" on="0"/>
        <pt x="199" y="597" on="0"/>
        <pt x="135" y="496" on="0"/>
        <pt x="102" y="366" on="0"/>
        <pt x="102" y="294" on="1"/>
        <pt x="102" y="223" on="0"/>
        <pt x="144" y="123" on="0"/>
        <pt x="216" y="73" on="0"/>
      </contour>
      <contour>
        <pt x="372" y="813" on="1"/>
        <pt x="340" y="840" on="0"/>
        <pt x="321" y="860" on="1"/>
        <pt x="299" y="882" on="0"/>
        <pt x="299" y="905" on="1"/>
        <pt x="299" y="915" on="0"/>
        <pt x="314" y="944" on="0"/>
        <pt x="332" y="944" on="1"/>
        <pt x="347" y="944" on="0"/>
        <pt x="360" y="927" on="1"/>
        <pt x="377" y="903" on="0"/>
        <pt x="419" y="841" on="0"/>
        <pt x="438" y="813" on="1"/>
      </contour>
    </TTGlyph>
    <TTGlyph name="Ohorn" xMin="15" yMin="-13" xMax="618" yMax="810">
      <component glyphName="O" x="0" y="0" flags="0x204"/>
      <component glyphName="uni031B" x="654" y="150" flags="0x4"/>
    </TTGlyph>
    <TTGlyph name="Ohungarumlaut" xMin="15" yMin="-13" xMax="593" yMax="962">
      <contour>
        <pt x="248" y="-13" on="1"/>
        <pt x="176" y="-13" on="0"/>
        <pt x="71" y="67" on="0"/>
        <pt x="15" y="205" on="0"/>
        <pt x="15" y="293" on="1"/>
        <pt x="15" y="388" on="0"/>
        <pt x="65" y="551" on="0"/>
        <pt x="154" y="674" on="0"/>
        <pt x="281" y="743" on="0"/>
        <pt x="359" y="743" on="1"/>
        <pt x="433" y="743" on="0"/>
        <pt x="537" y="662" on="0"/>
        <pt x="593" y="525" on="0"/>
        <pt x="593" y="438" on="1"/>
        <pt x="593" y="344" on="0"/>
        <pt x="544" y="180" on="0"/>
        <pt x="452" y="57" on="0"/>
        <pt x="325" y="-13" on="0"/>
      </contour>
      <contour>
        <pt x="261" y="73" on="1"/>
        <pt x="318" y="73" on="0"/>
        <pt x="410" y="133" on="0"/>
        <pt x="473" y="236" on="0"/>
        <pt x="507" y="366" on="0"/>
        <pt x="507" y="436" on="1"/>
        <pt x="507" y="507" on="0"/>
        <pt x="465" y="605" on="0"/>
        <pt x="392" y="656" on="0"/>
        <pt x="346" y="656" on="1"/>
        <pt x="289" y="656" on="0"/>
        <pt x="199" y="597" on="0"/>
        <pt x="135" y="496" on="0"/>
        <pt x="102" y="366" on="0"/>
        <pt x="102" y="294" on="1"/>
        <pt x="102" y="223" on="0"/>
        <pt x="144" y="123" on="0"/>
        <pt x="216" y="73" on="0"/>
      </contour>
      <contour>
        <pt x="275" y="813" on="1"/>
        <pt x="275" y="813" on="0"/>
        <pt x="294" y="837" on="0"/>
        <pt x="322" y="874" on="0"/>
        <pt x="354" y="915" on="0"/>
        <pt x="379" y="946" on="0"/>
        <pt x="384" y="952" on="1"/>
        <pt x="395" y="962" on="0"/>
        <pt x="408" y="962" on="1"/>
        <pt x="424" y="962" on="0"/>
        <pt x="433" y="949" on="1"/>
        <pt x="441" y="938" on="0"/>
        <pt x="441" y="921" on="1"/>
        <pt x="441" y="903" on="0"/>
        <pt x="431" y="890" on="1"/>
        <pt x="424" y="882" on="0"/>
        <pt x="395" y="857" on="0"/>
        <pt x="363" y="831" on="0"/>
        <pt x="341" y="813" on="0"/>
        <pt x="341" y="813" on="1"/>
      </contour>
      <contour>
        <pt x="407" y="813" on="1"/>
        <pt x="407" y="813" on="0"/>
        <pt x="435" y="850" on="0"/>
        <pt x="474" y="900" on="0"/>
        <pt x="510" y="945" on="0"/>
        <pt x="517" y="952" on="1"/>
        <pt x="528" y="962" on="0"/>
        <pt x="541" y="962" on="1"/>
        <pt x="556" y="962" on="0"/>
        <pt x="565" y="949" on="1"/>
        <pt x="573" y="935" on="0"/>
        <pt x="573" y="920" on="1"/>
        <pt x="573" y="902" on="0"/>
        <pt x="563" y="890" on="1"/>
        <pt x="556" y="882" on="0"/>
        <pt x="527" y="857" on="0"/>
        <pt x="495" y="831" on="0"/>
        <pt x="473" y="813" on="0"/>
        <pt x="473" y="813" on="1"/>
      </contour>
    </TTGlyph>
    <TTGlyph name="Omacron" xMin="15" yMin="-13" xMax="593" yMax="915">
      <component glyphName="O" x="0" y="0" flags="0x204"/>
      <component glyphName="uni0304.case" x="600" y="0" flags="0x4"/>
    </TTGlyph>
    <TTGlyph name="Omegatonos" xMin="-34" yMin="0" xMax="590" yMax="749">
      <component glyphName="uni03A9" x="0" y="0" flags="0x204"/>
      <component glyphName="tonos.case" x="-305" y="0" flags="0x4"/>
    </TTGlyph>
    <TTGlyph name="Omicron" xMin="15" yMin="-13" xMax="593" yMax="752">
      <component glyphName="O" x="0" y="0" flags="0x204"/>
    </TTGlyph>
    <TTGlyph name="Omicrontonos" xMin="-34" yMin="-13" xMax="593" yMax="752">
      <component glyphName="tonos.case" x="-305" y="0" flags="0x4"/>
      <component glyphName="O" x="0" y="0" flags="0x204"/>
    </TTGlyph>
    <TTGlyph name="Oslash" xMin="15" yMin="-13" xMax="593" yMax="751">
      <contour>
        <pt x="260" y="-13" on="1"/>
        <pt x="210" y="-13" on="0"/>
        <pt x="132" y="34" on="0"/>
        <pt x="106" y="77" on="1"/>
        <pt x="43" y="-4" on="1"/>
        <pt x="15" y="35" on="1"/>
        <pt x="83" y="123" on="1"/>
        <pt x="54" y="197" on="0"/>
        <pt x="54" y="298" on="1"/>
        <pt x="54" y="315" on="0"/>
        <pt x="56" y="350" on="0"/>
        <pt x="58" y="368" on="1"/>
        <pt x="70" y="480" on="0"/>
        <pt x="148" y="653" on="0"/>
        <pt x="273" y="751" on="0"/>
        <pt x="356" y="751" on="1"/>
        <pt x="403" y="751" on="0"/>
        <pt x="476" y="708" on="0"/>
        <pt x="503" y="670" on="1"/>
        <pt x="566" y="751" on="1"/>
        <pt x="593" y="710" on="1"/>
        <pt x="529" y="626" on="1"/>
        <pt x="562" y="550" on="0"/>
        <pt x="562" y="444" on="1"/>
        <pt x="562" y="427" on="0"/>
        <pt x="561" y="389" on="0"/>
        <pt x="558" y="368" on="1"/>
        <pt x="550" y="298" on="0"/>
        <pt x="506" y="160" on="0"/>
        <pt x="434" y="52" on="0"/>
        <pt x="328" y="-13" on="0"/>
      </contour>
      <contour>
        <pt x="142" y="200" on="1"/>
        <pt x="449" y="599" on="1"/>
        <pt x="410" y="664" on="0"/>
        <pt x="345" y="664" on="1"/>
        <pt x="286" y="664" on="0"/>
        <pt x="199" y="585" on="0"/>
        <pt x="145" y="451" on="0"/>
        <pt x="135" y="368" on="1"/>
        <pt x="130" y="331" on="0"/>
        <pt x="130" y="298" on="1"/>
        <pt x="130" y="245" on="0"/>
      </contour>
      <contour>
        <pt x="270" y="74" on="1"/>
        <pt x="352" y="74" on="0"/>
        <pt x="466" y="230" on="0"/>
        <pt x="483" y="368" on="1"/>
        <pt x="485" y="387" on="0"/>
        <pt x="487" y="421" on="0"/>
        <pt x="487" y="437" on="1"/>
        <pt x="487" y="502" on="0"/>
        <pt x="471" y="551" on="1"/>
        <pt x="162" y="148" on="1"/>
        <pt x="181" y="111" on="0"/>
        <pt x="237" y="74" on="0"/>
      </contour>
    </TTGlyph>
    <TTGlyph name="Oslashacute" xMin="15" yMin="-13" xMax="593" yMax="950">
      <component glyphName="Oslash" x="0" y="0" flags="0x204"/>
      <component glyphName="acutecomb.case" x="611" y="0" flags="0x4"/>
    </TTGlyph>
    <TTGlyph name="Otilde" xMin="15" yMin="-13" xMax="593" yMax="931">
      <contour>
        <pt x="248" y="-13" on="1"/>
        <pt x="176" y="-13" on="0"/>
        <pt x="71" y="67" on="0"/>
        <pt x="15" y="205" on="0"/>
        <pt x="15" y="293" on="1"/>
        <pt x="15" y="388" on="0"/>
        <pt x="65" y="551" on="0"/>
        <pt x="154" y="674" on="0"/>
        <pt x="281" y="743" on="0"/>
        <pt x="359" y="743" on="1"/>
        <pt x="433" y="743" on="0"/>
        <pt x="537" y="662" on="0"/>
        <pt x="593" y="525" on="0"/>
        <pt x="593" y="438" on="1"/>
        <pt x="593" y="344" on="0"/>
        <pt x="544" y="180" on="0"/>
        <pt x="452" y="57" on="0"/>
        <pt x="325" y="-13" on="0"/>
      </contour>
      <contour>
        <pt x="261" y="73" on="1"/>
        <pt x="318" y="73" on="0"/>
        <pt x="410" y="133" on="0"/>
        <pt x="473" y="236" on="0"/>
        <pt x="507" y="366" on="0"/>
        <pt x="507" y="436" on="1"/>
        <pt x="507" y="507" on="0"/>
        <pt x="465" y="605" on="0"/>
        <pt x="392" y="656" on="0"/>
        <pt x="346" y="656" on="1"/>
        <pt x="289" y="656" on="0"/>
        <pt x="199" y="597" on="0"/>
        <pt x="135" y="496" on="0"/>
        <pt x="102" y="366" on="0"/>
        <pt x="102" y="294" on="1"/>
        <pt x="102" y="223" on="0"/>
        <pt x="144" y="123" on="0"/>
        <pt x="216" y="73" on="0"/>
      </contour>
      <contour>
        <pt x="452" y="816" on="1"/>
        <pt x="426" y="816" on="0"/>
        <pt x="392" y="839" on="0"/>
        <pt x="359" y="862" on="0"/>
        <pt x="335" y="862" on="1"/>
        <pt x="295" y="862" on="0"/>
        <pt x="279" y="819" on="1"/>
        <pt x="220" y="819" on="1"/>
        <pt x="238" y="876" on="0"/>
        <pt x="300" y="931" on="0"/>
        <pt x="336" y="931" on="1"/>
        <pt x="366" y="931" on="0"/>
        <pt x="403" y="908" on="0"/>
        <pt x="434" y="885" on="0"/>
        <pt x="452" y="885" on="1"/>
        <pt x="470" y="885" on="0"/>
        <pt x="490" y="906" on="0"/>
        <pt x="498" y="917" on="1"/>
        <pt x="511" y="931" on="0"/>
        <pt x="524" y="931" on="1"/>
        <pt x="535" y="931" on="0"/>
        <pt x="551" y="911" on="0"/>
        <pt x="551" y="897" on="1"/>
        <pt x="551" y="887" on="0"/>
        <pt x="546" y="879" on="1"/>
        <pt x="534" y="857" on="0"/>
        <pt x="490" y="816" on="0"/>
      </contour>
    </TTGlyph>
    <TTGlyph name="P" xMin="15" yMin="0" xMax="593" yMax="739">
      <contour>
        <pt x="15" y="0" on="1"/>
        <pt x="155" y="739" on="1"/>
        <pt x="338" y="739" on="1"/>
        <pt x="380" y="739" on="0"/>
        <pt x="470" y="727" on="0"/>
        <pt x="546" y="688" on="0"/>
        <pt x="593" y="612" on="0"/>
        <pt x="593" y="550" on="1"/>
        <pt x="593" y="453" on="0"/>
        <pt x="515" y="341" on="0"/>
        <pt x="377" y="293" on="0"/>
        <pt x="284" y="293" on="1"/>
        <pt x="165" y="293" on="1"/>
        <pt x="110" y="0" on="1"/>
      </contour>
      <contour>
        <pt x="183" y="383" on="1"/>
        <pt x="307" y="383" on="1"/>
        <pt x="365" y="383" on="0"/>
        <pt x="451" y="412" on="0"/>
        <pt x="497" y="480" on="0"/>
        <pt x="497" y="539" on="1"/>
        <pt x="497" y="606" on="0"/>
        <pt x="415" y="651" on="0"/>
        <pt x="347" y="651" on="1"/>
        <pt x="232" y="651" on="1"/>
      </contour>
    </TTGlyph>
    <TTGlyph name="Phi" xMin="20" yMin="-25" xMax="611" yMax="779">
      <component glyphName="uni0424" x="0" y="0" flags="0x204"/>
    </TTGlyph>
    <TTGlyph name="Pi" xMin="36" yMin="0" xMax="593" yMax="739">
      <component glyphName="uni041F" x="0" y="0" flags="0x204"/>
    </TTGlyph>
    <TTGlyph name="Psi" xMin="42" yMin="0" xMax="635" yMax="739">
      <contour>
        <pt x="209" y="0" on="1"/>
        <pt x="238" y="172" on="1"/>
        <pt x="141" y="172" on="0"/>
        <pt x="42" y="287" on="0"/>
        <pt x="57" y="383" on="1"/>
        <pt x="116" y="739" on="1"/>
        <pt x="205" y="739" on="1"/>
        <pt x="146" y="383" on="1"/>
        <pt x="135" y="321" on="0"/>
        <pt x="191" y="249" on="0"/>
        <pt x="250" y="249" on="1"/>
        <pt x="332" y="739" on="1"/>
        <pt x="420" y="739" on="1"/>
        <pt x="339" y="249" on="1"/>
        <pt x="398" y="249" on="0"/>
        <pt x="477" y="321" on="0"/>
        <pt x="488" y="383" on="1"/>
        <pt x="547" y="739" on="1"/>
        <pt x="635" y="739" on="1"/>
        <pt x="576" y="383" on="1"/>
        <pt x="566" y="319" on="0"/>
        <pt x="496" y="225" on="0"/>
        <pt x="392" y="172" on="0"/>
        <pt x="326" y="172" on="1"/>
        <pt x="298" y="0" on="1"/>
      </contour>
    </TTGlyph>
    <TTGlyph name="Q" xMin="15" yMin="-61" xMax="593" yMax="770">
      <contour>
        <pt x="524" y="-61" on="1"/>
        <pt x="432" y="69" on="1"/>
        <pt x="396" y="38" on="0"/>
        <pt x="305" y="5" on="0"/>
        <pt x="248" y="5" on="1"/>
        <pt x="176" y="5" on="0"/>
        <pt x="71" y="86" on="0"/>
        <pt x="15" y="227" on="0"/>
        <pt x="15" y="315" on="1"/>
        <pt x="15" y="412" on="0"/>
        <pt x="65" y="576" on="0"/>
        <pt x="154" y="700" on="0"/>
        <pt x="281" y="770" on="0"/>
        <pt x="359" y="770" on="1"/>
        <pt x="433" y="770" on="0"/>
        <pt x="537" y="688" on="0"/>
        <pt x="593" y="550" on="0"/>
        <pt x="593" y="462" on="1"/>
        <pt x="593" y="406" on="0"/>
        <pt x="570" y="286" on="0"/>
        <pt x="527" y="178" on="0"/>
        <pt x="497" y="136" on="1"/>
        <pt x="587" y="8" on="1"/>
      </contour>
      <contour>
        <pt x="261" y="93" on="1"/>
        <pt x="330" y="93" on="0"/>
        <pt x="384" y="138" on="1"/>
        <pt x="261" y="314" on="1"/>
        <pt x="325" y="381" on="1"/>
        <pt x="446" y="210" on="1"/>
        <pt x="475" y="262" on="0"/>
        <pt x="507" y="398" on="0"/>
        <pt x="507" y="459" on="1"/>
        <pt x="507" y="532" on="0"/>
        <pt x="465" y="631" on="0"/>
        <pt x="392" y="682" on="0"/>
        <pt x="346" y="682" on="1"/>
        <pt x="289" y="682" on="0"/>
        <pt x="199" y="622" on="0"/>
        <pt x="135" y="520" on="0"/>
        <pt x="102" y="389" on="0"/>
        <pt x="102" y="317" on="1"/>
        <pt x="102" y="245" on="0"/>
        <pt x="144" y="144" on="0"/>
        <pt x="216" y="93" on="0"/>
      </contour>
    </TTGlyph>
    <TTGlyph name="R" xMin="15" yMin="0" xMax="593" yMax="739">
      <contour>
        <pt x="15" y="0" on="1"/>
        <pt x="155" y="739" on="1"/>
        <pt x="356" y="739" on="1"/>
        <pt x="428" y="739" on="0"/>
        <pt x="534" y="705" on="0"/>
        <pt x="593" y="628" on="0"/>
        <pt x="593" y="562" on="1"/>
        <pt x="593" y="451" on="0"/>
        <pt x="472" y="330" on="0"/>
        <pt x="366" y="319" on="1"/>
        <pt x="512" y="0" on="1"/>
        <pt x="408" y="0" on="1"/>
        <pt x="267" y="311" on="1"/>
        <pt x="169" y="311" on="1"/>
        <pt x="110" y="0" on="1"/>
      </contour>
      <contour>
        <pt x="186" y="398" on="1"/>
        <pt x="307" y="398" on="1"/>
        <pt x="363" y="398" on="0"/>
        <pt x="450" y="422" on="0"/>
        <pt x="497" y="487" on="0"/>
        <pt x="497" y="547" on="1"/>
        <pt x="497" y="609" on="0"/>
        <pt x="417" y="651" on="0"/>
        <pt x="349" y="651" on="1"/>
        <pt x="232" y="651" on="1"/>
      </contour>
    </TTGlyph>
    <TTGlyph name="Racute" xMin="15" yMin="0" xMax="593" yMax="944">
      <contour>
        <pt x="15" y="0" on="1"/>
        <pt x="155" y="730" on="1"/>
        <pt x="356" y="730" on="1"/>
        <pt x="428" y="730" on="0"/>
        <pt x="534" y="697" on="0"/>
        <pt x="593" y="621" on="0"/>
        <pt x="593" y="555" on="1"/>
        <pt x="593" y="446" on="0"/>
        <pt x="472" y="326" on="0"/>
        <pt x="366" y="315" on="1"/>
        <pt x="512" y="0" on="1"/>
        <pt x="408" y="0" on="1"/>
        <pt x="267" y="307" on="1"/>
        <pt x="169" y="307" on="1"/>
        <pt x="110" y="0" on="1"/>
      </contour>
      <contour>
        <pt x="186" y="393" on="1"/>
        <pt x="307" y="393" on="1"/>
        <pt x="363" y="393" on="0"/>
        <pt x="450" y="417" on="0"/>
        <pt x="497" y="481" on="0"/>
        <pt x="497" y="541" on="1"/>
        <pt x="497" y="602" on="0"/>
        <pt x="417" y="643" on="0"/>
        <pt x="349" y="643" on="1"/>
        <pt x="232" y="643" on="1"/>
      </contour>
      <contour>
        <pt x="331" y="813" on="1"/>
        <pt x="334" y="816" on="0"/>
        <pt x="371" y="850" on="0"/>
        <pt x="417" y="893" on="0"/>
        <pt x="457" y="929" on="0"/>
        <pt x="465" y="934" on="1"/>
        <pt x="478" y="944" on="0"/>
        <pt x="490" y="944" on="1"/>
        <pt x="505" y="944" on="0"/>
        <pt x="526" y="921" on="0"/>
        <pt x="526" y="905" on="1"/>
        <pt x="526" y="891" on="0"/>
        <pt x="513" y="873" on="0"/>
        <pt x="507" y="868" on="1"/>
        <pt x="500" y="863" on="0"/>
        <pt x="473" y="847" on="0"/>
        <pt x="439" y="829" on="0"/>
        <pt x="414" y="815" on="0"/>
        <pt x="410" y="813" on="1"/>
      </contour>
    </TTGlyph>
    <TTGlyph name="Rcaron" xMin="15" yMin="0" xMax="593" yMax="933">
      <contour>
        <pt x="15" y="0" on="1"/>
        <pt x="155" y="730" on="1"/>
        <pt x="356" y="730" on="1"/>
        <pt x="428" y="730" on="0"/>
        <pt x="534" y="697" on="0"/>
        <pt x="593" y="621" on="0"/>
        <pt x="593" y="555" on="1"/>
        <pt x="593" y="446" on="0"/>
        <pt x="472" y="326" on="0"/>
        <pt x="366" y="315" on="1"/>
        <pt x="512" y="0" on="1"/>
        <pt x="408" y="0" on="1"/>
        <pt x="267" y="307" on="1"/>
        <pt x="169" y="307" on="1"/>
        <pt x="110" y="0" on="1"/>
      </contour>
      <contour>
        <pt x="186" y="393" on="1"/>
        <pt x="307" y="393" on="1"/>
        <pt x="363" y="393" on="0"/>
        <pt x="450" y="417" on="0"/>
        <pt x="497" y="481" on="0"/>
        <pt x="497" y="541" on="1"/>
        <pt x="497" y="602" on="0"/>
        <pt x="417" y="643" on="0"/>
        <pt x="349" y="643" on="1"/>
        <pt x="232" y="643" on="1"/>
      </contour>
      <contour>
        <pt x="394" y="802" on="1"/>
        <pt x="364" y="802" on="0"/>
        <pt x="349" y="823" on="1"/>
        <pt x="260" y="933" on="1"/>
        <pt x="349" y="933" on="1"/>
        <pt x="402" y="867" on="1"/>
        <pt x="483" y="933" on="1"/>
        <pt x="577" y="933" on="1"/>
        <pt x="447" y="823" on="1"/>
        <pt x="422" y="802" on="0"/>
      </contour>
    </TTGlyph>
    <TTGlyph name="Rho" xMin="15" yMin="0" xMax="593" yMax="739">
      <component glyphName="P" x="0" y="0" flags="0x204"/>
    </TTGlyph>
    <TTGlyph name="S" xMin="28" yMin="-13" xMax="582" yMax="752">
      <contour>
        <pt x="291" y="-13" on="1"/>
        <pt x="235" y="-13" on="0"/>
        <pt x="129" y="24" on="0"/>
        <pt x="48" y="103" on="0"/>
        <pt x="28" y="163" on="1"/>
        <pt x="124" y="190" on="1"/>
        <pt x="144" y="131" on="0"/>
        <pt x="244" y="74" on="0"/>
        <pt x="299" y="74" on="1"/>
        <pt x="340" y="74" on="0"/>
        <pt x="414" y="104" on="0"/>
        <pt x="460" y="163" on="0"/>
        <pt x="460" y="203" on="1"/>
        <pt x="460" y="243" on="0"/>
        <pt x="419" y="290" on="0"/>
        <pt x="352" y="322" on="0"/>
        <pt x="272" y="346" on="0"/>
        <pt x="190" y="374" on="0"/>
        <pt x="123" y="419" on="0"/>
        <pt x="82" y="491" on="0"/>
        <pt x="82" y="547" on="1"/>
        <pt x="82" y="616" on="0"/>
        <pt x="154" y="706" on="0"/>
        <pt x="268" y="752" on="0"/>
        <pt x="332" y="752" on="1"/>
        <pt x="383" y="752" on="0"/>
        <pt x="483" y="722" on="0"/>
        <pt x="562" y="660" on="0"/>
        <pt x="582" y="614" on="1"/>
        <pt x="485" y="585" on="1"/>
        <pt x="466" y="623" on="0"/>
        <pt x="376" y="665" on="0"/>
        <pt x="327" y="665" on="1"/>
        <pt x="289" y="665" on="0"/>
        <pt x="223" y="641" on="0"/>
        <pt x="182" y="589" on="0"/>
        <pt x="182" y="551" on="1"/>
        <pt x="182" y="514" on="0"/>
        <pt x="223" y="468" on="0"/>
        <pt x="292" y="438" on="0"/>
        <pt x="373" y="414" on="0"/>
        <pt x="454" y="384" on="0"/>
        <pt x="523" y="339" on="0"/>
        <pt x="564" y="271" on="0"/>
        <pt x="564" y="218" on="1"/>
        <pt x="564" y="163" on="0"/>
        <pt x="517" y="76" on="0"/>
        <pt x="439" y="17" on="0"/>
        <pt x="342" y="-13" on="0"/>
      </contour>
    </TTGlyph>
    <TTGlyph name="Sacute" xMin="28" yMin="-13" xMax="582" yMax="944">
      <contour>
        <pt x="291" y="-13" on="1"/>
        <pt x="235" y="-13" on="0"/>
        <pt x="129" y="24" on="0"/>
        <pt x="48" y="102" on="0"/>
        <pt x="28" y="161" on="1"/>
        <pt x="124" y="188" on="1"/>
        <pt x="144" y="129" on="0"/>
        <pt x="244" y="73" on="0"/>
        <pt x="299" y="73" on="1"/>
        <pt x="340" y="73" on="0"/>
        <pt x="414" y="103" on="0"/>
        <pt x="460" y="161" on="0"/>
        <pt x="460" y="201" on="1"/>
        <pt x="460" y="240" on="0"/>
        <pt x="419" y="287" on="0"/>
        <pt x="352" y="318" on="0"/>
        <pt x="272" y="342" on="0"/>
        <pt x="190" y="370" on="0"/>
        <pt x="123" y="414" on="0"/>
        <pt x="82" y="485" on="0"/>
        <pt x="82" y="541" on="1"/>
        <pt x="82" y="609" on="0"/>
        <pt x="154" y="698" on="0"/>
        <pt x="268" y="743" on="0"/>
        <pt x="332" y="743" on="1"/>
        <pt x="383" y="743" on="0"/>
        <pt x="483" y="713" on="0"/>
        <pt x="562" y="652" on="0"/>
        <pt x="582" y="607" on="1"/>
        <pt x="485" y="578" on="1"/>
        <pt x="466" y="616" on="0"/>
        <pt x="376" y="657" on="0"/>
        <pt x="327" y="657" on="1"/>
        <pt x="289" y="657" on="0"/>
        <pt x="223" y="633" on="0"/>
        <pt x="182" y="582" on="0"/>
        <pt x="182" y="544" on="1"/>
        <pt x="182" y="508" on="0"/>
        <pt x="223" y="462" on="0"/>
        <pt x="292" y="433" on="0"/>
        <pt x="373" y="409" on="0"/>
        <pt x="454" y="379" on="0"/>
        <pt x="523" y="335" on="0"/>
        <pt x="564" y="268" on="0"/>
        <pt x="564" y="215" on="1"/>
        <pt x="564" y="161" on="0"/>
        <pt x="517" y="75" on="0"/>
        <pt x="439" y="17" on="0"/>
        <pt x="342" y="-13" on="0"/>
      </contour>
      <contour>
        <pt x="316" y="813" on="1"/>
        <pt x="320" y="816" on="0"/>
        <pt x="359" y="850" on="0"/>
        <pt x="409" y="893" on="0"/>
        <pt x="452" y="929" on="0"/>
        <pt x="459" y="934" on="1"/>
        <pt x="474" y="944" on="0"/>
        <pt x="487" y="944" on="1"/>
        <pt x="503" y="944" on="0"/>
        <pt x="525" y="921" on="0"/>
        <pt x="525" y="905" on="1"/>
        <pt x="525" y="891" on="0"/>
        <pt x="512" y="873" on="0"/>
        <pt x="505" y="868" on="1"/>
        <pt x="498" y="863" on="0"/>
        <pt x="469" y="847" on="0"/>
        <pt x="433" y="829" on="0"/>
        <pt x="406" y="815" on="0"/>
        <pt x="401" y="813" on="1"/>
      </contour>
    </TTGlyph>
    <TTGlyph name="Scaron" xMin="28" yMin="-13" xMax="582" yMax="933">
      <contour>
        <pt x="291" y="-13" on="1"/>
        <pt x="235" y="-13" on="0"/>
        <pt x="129" y="24" on="0"/>
        <pt x="48" y="102" on="0"/>
        <pt x="28" y="161" on="1"/>
        <pt x="124" y="188" on="1"/>
        <pt x="144" y="129" on="0"/>
        <pt x="244" y="73" on="0"/>
        <pt x="299" y="73" on="1"/>
        <pt x="340" y="73" on="0"/>
        <pt x="414" y="103" on="0"/>
        <pt x="460" y="161" on="0"/>
        <pt x="460" y="201" on="1"/>
        <pt x="460" y="240" on="0"/>
        <pt x="419" y="287" on="0"/>
        <pt x="352" y="318" on="0"/>
        <pt x="272" y="342" on="0"/>
        <pt x="190" y="370" on="0"/>
        <pt x="123" y="414" on="0"/>
        <pt x="82" y="485" on="0"/>
        <pt x="82" y="541" on="1"/>
        <pt x="82" y="609" on="0"/>
        <pt x="154" y="698" on="0"/>
        <pt x="268" y="743" on="0"/>
        <pt x="332" y="743" on="1"/>
        <pt x="383" y="743" on="0"/>
        <pt x="483" y="713" on="0"/>
        <pt x="562" y="652" on="0"/>
        <pt x="582" y="607" on="1"/>
        <pt x="485" y="578" on="1"/>
        <pt x="466" y="616" on="0"/>
        <pt x="376" y="657" on="0"/>
        <pt x="327" y="657" on="1"/>
        <pt x="289" y="657" on="0"/>
        <pt x="223" y="633" on="0"/>
        <pt x="182" y="582" on="0"/>
        <pt x="182" y="544" on="1"/>
        <pt x="182" y="508" on="0"/>
        <pt x="223" y="462" on="0"/>
        <pt x="292" y="433" on="0"/>
        <pt x="373" y="409" on="0"/>
        <pt x="454" y="379" on="0"/>
        <pt x="523" y="335" on="0"/>
        <pt x="564" y="268" on="0"/>
        <pt x="564" y="215" on="1"/>
        <pt x="564" y="161" on="0"/>
        <pt x="517" y="75" on="0"/>
        <pt x="439" y="17" on="0"/>
        <pt x="342" y="-13" on="0"/>
      </contour>
      <contour>
        <pt x="384" y="802" on="1"/>
        <pt x="353" y="802" on="0"/>
        <pt x="336" y="823" on="1"/>
        <pt x="240" y="933" on="1"/>
        <pt x="336" y="933" on="1"/>
        <pt x="393" y="867" on="1"/>
        <pt x="478" y="933" on="1"/>
        <pt x="581" y="933" on="1"/>
        <pt x="440" y="823" on="1"/>
        <pt x="414" y="802" on="0"/>
      </contour>
    </TTGlyph>
    <TTGlyph name="Scedilla" xMin="28" yMin="-200" xMax="582" yMax="752">
      <contour>
        <pt x="291" y="-13" on="1"/>
        <pt x="235" y="-13" on="0"/>
        <pt x="129" y="24" on="0"/>
        <pt x="48" y="103" on="0"/>
        <pt x="28" y="163" on="1"/>
        <pt x="124" y="190" on="1"/>
        <pt x="144" y="131" on="0"/>
        <pt x="244" y="74" on="0"/>
        <pt x="299" y="74" on="1"/>
        <pt x="340" y="74" on="0"/>
        <pt x="414" y="104" on="0"/>
        <pt x="460" y="163" on="0"/>
        <pt x="460" y="203" on="1"/>
        <pt x="460" y="243" on="0"/>
        <pt x="419" y="290" on="0"/>
        <pt x="352" y="322" on="0"/>
        <pt x="272" y="346" on="0"/>
        <pt x="190" y="374" on="0"/>
        <pt x="123" y="419" on="0"/>
        <pt x="82" y="491" on="0"/>
        <pt x="82" y="547" on="1"/>
        <pt x="82" y="616" on="0"/>
        <pt x="154" y="706" on="0"/>
        <pt x="268" y="752" on="0"/>
        <pt x="332" y="752" on="1"/>
        <pt x="383" y="752" on="0"/>
        <pt x="483" y="722" on="0"/>
        <pt x="562" y="660" on="0"/>
        <pt x="582" y="614" on="1"/>
        <pt x="485" y="585" on="1"/>
        <pt x="466" y="623" on="0"/>
        <pt x="376" y="665" on="0"/>
        <pt x="327" y="665" on="1"/>
        <pt x="289" y="665" on="0"/>
        <pt x="223" y="641" on="0"/>
        <pt x="182" y="589" on="0"/>
        <pt x="182" y="551" on="1"/>
        <pt x="182" y="514" on="0"/>
        <pt x="223" y="468" on="0"/>
        <pt x="292" y="438" on="0"/>
        <pt x="373" y="414" on="0"/>
        <pt x="454" y="384" on="0"/>
        <pt x="523" y="339" on="0"/>
        <pt x="564" y="271" on="0"/>
        <pt x="564" y="218" on="1"/>
        <pt x="564" y="163" on="0"/>
        <pt x="517" y="76" on="0"/>
        <pt x="439" y="17" on="0"/>
        <pt x="342" y="-13" on="0"/>
      </contour>
      <contour>
        <pt x="239" y="-200" on="1"/>
        <pt x="200" y="-200" on="0"/>
        <pt x="147" y="-180" on="1"/>
        <pt x="171" y="-140" on="1"/>
        <pt x="189" y="-147" on="0"/>
        <pt x="219" y="-155" on="0"/>
        <pt x="231" y="-155" on="1"/>
        <pt x="260" y="-155" on="0"/>
        <pt x="292" y="-129" on="0"/>
        <pt x="292" y="-115" on="1"/>
        <pt x="292" y="-105" on="0"/>
        <pt x="275" y="-91" on="0"/>
        <pt x="255" y="-91" on="1"/>
        <pt x="239" y="-91" on="0"/>
        <pt x="224" y="-96" on="0"/>
        <pt x="218" y="-96" on="1"/>
        <pt x="199" y="-96" on="0"/>
        <pt x="199" y="-77" on="1"/>
        <pt x="199" y="-71" on="0"/>
        <pt x="204" y="-63" on="1"/>
        <pt x="276" y="27" on="1"/>
        <pt x="307" y="4" on="1"/>
        <pt x="264" y="-50" on="1"/>
        <pt x="272" y="-49" on="0"/>
        <pt x="283" y="-48" on="0"/>
        <pt x="289" y="-48" on="1"/>
        <pt x="324" y="-48" on="0"/>
        <pt x="358" y="-83" on="0"/>
        <pt x="358" y="-106" on="1"/>
        <pt x="358" y="-139" on="0"/>
        <pt x="298" y="-200" on="0"/>
      </contour>
    </TTGlyph>
    <TTGlyph name="Scircumflex" xMin="28" yMin="-13" xMax="582" yMax="950">
      <component glyphName="S" x="0" y="0" flags="0x204"/>
      <component glyphName="uni0302.case" x="599" y="0" flags="0x4"/>
    </TTGlyph>
    <TTGlyph name="Sigma" xMin="16" yMin="0" xMax="640" yMax="739">
      <contour>
        <pt x="16" y="0" on="1"/>
        <pt x="30" y="81" on="1"/>
        <pt x="322" y="385" on="1"/>
        <pt x="125" y="658" on="1"/>
        <pt x="139" y="739" on="1"/>
        <pt x="640" y="739" on="1"/>
        <pt x="626" y="658" on="1"/>
        <pt x="234" y="658" on="1"/>
        <pt x="438" y="380" on="1"/>
        <pt x="146" y="81" on="1"/>
        <pt x="531" y="81" on="1"/>
        <pt x="517" y="0" on="1"/>
      </contour>
    </TTGlyph>
    <TTGlyph name="T" xMin="15" yMin="0" xMax="593" yMax="739">
      <contour>
        <pt x="115" y="0" on="1"/>
        <pt x="244" y="649" on="1"/>
        <pt x="15" y="649" on="1"/>
        <pt x="33" y="739" on="1"/>
        <pt x="593" y="739" on="1"/>
        <pt x="575" y="649" on="1"/>
        <pt x="344" y="649" on="1"/>
        <pt x="217" y="0" on="1"/>
      </contour>
    </TTGlyph>
    <TTGlyph name="Tau" xMin="15" yMin="0" xMax="593" yMax="739">
      <component glyphName="T" x="0" y="0" flags="0x204"/>
    </TTGlyph>
    <TTGlyph name="Tbar" xMin="103" yMin="0" xMax="634" yMax="739">
      <contour>
        <pt x="206" y="0" on="1"/>
        <pt x="256" y="299" on="1"/>
        <pt x="103" y="299" on="1"/>
        <pt x="115" y="374" on="1"/>
        <pt x="268" y="374" on="1"/>
        <pt x="315" y="656" on="1"/>
        <pt x="104" y="656" on="1"/>
        <pt x="117" y="739" on="1"/>
        <pt x="634" y="739" on="1"/>
        <pt x="621" y="656" on="1"/>
        <pt x="410" y="656" on="1"/>
        <pt x="363" y="374" on="1"/>
        <pt x="516" y="374" on="1"/>
        <pt x="504" y="299" on="1"/>
        <pt x="351" y="299" on="1"/>
        <pt x="301" y="0" on="1"/>
      </contour>
    </TTGlyph>
    <TTGlyph name="Tcaron" xMin="15" yMin="0" xMax="593" yMax="933">
      <contour>
        <pt x="115" y="0" on="1"/>
        <pt x="244" y="641" on="1"/>
        <pt x="15" y="641" on="1"/>
        <pt x="33" y="730" on="1"/>
        <pt x="593" y="730" on="1"/>
        <pt x="575" y="641" on="1"/>
        <pt x="344" y="641" on="1"/>
        <pt x="217" y="0" on="1"/>
      </contour>
      <contour>
        <pt x="325" y="802" on="1"/>
        <pt x="295" y="802" on="0"/>
        <pt x="278" y="823" on="1"/>
        <pt x="183" y="933" on="1"/>
        <pt x="278" y="933" on="1"/>
        <pt x="334" y="867" on="1"/>
        <pt x="418" y="933" on="1"/>
        <pt x="519" y="933" on="1"/>
        <pt x="381" y="823" on="1"/>
        <pt x="355" y="802" on="0"/>
      </contour>
    </TTGlyph>
    <TTGlyph name="Theta" xMin="47" yMin="-10" xMax="583" yMax="749">
      <contour>
        <pt x="251" y="-10" on="1"/>
        <pt x="148" y="-10" on="0"/>
        <pt x="47" y="103" on="0"/>
        <pt x="64" y="202" on="1"/>
        <pt x="119" y="536" on="1"/>
        <pt x="135" y="636" on="0"/>
        <pt x="274" y="749" on="0"/>
        <pt x="377" y="749" on="1"/>
        <pt x="480" y="749" on="0"/>
        <pt x="583" y="637" on="0"/>
        <pt x="566" y="537" on="1"/>
        <pt x="511" y="202" on="1"/>
        <pt x="494" y="103" on="0"/>
        <pt x="355" y="-10" on="0"/>
      </contour>
      <contour>
        <pt x="265" y="72" on="1"/>
        <pt x="327" y="72" on="0"/>
        <pt x="406" y="140" on="0"/>
        <pt x="416" y="202" on="1"/>
        <pt x="471" y="536" on="1"/>
        <pt x="481" y="599" on="0"/>
        <pt x="426" y="667" on="0"/>
        <pt x="363" y="667" on="1"/>
        <pt x="302" y="667" on="0"/>
        <pt x="224" y="599" on="0"/>
        <pt x="213" y="536" on="1"/>
        <pt x="159" y="202" on="1"/>
        <pt x="148" y="140" on="0"/>
        <pt x="204" y="72" on="0"/>
      </contour>
      <contour>
        <pt x="212" y="329" on="1"/>
        <pt x="226" y="412" on="1"/>
        <pt x="416" y="412" on="1"/>
        <pt x="402" y="329" on="1"/>
      </contour>
    </TTGlyph>
    <TTGlyph name="Thorn" xMin="15" yMin="-9" xMax="593" yMax="729">
      <contour>
        <pt x="15" y="-9" on="1"/>
        <pt x="165" y="729" on="1"/>
        <pt x="256" y="729" on="1"/>
        <pt x="224" y="574" on="1"/>
        <pt x="357" y="574" on="1"/>
        <pt x="428" y="574" on="0"/>
        <pt x="533" y="545" on="0"/>
        <pt x="593" y="477" on="0"/>
        <pt x="593" y="418" on="1"/>
        <pt x="593" y="404" on="0"/>
        <pt x="590" y="370" on="0"/>
        <pt x="585" y="352" on="1"/>
        <pt x="561" y="248" on="0"/>
        <pt x="410" y="171" on="0"/>
        <pt x="277" y="171" on="1"/>
        <pt x="143" y="171" on="1"/>
        <pt x="106" y="-9" on="1"/>
      </contour>
      <contour>
        <pt x="161" y="261" on="1"/>
        <pt x="304" y="261" on="1"/>
        <pt x="394" y="261" on="0"/>
        <pt x="471" y="318" on="0"/>
        <pt x="479" y="355" on="1"/>
        <pt x="486" y="384" on="0"/>
        <pt x="486" y="405" on="1"/>
        <pt x="486" y="446" on="0"/>
        <pt x="424" y="485" on="0"/>
        <pt x="347" y="485" on="1"/>
        <pt x="206" y="485" on="1"/>
      </contour>
    </TTGlyph>
    <TTGlyph name="U" xMin="15" yMin="-13" xMax="593" yMax="739">
      <contour>
        <pt x="220" y="-13" on="1"/>
        <pt x="117" y="-13" on="0"/>
        <pt x="15" y="86" on="0"/>
        <pt x="15" y="193" on="1"/>
        <pt x="15" y="219" on="0"/>
        <pt x="21" y="277" on="0"/>
        <pt x="27" y="310" on="1"/>
        <pt x="103" y="739" on="1"/>
        <pt x="189" y="739" on="1"/>
        <pt x="113" y="301" on="1"/>
        <pt x="109" y="273" on="0"/>
        <pt x="104" y="226" on="0"/>
        <pt x="104" y="205" on="1"/>
        <pt x="104" y="139" on="0"/>
        <pt x="161" y="76" on="0"/>
        <pt x="224" y="76" on="1"/>
        <pt x="280" y="76" on="0"/>
        <pt x="360" y="116" on="0"/>
        <pt x="413" y="215" on="0"/>
        <pt x="429" y="301" on="1"/>
        <pt x="506" y="739" on="1"/>
        <pt x="593" y="739" on="1"/>
        <pt x="517" y="310" on="1"/>
        <pt x="498" y="199" on="0"/>
        <pt x="433" y="69" on="0"/>
        <pt x="352" y="5" on="0"/>
        <pt x="262" y="-13" on="0"/>
      </contour>
    </TTGlyph>
    <TTGlyph name="Uacute" xMin="15" yMin="-13" xMax="593" yMax="944">
      <contour>
        <pt x="220" y="-13" on="1"/>
        <pt x="117" y="-13" on="0"/>
        <pt x="15" y="85" on="0"/>
        <pt x="15" y="191" on="1"/>
        <pt x="15" y="216" on="0"/>
        <pt x="21" y="274" on="0"/>
        <pt x="27" y="306" on="1"/>
        <pt x="103" y="730" on="1"/>
        <pt x="189" y="730" on="1"/>
        <pt x="113" y="297" on="1"/>
        <pt x="109" y="270" on="0"/>
        <pt x="104" y="223" on="0"/>
        <pt x="104" y="203" on="1"/>
        <pt x="104" y="137" on="0"/>
        <pt x="161" y="75" on="0"/>
        <pt x="224" y="75" on="1"/>
        <pt x="280" y="75" on="0"/>
        <pt x="360" y="115" on="0"/>
        <pt x="413" y="212" on="0"/>
        <pt x="429" y="297" on="1"/>
        <pt x="506" y="730" on="1"/>
        <pt x="593" y="730" on="1"/>
        <pt x="517" y="306" on="1"/>
        <pt x="498" y="197" on="0"/>
        <pt x="433" y="68" on="0"/>
        <pt x="352" y="5" on="0"/>
        <pt x="262" y="-13" on="0"/>
      </contour>
      <contour>
        <pt x="292" y="813" on="1"/>
        <pt x="295" y="816" on="0"/>
        <pt x="328" y="850" on="0"/>
        <pt x="372" y="893" on="0"/>
        <pt x="409" y="929" on="0"/>
        <pt x="415" y="934" on="1"/>
        <pt x="428" y="944" on="0"/>
        <pt x="439" y="944" on="1"/>
        <pt x="452" y="944" on="0"/>
        <pt x="472" y="921" on="0"/>
        <pt x="472" y="905" on="1"/>
        <pt x="472" y="891" on="0"/>
        <pt x="460" y="873" on="0"/>
        <pt x="454" y="868" on="1"/>
        <pt x="449" y="863" on="0"/>
        <pt x="423" y="847" on="0"/>
        <pt x="393" y="829" on="0"/>
        <pt x="369" y="815" on="0"/>
        <pt x="365" y="813" on="1"/>
      </contour>
    </TTGlyph>
    <TTGlyph name="Ubreve" xMin="15" yMin="-13" xMax="593" yMax="950">
      <component glyphName="U" x="0" y="0" flags="0x204"/>
      <component glyphName="uni0306.case" x="599" y="0" flags="0x4"/>
    </TTGlyph>
    <TTGlyph name="Ucircumflex" xMin="15" yMin="-13" xMax="593" yMax="947">
      <contour>
        <pt x="220" y="-13" on="1"/>
        <pt x="117" y="-13" on="0"/>
        <pt x="15" y="85" on="0"/>
        <pt x="15" y="191" on="1"/>
        <pt x="15" y="216" on="0"/>
        <pt x="21" y="274" on="0"/>
        <pt x="27" y="306" on="1"/>
        <pt x="103" y="730" on="1"/>
        <pt x="189" y="730" on="1"/>
        <pt x="113" y="297" on="1"/>
        <pt x="109" y="270" on="0"/>
        <pt x="104" y="223" on="0"/>
        <pt x="104" y="203" on="1"/>
        <pt x="104" y="137" on="0"/>
        <pt x="161" y="75" on="0"/>
        <pt x="224" y="75" on="1"/>
        <pt x="280" y="75" on="0"/>
        <pt x="360" y="115" on="0"/>
        <pt x="413" y="212" on="0"/>
        <pt x="429" y="297" on="1"/>
        <pt x="506" y="730" on="1"/>
        <pt x="593" y="730" on="1"/>
        <pt x="517" y="306" on="1"/>
        <pt x="498" y="197" on="0"/>
        <pt x="433" y="68" on="0"/>
        <pt x="352" y="5" on="0"/>
        <pt x="262" y="-13" on="0"/>
      </contour>
      <contour>
        <pt x="205" y="816" on="1"/>
        <pt x="326" y="927" on="1"/>
        <pt x="347" y="947" on="0"/>
        <pt x="375" y="947" on="1"/>
        <pt x="400" y="947" on="0"/>
        <pt x="416" y="927" on="1"/>
        <pt x="498" y="816" on="1"/>
        <pt x="415" y="816" on="1"/>
        <pt x="365" y="883" on="1"/>
        <pt x="293" y="816" on="1"/>
      </contour>
    </TTGlyph>
    <TTGlyph name="Udieresis" xMin="15" yMin="-13" xMax="593" yMax="926">
      <contour>
        <pt x="220" y="-13" on="1"/>
        <pt x="117" y="-13" on="0"/>
        <pt x="15" y="85" on="0"/>
        <pt x="15" y="191" on="1"/>
        <pt x="15" y="216" on="0"/>
        <pt x="21" y="274" on="0"/>
        <pt x="27" y="306" on="1"/>
        <pt x="103" y="730" on="1"/>
        <pt x="189" y="730" on="1"/>
        <pt x="113" y="297" on="1"/>
        <pt x="109" y="270" on="0"/>
        <pt x="104" y="223" on="0"/>
        <pt x="104" y="203" on="1"/>
        <pt x="104" y="137" on="0"/>
        <pt x="161" y="75" on="0"/>
        <pt x="224" y="75" on="1"/>
        <pt x="280" y="75" on="0"/>
        <pt x="360" y="115" on="0"/>
        <pt x="413" y="212" on="0"/>
        <pt x="429" y="297" on="1"/>
        <pt x="506" y="730" on="1"/>
        <pt x="593" y="730" on="1"/>
        <pt x="517" y="306" on="1"/>
        <pt x="498" y="197" on="0"/>
        <pt x="433" y="68" on="0"/>
        <pt x="352" y="5" on="0"/>
        <pt x="262" y="-13" on="0"/>
      </contour>
      <contour>
        <pt x="265" y="809" on="1"/>
        <pt x="245" y="809" on="0"/>
        <pt x="216" y="844" on="0"/>
        <pt x="216" y="868" on="1"/>
        <pt x="216" y="892" on="0"/>
        <pt x="245" y="926" on="0"/>
        <pt x="265" y="926" on="1"/>
        <pt x="286" y="926" on="0"/>
        <pt x="314" y="892" on="0"/>
        <pt x="314" y="868" on="1"/>
        <pt x="314" y="844" on="0"/>
        <pt x="286" y="809" on="0"/>
      </contour>
      <contour>
        <pt x="457" y="809" on="1"/>
        <pt x="437" y="809" on="0"/>
        <pt x="409" y="844" on="0"/>
        <pt x="409" y="868" on="1"/>
        <pt x="409" y="892" on="0"/>
        <pt x="437" y="926" on="0"/>
        <pt x="457" y="926" on="1"/>
        <pt x="478" y="926" on="0"/>
        <pt x="506" y="892" on="0"/>
        <pt x="506" y="868" on="1"/>
        <pt x="506" y="844" on="0"/>
        <pt x="478" y="809" on="0"/>
      </contour>
    </TTGlyph>
    <TTGlyph name="Ugrave" xMin="15" yMin="-13" xMax="593" yMax="944">
      <contour>
        <pt x="220" y="-13" on="1"/>
        <pt x="117" y="-13" on="0"/>
        <pt x="15" y="85" on="0"/>
        <pt x="15" y="191" on="1"/>
        <pt x="15" y="216" on="0"/>
        <pt x="21" y="274" on="0"/>
        <pt x="27" y="306" on="1"/>
        <pt x="103" y="730" on="1"/>
        <pt x="189" y="730" on="1"/>
        <pt x="113" y="297" on="1"/>
        <pt x="109" y="270" on="0"/>
        <pt x="104" y="223" on="0"/>
        <pt x="104" y="203" on="1"/>
        <pt x="104" y="137" on="0"/>
        <pt x="161" y="75" on="0"/>
        <pt x="224" y="75" on="1"/>
        <pt x="280" y="75" on="0"/>
        <pt x="360" y="115" on="0"/>
        <pt x="413" y="212" on="0"/>
        <pt x="429" y="297" on="1"/>
        <pt x="506" y="730" on="1"/>
        <pt x="593" y="730" on="1"/>
        <pt x="517" y="306" on="1"/>
        <pt x="498" y="197" on="0"/>
        <pt x="433" y="68" on="0"/>
        <pt x="352" y="5" on="0"/>
        <pt x="262" y="-13" on="0"/>
      </contour>
      <contour>
        <pt x="345" y="813" on="1"/>
        <pt x="314" y="840" on="0"/>
        <pt x="295" y="860" on="1"/>
        <pt x="273" y="882" on="0"/>
        <pt x="273" y="905" on="1"/>
        <pt x="273" y="915" on="0"/>
        <pt x="287" y="944" on="0"/>
        <pt x="305" y="944" on="1"/>
        <pt x="321" y="944" on="0"/>
        <pt x="334" y="927" on="1"/>
        <pt x="351" y="903" on="0"/>
        <pt x="393" y="841" on="0"/>
        <pt x="412" y="813" on="1"/>
      </contour>
    </TTGlyph>
    <TTGlyph name="Uhorn" xMin="15" yMin="-13" xMax="618" yMax="840">
      <component glyphName="U" x="0" y="0" flags="0x204"/>
      <component glyphName="uni031B" x="654" y="180" flags="0x4"/>
    </TTGlyph>
    <TTGlyph name="Uhungarumlaut" xMin="15" yMin="-13" xMax="593" yMax="962">
      <contour>
        <pt x="220" y="-13" on="1"/>
        <pt x="117" y="-13" on="0"/>
        <pt x="15" y="85" on="0"/>
        <pt x="15" y="191" on="1"/>
        <pt x="15" y="216" on="0"/>
        <pt x="21" y="274" on="0"/>
        <pt x="27" y="306" on="1"/>
        <pt x="103" y="730" on="1"/>
        <pt x="189" y="730" on="1"/>
        <pt x="113" y="297" on="1"/>
        <pt x="109" y="270" on="0"/>
        <pt x="104" y="223" on="0"/>
        <pt x="104" y="203" on="1"/>
        <pt x="104" y="137" on="0"/>
        <pt x="161" y="75" on="0"/>
        <pt x="224" y="75" on="1"/>
        <pt x="280" y="75" on="0"/>
        <pt x="360" y="115" on="0"/>
        <pt x="413" y="212" on="0"/>
        <pt x="429" y="297" on="1"/>
        <pt x="506" y="730" on="1"/>
        <pt x="593" y="730" on="1"/>
        <pt x="517" y="306" on="1"/>
        <pt x="498" y="197" on="0"/>
        <pt x="433" y="68" on="0"/>
        <pt x="352" y="5" on="0"/>
        <pt x="262" y="-13" on="0"/>
      </contour>
      <contour>
        <pt x="248" y="813" on="1"/>
        <pt x="248" y="813" on="0"/>
        <pt x="267" y="837" on="0"/>
        <pt x="296" y="874" on="0"/>
        <pt x="327" y="915" on="0"/>
        <pt x="353" y="946" on="0"/>
        <pt x="358" y="952" on="1"/>
        <pt x="369" y="962" on="0"/>
        <pt x="381" y="962" on="1"/>
        <pt x="398" y="962" on="0"/>
        <pt x="407" y="949" on="1"/>
        <pt x="415" y="938" on="0"/>
        <pt x="415" y="921" on="1"/>
        <pt x="415" y="903" on="0"/>
        <pt x="404" y="890" on="1"/>
        <pt x="398" y="882" on="0"/>
        <pt x="369" y="857" on="0"/>
        <pt x="337" y="831" on="0"/>
        <pt x="315" y="813" on="0"/>
        <pt x="315" y="813" on="1"/>
      </contour>
      <contour>
        <pt x="380" y="813" on="1"/>
        <pt x="380" y="813" on="0"/>
        <pt x="409" y="850" on="0"/>
        <pt x="448" y="900" on="0"/>
        <pt x="484" y="945" on="0"/>
        <pt x="491" y="952" on="1"/>
        <pt x="502" y="962" on="0"/>
        <pt x="514" y="962" on="1"/>
        <pt x="530" y="962" on="0"/>
        <pt x="538" y="949" on="1"/>
        <pt x="547" y="935" on="0"/>
        <pt x="547" y="920" on="1"/>
        <pt x="547" y="902" on="0"/>
        <pt x="536" y="890" on="1"/>
        <pt x="530" y="882" on="0"/>
        <pt x="500" y="857" on="0"/>
        <pt x="469" y="831" on="0"/>
        <pt x="447" y="813" on="0"/>
        <pt x="447" y="813" on="1"/>
      </contour>
    </TTGlyph>
    <TTGlyph name="Umacron" xMin="15" yMin="-13" xMax="593" yMax="906">
      <contour>
        <pt x="220" y="-13" on="1"/>
        <pt x="117" y="-13" on="0"/>
        <pt x="15" y="85" on="0"/>
        <pt x="15" y="191" on="1"/>
        <pt x="15" y="216" on="0"/>
        <pt x="21" y="274" on="0"/>
        <pt x="27" y="306" on="1"/>
        <pt x="103" y="730" on="1"/>
        <pt x="189" y="730" on="1"/>
        <pt x="113" y="297" on="1"/>
        <pt x="109" y="270" on="0"/>
        <pt x="104" y="223" on="0"/>
        <pt x="104" y="203" on="1"/>
        <pt x="104" y="137" on="0"/>
        <pt x="161" y="75" on="0"/>
        <pt x="224" y="75" on="1"/>
        <pt x="280" y="75" on="0"/>
        <pt x="360" y="115" on="0"/>
        <pt x="413" y="212" on="0"/>
        <pt x="429" y="297" on="1"/>
        <pt x="506" y="730" on="1"/>
        <pt x="593" y="730" on="1"/>
        <pt x="517" y="306" on="1"/>
        <pt x="498" y="197" on="0"/>
        <pt x="433" y="68" on="0"/>
        <pt x="352" y="5" on="0"/>
        <pt x="262" y="-13" on="0"/>
      </contour>
      <contour>
        <pt x="229" y="833" on="1"/>
        <pt x="242" y="906" on="1"/>
        <pt x="493" y="906" on="1"/>
        <pt x="480" y="833" on="1"/>
      </contour>
    </TTGlyph>
    <TTGlyph name="Uogonek" xMin="15" yMin="-191" xMax="593" yMax="739">
      <contour>
        <pt x="220" y="-13" on="1"/>
        <pt x="117" y="-13" on="0"/>
        <pt x="15" y="86" on="0"/>
        <pt x="15" y="193" on="1"/>
        <pt x="15" y="219" on="0"/>
        <pt x="21" y="277" on="0"/>
        <pt x="27" y="310" on="1"/>
        <pt x="103" y="739" on="1"/>
        <pt x="189" y="739" on="1"/>
        <pt x="113" y="301" on="1"/>
        <pt x="109" y="273" on="0"/>
        <pt x="104" y="226" on="0"/>
        <pt x="104" y="205" on="1"/>
        <pt x="104" y="139" on="0"/>
        <pt x="161" y="76" on="0"/>
        <pt x="224" y="76" on="1"/>
        <pt x="280" y="76" on="0"/>
        <pt x="360" y="116" on="0"/>
        <pt x="413" y="215" on="0"/>
        <pt x="429" y="301" on="1"/>
        <pt x="506" y="739" on="1"/>
        <pt x="593" y="739" on="1"/>
        <pt x="517" y="310" on="1"/>
        <pt x="498" y="199" on="0"/>
        <pt x="433" y="69" on="0"/>
        <pt x="352" y="5" on="0"/>
        <pt x="262" y="-13" on="0"/>
      </contour>
      <contour>
        <pt x="188" y="-191" on="1"/>
        <pt x="150" y="-191" on="0"/>
        <pt x="111" y="-148" on="0"/>
        <pt x="111" y="-117" on="1"/>
        <pt x="111" y="-80" on="0"/>
        <pt x="164" y="-15" on="0"/>
        <pt x="208" y="0" on="1"/>
        <pt x="280" y="0" on="1"/>
        <pt x="237" y="-19" on="0"/>
        <pt x="182" y="-70" on="0"/>
        <pt x="182" y="-98" on="1"/>
        <pt x="182" y="-111" on="0"/>
        <pt x="202" y="-129" on="0"/>
        <pt x="219" y="-129" on="1"/>
        <pt x="237" y="-129" on="0"/>
        <pt x="259" y="-118" on="1"/>
        <pt x="248" y="-178" on="1"/>
        <pt x="213" y="-191" on="0"/>
      </contour>
    </TTGlyph>
    <TTGlyph name="Upsilon" xMin="15" yMin="0" xMax="593" yMax="739">
      <component glyphName="Y" x="0" y="0" flags="0x204"/>
    </TTGlyph>
    <TTGlyph name="Upsilondieresis" xMin="15" yMin="0" xMax="593" yMax="945">
      <component glyphName="Y" x="0" y="0" flags="0x204"/>
      <component glyphName="uni0308.case" x="599" y="0" flags="0x4"/>
    </TTGlyph>
    <TTGlyph name="Upsilontonos" xMin="-79" yMin="0" xMax="593" yMax="739">
      <component glyphName="tonos.case" x="-350" y="0" flags="0x4"/>
      <component glyphName="Y" x="0" y="0" flags="0x204"/>
    </TTGlyph>
    <TTGlyph name="Uring" xMin="15" yMin="-13" xMax="593" yMax="967">
      <contour>
        <pt x="220" y="-13" on="1"/>
        <pt x="117" y="-13" on="0"/>
        <pt x="15" y="85" on="0"/>
        <pt x="15" y="191" on="1"/>
        <pt x="15" y="216" on="0"/>
        <pt x="21" y="274" on="0"/>
        <pt x="27" y="306" on="1"/>
        <pt x="103" y="730" on="1"/>
        <pt x="189" y="730" on="1"/>
        <pt x="113" y="297" on="1"/>
        <pt x="109" y="270" on="0"/>
        <pt x="104" y="223" on="0"/>
        <pt x="104" y="203" on="1"/>
        <pt x="104" y="137" on="0"/>
        <pt x="161" y="75" on="0"/>
        <pt x="224" y="75" on="1"/>
        <pt x="280" y="75" on="0"/>
        <pt x="360" y="115" on="0"/>
        <pt x="413" y="212" on="0"/>
        <pt x="429" y="297" on="1"/>
        <pt x="506" y="730" on="1"/>
        <pt x="593" y="730" on="1"/>
        <pt x="517" y="306" on="1"/>
        <pt x="498" y="197" on="0"/>
        <pt x="433" y="68" on="0"/>
        <pt x="352" y="5" on="0"/>
        <pt x="262" y="-13" on="0"/>
      </contour>
      <contour>
        <pt x="360" y="729" on="1"/>
        <pt x="332" y="729" on="0"/>
        <pt x="286" y="762" on="0"/>
        <pt x="259" y="816" on="0"/>
        <pt x="259" y="848" on="1"/>
        <pt x="259" y="881" on="0"/>
        <pt x="286" y="934" on="0"/>
        <pt x="332" y="967" on="0"/>
        <pt x="360" y="967" on="1"/>
        <pt x="401" y="967" on="0"/>
        <pt x="457" y="896" on="0"/>
        <pt x="457" y="848" on="1"/>
        <pt x="457" y="800" on="0"/>
        <pt x="401" y="729" on="0"/>
      </contour>
      <contour>
        <pt x="358" y="792" on="1"/>
        <pt x="378" y="792" on="0"/>
        <pt x="406" y="825" on="0"/>
        <pt x="406" y="848" on="1"/>
        <pt x="406" y="871" on="0"/>
        <pt x="378" y="904" on="0"/>
        <pt x="358" y="904" on="1"/>
        <pt x="338" y="904" on="0"/>
        <pt x="311" y="871" on="0"/>
        <pt x="311" y="848" on="1"/>
        <pt x="311" y="825" on="0"/>
        <pt x="338" y="792" on="0"/>
      </contour>
    </TTGlyph>
    <TTGlyph name="Utilde" xMin="15" yMin="-13" xMax="593" yMax="945">
      <component glyphName="U" x="0" y="0" flags="0x204"/>
      <component glyphName="tildecomb.case" x="600" y="0" flags="0x4"/>
    </TTGlyph>
    <TTGlyph name="V" xMin="15" yMin="0" xMax="593" yMax="739">
      <contour>
        <pt x="104" y="0" on="1"/>
        <pt x="15" y="739" on="1"/>
        <pt x="115" y="739" on="1"/>
        <pt x="178" y="121" on="1"/>
        <pt x="481" y="739" on="1"/>
        <pt x="593" y="739" on="1"/>
        <pt x="218" y="0" on="1"/>
      </contour>
    </TTGlyph>
    <TTGlyph name="W" xMin="25" yMin="0" xMax="584" yMax="739">
      <contour>
        <pt x="42" y="0" on="1"/>
        <pt x="25" y="739" on="1"/>
        <pt x="93" y="739" on="1"/>
        <pt x="100" y="142" on="1"/>
        <pt x="259" y="739" on="1"/>
        <pt x="336" y="739" on="1"/>
        <pt x="340" y="130" on="1"/>
        <pt x="509" y="739" on="1"/>
        <pt x="584" y="739" on="1"/>
        <pt x="373" y="0" on="1"/>
        <pt x="291" y="0" on="1"/>
        <pt x="284" y="609" on="1"/>
        <pt x="117" y="0" on="1"/>
      </contour>
    </TTGlyph>
    <TTGlyph name="Wacute" xMin="25" yMin="0" xMax="584" yMax="950">
      <component glyphName="W" x="0" y="0" flags="0x204"/>
      <component glyphName="acutecomb.case" x="611" y="0" flags="0x4"/>
    </TTGlyph>
    <TTGlyph name="Wcircumflex" xMin="25" yMin="0" xMax="584" yMax="950">
      <component glyphName="W" x="0" y="0" flags="0x204"/>
      <component glyphName="uni0302.case" x="599" y="0" flags="0x4"/>
    </TTGlyph>
    <TTGlyph name="Wdieresis" xMin="25" yMin="0" xMax="584" yMax="945">
      <component glyphName="W" x="0" y="0" flags="0x204"/>
      <component glyphName="uni0308.case" x="599" y="0" flags="0x4"/>
    </TTGlyph>
    <TTGlyph name="Wgrave" xMin="25" yMin="0" xMax="584" yMax="950">
      <component glyphName="W" x="0" y="0" flags="0x204"/>
      <component glyphName="gravecomb.case" x="586" y="0" flags="0x4"/>
    </TTGlyph>
    <TTGlyph name="X" xMin="15" yMin="0" xMax="593" yMax="739">
      <contour>
        <pt x="15" y="0" on="1"/>
        <pt x="268" y="389" on="1"/>
        <pt x="146" y="739" on="1"/>
        <pt x="225" y="739" on="1"/>
        <pt x="319" y="468" on="1"/>
        <pt x="496" y="739" on="1"/>
        <pt x="593" y="739" on="1"/>
        <pt x="354" y="371" on="1"/>
        <pt x="485" y="0" on="1"/>
        <pt x="406" y="0" on="1"/>
        <pt x="302" y="292" on="1"/>
        <pt x="112" y="0" on="1"/>
      </contour>
    </TTGlyph>
    <TTGlyph name="Xi" xMin="21" yMin="0" xMax="608" yMax="739">
      <contour>
        <pt x="130" y="656" on="1"/>
        <pt x="144" y="739" on="1"/>
        <pt x="608" y="739" on="1"/>
        <pt x="594" y="656" on="1"/>
      </contour>
      <contour>
        <pt x="108" y="333" on="1"/>
        <pt x="122" y="416" on="1"/>
        <pt x="523" y="416" on="1"/>
        <pt x="509" y="333" on="1"/>
      </contour>
      <contour>
        <pt x="21" y="0" on="1"/>
        <pt x="35" y="83" on="1"/>
        <pt x="499" y="83" on="1"/>
        <pt x="486" y="0" on="1"/>
      </contour>
    </TTGlyph>
    <TTGlyph name="Y" xMin="15" yMin="0" xMax="593" yMax="739">
      <contour>
        <pt x="102" y="0" on="1"/>
        <pt x="154" y="265" on="1"/>
        <pt x="15" y="739" on="1"/>
        <pt x="111" y="739" on="1"/>
        <pt x="216" y="366" on="1"/>
        <pt x="479" y="739" on="1"/>
        <pt x="593" y="739" on="1"/>
        <pt x="250" y="265" on="1"/>
        <pt x="199" y="0" on="1"/>
      </contour>
    </TTGlyph>
    <TTGlyph name="Yacute" xMin="15" yMin="0" xMax="593" yMax="944">
      <contour>
        <pt x="102" y="0" on="1"/>
        <pt x="154" y="262" on="1"/>
        <pt x="15" y="730" on="1"/>
        <pt x="111" y="730" on="1"/>
        <pt x="216" y="362" on="1"/>
        <pt x="479" y="730" on="1"/>
        <pt x="593" y="730" on="1"/>
        <pt x="250" y="262" on="1"/>
        <pt x="199" y="0" on="1"/>
      </contour>
      <contour>
        <pt x="237" y="813" on="1"/>
        <pt x="241" y="816" on="0"/>
        <pt x="278" y="850" on="0"/>
        <pt x="325" y="893" on="0"/>
        <pt x="366" y="929" on="0"/>
        <pt x="373" y="934" on="1"/>
        <pt x="388" y="944" on="0"/>
        <pt x="399" y="944" on="1"/>
        <pt x="414" y="944" on="0"/>
        <pt x="435" y="921" on="0"/>
        <pt x="435" y="905" on="1"/>
        <pt x="435" y="891" on="0"/>
        <pt x="423" y="873" on="0"/>
        <pt x="416" y="868" on="1"/>
        <pt x="410" y="863" on="0"/>
        <pt x="382" y="847" on="0"/>
        <pt x="349" y="829" on="0"/>
        <pt x="322" y="815" on="0"/>
        <pt x="318" y="813" on="1"/>
      </contour>
    </TTGlyph>
    <TTGlyph name="Ycircumflex" xMin="15" yMin="0" xMax="593" yMax="950">
      <component glyphName="Y" x="0" y="0" flags="0x204"/>
      <component glyphName="uni0302.case" x="599" y="0" flags="0x4"/>
    </TTGlyph>
    <TTGlyph name="Ydieresis" xMin="15" yMin="0" xMax="593" yMax="926">
      <contour>
        <pt x="102" y="0" on="1"/>
        <pt x="154" y="262" on="1"/>
        <pt x="15" y="730" on="1"/>
        <pt x="111" y="730" on="1"/>
        <pt x="216" y="362" on="1"/>
        <pt x="479" y="730" on="1"/>
        <pt x="593" y="730" on="1"/>
        <pt x="250" y="262" on="1"/>
        <pt x="199" y="0" on="1"/>
      </contour>
      <contour>
        <pt x="208" y="809" on="1"/>
        <pt x="186" y="809" on="0"/>
        <pt x="154" y="844" on="0"/>
        <pt x="154" y="868" on="1"/>
        <pt x="154" y="892" on="0"/>
        <pt x="186" y="926" on="0"/>
        <pt x="208" y="926" on="1"/>
        <pt x="231" y="926" on="0"/>
        <pt x="262" y="892" on="0"/>
        <pt x="262" y="868" on="1"/>
        <pt x="262" y="844" on="0"/>
        <pt x="231" y="809" on="0"/>
      </contour>
      <contour>
        <pt x="419" y="809" on="1"/>
        <pt x="397" y="809" on="0"/>
        <pt x="366" y="844" on="0"/>
        <pt x="366" y="868" on="1"/>
        <pt x="366" y="892" on="0"/>
        <pt x="397" y="926" on="0"/>
        <pt x="419" y="926" on="1"/>
        <pt x="442" y="926" on="0"/>
        <pt x="473" y="892" on="0"/>
        <pt x="473" y="868" on="1"/>
        <pt x="473" y="844" on="0"/>
        <pt x="442" y="809" on="0"/>
      </contour>
    </TTGlyph>
    <TTGlyph name="Ygrave" xMin="15" yMin="0" xMax="593" yMax="950">
      <component glyphName="Y" x="0" y="0" flags="0x204"/>
      <component glyphName="gravecomb.case" x="586" y="0" flags="0x4"/>
    </TTGlyph>
    <TTGlyph name="Z" xMin="15" yMin="0" xMax="593" yMax="739">
      <contour>
        <pt x="15" y="0" on="1"/>
        <pt x="30" y="90" on="1"/>
        <pt x="470" y="649" on="1"/>
        <pt x="144" y="649" on="1"/>
        <pt x="159" y="739" on="1"/>
        <pt x="593" y="739" on="1"/>
        <pt x="579" y="649" on="1"/>
        <pt x="139" y="90" on="1"/>
        <pt x="491" y="90" on="1"/>
        <pt x="475" y="0" on="1"/>
      </contour>
    </TTGlyph>
    <TTGlyph name="Zacute" xMin="15" yMin="0" xMax="593" yMax="944">
      <contour>
        <pt x="15" y="0" on="1"/>
        <pt x="30" y="89" on="1"/>
        <pt x="470" y="641" on="1"/>
        <pt x="144" y="641" on="1"/>
        <pt x="159" y="730" on="1"/>
        <pt x="593" y="730" on="1"/>
        <pt x="579" y="641" on="1"/>
        <pt x="139" y="89" on="1"/>
        <pt x="491" y="89" on="1"/>
        <pt x="475" y="0" on="1"/>
      </contour>
      <contour>
        <pt x="327" y="813" on="1"/>
        <pt x="332" y="816" on="0"/>
        <pt x="364" y="850" on="0"/>
        <pt x="406" y="893" on="0"/>
        <pt x="441" y="929" on="0"/>
        <pt x="448" y="934" on="1"/>
        <pt x="459" y="944" on="0"/>
        <pt x="470" y="944" on="1"/>
        <pt x="484" y="944" on="0"/>
        <pt x="502" y="921" on="0"/>
        <pt x="502" y="905" on="1"/>
        <pt x="502" y="891" on="0"/>
        <pt x="491" y="873" on="0"/>
        <pt x="486" y="868" on="1"/>
        <pt x="480" y="863" on="0"/>
        <pt x="455" y="847" on="0"/>
        <pt x="426" y="829" on="0"/>
        <pt x="402" y="815" on="0"/>
        <pt x="399" y="813" on="1"/>
      </contour>
    </TTGlyph>
    <TTGlyph name="Zcaron" xMin="15" yMin="0" xMax="593" yMax="933">
      <contour>
        <pt x="15" y="0" on="1"/>
        <pt x="30" y="89" on="1"/>
        <pt x="470" y="641" on="1"/>
        <pt x="144" y="641" on="1"/>
        <pt x="159" y="730" on="1"/>
        <pt x="593" y="730" on="1"/>
        <pt x="579" y="641" on="1"/>
        <pt x="139" y="89" on="1"/>
        <pt x="491" y="89" on="1"/>
        <pt x="475" y="0" on="1"/>
      </contour>
      <contour>
        <pt x="385" y="802" on="1"/>
        <pt x="359" y="802" on="0"/>
        <pt x="344" y="823" on="1"/>
        <pt x="265" y="933" on="1"/>
        <pt x="344" y="933" on="1"/>
        <pt x="392" y="867" on="1"/>
        <pt x="464" y="933" on="1"/>
        <pt x="549" y="933" on="1"/>
        <pt x="432" y="823" on="1"/>
        <pt x="410" y="802" on="0"/>
      </contour>
    </TTGlyph>
    <TTGlyph name="Zdotaccent" xMin="15" yMin="0" xMax="593" yMax="943">
      <contour>
        <pt x="15" y="0" on="1"/>
        <pt x="30" y="89" on="1"/>
        <pt x="470" y="641" on="1"/>
        <pt x="144" y="641" on="1"/>
        <pt x="159" y="730" on="1"/>
        <pt x="593" y="730" on="1"/>
        <pt x="579" y="641" on="1"/>
        <pt x="139" y="89" on="1"/>
        <pt x="491" y="89" on="1"/>
        <pt x="475" y="0" on="1"/>
      </contour>
      <contour>
        <pt x="398" y="825" on="1"/>
        <pt x="379" y="825" on="0"/>
        <pt x="351" y="860" on="0"/>
        <pt x="351" y="884" on="1"/>
        <pt x="351" y="909" on="0"/>
        <pt x="379" y="943" on="0"/>
        <pt x="398" y="943" on="1"/>
        <pt x="418" y="943" on="0"/>
        <pt x="446" y="909" on="0"/>
        <pt x="446" y="884" on="1"/>
        <pt x="446" y="860" on="0"/>
        <pt x="418" y="825" on="0"/>
      </contour>
    </TTGlyph>
    <TTGlyph name="Zeta" xMin="15" yMin="0" xMax="593" yMax="739">
      <component glyphName="Z" x="0" y="0" flags="0x204"/>
    </TTGlyph>
    <TTGlyph name="a" xMin="64" yMin="-14" xMax="546" yMax="579">
      <contour>
        <pt x="221" y="-14" on="1"/>
        <pt x="153" y="-14" on="0"/>
        <pt x="64" y="66" on="0"/>
        <pt x="64" y="134" on="1"/>
        <pt x="64" y="191" on="0"/>
        <pt x="120" y="268" on="0"/>
        <pt x="209" y="313" on="0"/>
        <pt x="314" y="337" on="0"/>
        <pt x="413" y="349" on="0"/>
        <pt x="449" y="354" on="1"/>
        <pt x="452" y="370" on="0"/>
        <pt x="456" y="397" on="0"/>
        <pt x="456" y="410" on="1"/>
        <pt x="456" y="500" on="0"/>
        <pt x="359" y="500" on="1"/>
        <pt x="311" y="500" on="0"/>
        <pt x="243" y="454" on="0"/>
        <pt x="225" y="412" on="1"/>
        <pt x="146" y="438" on="1"/>
        <pt x="173" y="503" on="0"/>
        <pt x="279" y="579" on="0"/>
        <pt x="355" y="579" on="1"/>
        <pt x="447" y="579" on="0"/>
        <pt x="546" y="498" on="0"/>
        <pt x="546" y="415" on="1"/>
        <pt x="546" y="395" on="0"/>
        <pt x="541" y="356" on="0"/>
        <pt x="527" y="285" on="0"/>
        <pt x="513" y="215" on="1"/>
        <pt x="499" y="145" on="0"/>
        <pt x="490" y="40" on="0"/>
        <pt x="489" y="0" on="1"/>
        <pt x="406" y="0" on="1"/>
        <pt x="401" y="72" on="1"/>
        <pt x="366" y="29" on="0"/>
        <pt x="283" y="-14" on="0"/>
      </contour>
      <contour>
        <pt x="249" y="65" on="1"/>
        <pt x="321" y="65" on="0"/>
        <pt x="423" y="170" on="0"/>
        <pt x="437" y="257" on="1"/>
        <pt x="440" y="276" on="1"/>
        <pt x="353" y="268" on="0"/>
        <pt x="228" y="244" on="0"/>
        <pt x="163" y="193" on="0"/>
        <pt x="163" y="144" on="1"/>
        <pt x="163" y="104" on="0"/>
        <pt x="213" y="65" on="0"/>
      </contour>
    </TTGlyph>
    <TTGlyph name="aacute" xMin="64" yMin="-14" xMax="546" yMax="773">
      <contour>
        <pt x="221" y="-14" on="1"/>
        <pt x="153" y="-14" on="0"/>
        <pt x="64" y="66" on="0"/>
        <pt x="64" y="134" on="1"/>
        <pt x="64" y="191" on="0"/>
        <pt x="120" y="268" on="0"/>
        <pt x="209" y="313" on="0"/>
        <pt x="314" y="337" on="0"/>
        <pt x="413" y="349" on="0"/>
        <pt x="449" y="354" on="1"/>
        <pt x="452" y="370" on="0"/>
        <pt x="456" y="397" on="0"/>
        <pt x="456" y="410" on="1"/>
        <pt x="456" y="500" on="0"/>
        <pt x="359" y="500" on="1"/>
        <pt x="311" y="500" on="0"/>
        <pt x="243" y="454" on="0"/>
        <pt x="225" y="412" on="1"/>
        <pt x="146" y="438" on="1"/>
        <pt x="173" y="503" on="0"/>
        <pt x="279" y="579" on="0"/>
        <pt x="355" y="579" on="1"/>
        <pt x="447" y="579" on="0"/>
        <pt x="546" y="498" on="0"/>
        <pt x="546" y="415" on="1"/>
        <pt x="546" y="395" on="0"/>
        <pt x="541" y="356" on="0"/>
        <pt x="527" y="285" on="0"/>
        <pt x="513" y="215" on="1"/>
        <pt x="499" y="145" on="0"/>
        <pt x="490" y="40" on="0"/>
        <pt x="489" y="0" on="1"/>
        <pt x="406" y="0" on="1"/>
        <pt x="401" y="72" on="1"/>
        <pt x="366" y="29" on="0"/>
        <pt x="283" y="-14" on="0"/>
      </contour>
      <contour>
        <pt x="249" y="65" on="1"/>
        <pt x="321" y="65" on="0"/>
        <pt x="423" y="170" on="0"/>
        <pt x="437" y="257" on="1"/>
        <pt x="440" y="276" on="1"/>
        <pt x="353" y="268" on="0"/>
        <pt x="228" y="244" on="0"/>
        <pt x="163" y="193" on="0"/>
        <pt x="163" y="144" on="1"/>
        <pt x="163" y="104" on="0"/>
        <pt x="213" y="65" on="0"/>
      </contour>
      <contour>
        <pt x="344" y="625" on="1"/>
        <pt x="344" y="625" on="0"/>
        <pt x="377" y="662" on="0"/>
        <pt x="423" y="713" on="0"/>
        <pt x="465" y="756" on="0"/>
        <pt x="472" y="763" on="1"/>
        <pt x="484" y="773" on="0"/>
        <pt x="498" y="773" on="1"/>
        <pt x="516" y="773" on="0"/>
        <pt x="529" y="760" on="1"/>
        <pt x="538" y="749" on="0"/>
        <pt x="538" y="731" on="1"/>
        <pt x="538" y="713" on="0"/>
        <pt x="526" y="700" on="1"/>
        <pt x="518" y="694" on="0"/>
        <pt x="485" y="669" on="0"/>
        <pt x="448" y="643" on="0"/>
        <pt x="422" y="625" on="0"/>
        <pt x="422" y="625" on="1"/>
      </contour>
    </TTGlyph>
    <TTGlyph name="abreve" xMin="64" yMin="-14" xMax="584" yMax="745">
      <contour>
        <pt x="221" y="-14" on="1"/>
        <pt x="153" y="-14" on="0"/>
        <pt x="64" y="66" on="0"/>
        <pt x="64" y="134" on="1"/>
        <pt x="64" y="191" on="0"/>
        <pt x="120" y="268" on="0"/>
        <pt x="209" y="313" on="0"/>
        <pt x="314" y="337" on="0"/>
        <pt x="413" y="349" on="0"/>
        <pt x="449" y="354" on="1"/>
        <pt x="452" y="370" on="0"/>
        <pt x="456" y="397" on="0"/>
        <pt x="456" y="410" on="1"/>
        <pt x="456" y="500" on="0"/>
        <pt x="359" y="500" on="1"/>
        <pt x="311" y="500" on="0"/>
        <pt x="243" y="454" on="0"/>
        <pt x="225" y="412" on="1"/>
        <pt x="146" y="438" on="1"/>
        <pt x="173" y="503" on="0"/>
        <pt x="279" y="579" on="0"/>
        <pt x="355" y="579" on="1"/>
        <pt x="447" y="579" on="0"/>
        <pt x="546" y="498" on="0"/>
        <pt x="546" y="415" on="1"/>
        <pt x="546" y="395" on="0"/>
        <pt x="541" y="356" on="0"/>
        <pt x="527" y="285" on="0"/>
        <pt x="513" y="215" on="1"/>
        <pt x="499" y="145" on="0"/>
        <pt x="490" y="40" on="0"/>
        <pt x="489" y="0" on="1"/>
        <pt x="406" y="0" on="1"/>
        <pt x="401" y="72" on="1"/>
        <pt x="366" y="29" on="0"/>
        <pt x="283" y="-14" on="0"/>
      </contour>
      <contour>
        <pt x="249" y="65" on="1"/>
        <pt x="321" y="65" on="0"/>
        <pt x="423" y="170" on="0"/>
        <pt x="437" y="257" on="1"/>
        <pt x="440" y="276" on="1"/>
        <pt x="353" y="268" on="0"/>
        <pt x="228" y="244" on="0"/>
        <pt x="163" y="193" on="0"/>
        <pt x="163" y="144" on="1"/>
        <pt x="163" y="104" on="0"/>
        <pt x="213" y="65" on="0"/>
      </contour>
      <contour>
        <pt x="410" y="614" on="1"/>
        <pt x="365" y="614" on="0"/>
        <pt x="304" y="655" on="0"/>
        <pt x="274" y="716" on="0"/>
        <pt x="274" y="745" on="1"/>
        <pt x="346" y="745" on="1"/>
        <pt x="351" y="725" on="0"/>
        <pt x="383" y="687" on="0"/>
        <pt x="417" y="687" on="1"/>
        <pt x="451" y="687" on="0"/>
        <pt x="497" y="723" on="0"/>
        <pt x="511" y="745" on="1"/>
        <pt x="584" y="745" on="1"/>
        <pt x="571" y="714" on="0"/>
        <pt x="524" y="652" on="0"/>
        <pt x="455" y="614" on="0"/>
      </contour>
    </TTGlyph>
    <TTGlyph name="acircumflex" xMin="64" yMin="-14" xMax="575" yMax="760">
      <contour>
        <pt x="221" y="-14" on="1"/>
        <pt x="153" y="-14" on="0"/>
        <pt x="64" y="66" on="0"/>
        <pt x="64" y="134" on="1"/>
        <pt x="64" y="191" on="0"/>
        <pt x="120" y="268" on="0"/>
        <pt x="209" y="313" on="0"/>
        <pt x="314" y="337" on="0"/>
        <pt x="413" y="349" on="0"/>
        <pt x="449" y="354" on="1"/>
        <pt x="452" y="370" on="0"/>
        <pt x="456" y="397" on="0"/>
        <pt x="456" y="410" on="1"/>
        <pt x="456" y="500" on="0"/>
        <pt x="359" y="500" on="1"/>
        <pt x="311" y="500" on="0"/>
        <pt x="243" y="454" on="0"/>
        <pt x="225" y="412" on="1"/>
        <pt x="146" y="438" on="1"/>
        <pt x="173" y="503" on="0"/>
        <pt x="279" y="579" on="0"/>
        <pt x="355" y="579" on="1"/>
        <pt x="447" y="579" on="0"/>
        <pt x="546" y="498" on="0"/>
        <pt x="546" y="415" on="1"/>
        <pt x="546" y="395" on="0"/>
        <pt x="541" y="356" on="0"/>
        <pt x="527" y="285" on="0"/>
        <pt x="513" y="215" on="1"/>
        <pt x="499" y="145" on="0"/>
        <pt x="490" y="40" on="0"/>
        <pt x="489" y="0" on="1"/>
        <pt x="406" y="0" on="1"/>
        <pt x="401" y="72" on="1"/>
        <pt x="366" y="29" on="0"/>
        <pt x="283" y="-14" on="0"/>
      </contour>
      <contour>
        <pt x="249" y="65" on="1"/>
        <pt x="321" y="65" on="0"/>
        <pt x="423" y="170" on="0"/>
        <pt x="437" y="257" on="1"/>
        <pt x="440" y="276" on="1"/>
        <pt x="353" y="268" on="0"/>
        <pt x="228" y="244" on="0"/>
        <pt x="163" y="193" on="0"/>
        <pt x="163" y="144" on="1"/>
        <pt x="163" y="104" on="0"/>
        <pt x="213" y="65" on="0"/>
      </contour>
      <contour>
        <pt x="234" y="628" on="1"/>
        <pt x="374" y="739" on="1"/>
        <pt x="399" y="760" on="0"/>
        <pt x="431" y="760" on="1"/>
        <pt x="461" y="760" on="0"/>
        <pt x="479" y="739" on="1"/>
        <pt x="575" y="628" on="1"/>
        <pt x="477" y="628" on="1"/>
        <pt x="419" y="695" on="1"/>
        <pt x="335" y="628" on="1"/>
      </contour>
    </TTGlyph>
    <TTGlyph name="acknowledgecontrol" xMin="1" yMin="241" xMax="602" yMax="493">
      <component glyphName="A" x="-4" y="245" scale="0.33" flags="0x4"/>
      <component glyphName="C" x="195" y="245" scale="0.33" flags="0x4"/>
      <component glyphName="K" x="406" y="245" scale="0.33" flags="0x4"/>
    </TTGlyph>
    <TTGlyph name="acute" xMin="226" yMin="645" xMax="433" yMax="785">
      <contour>
        <pt x="226" y="645" on="1"/>
        <pt x="334" y="785" on="1"/>
        <pt x="433" y="785" on="1"/>
        <pt x="320" y="645" on="1"/>
      </contour>
    </TTGlyph>
    <TTGlyph name="acute.case" xMin="308" yMin="810" xMax="541" yMax="950">
      <component glyphName="acutecomb.case" x="600" y="0" flags="0x4"/>
    </TTGlyph>
    <TTGlyph name="acutecomb" xMin="-319" yMin="645" xMax="-85" yMax="785">
      <contour>
        <pt x="-319" y="645" on="1"/>
        <pt x="-189" y="785" on="1"/>
        <pt x="-85" y="785" on="1"/>
        <pt x="-220" y="645" on="1"/>
      </contour>
    </TTGlyph>
    <TTGlyph name="acutecomb.case" xMin="-292" yMin="810" xMax="-59" yMax="950">
      <contour>
        <pt x="-292" y="810" on="1"/>
        <pt x="-162" y="950" on="1"/>
        <pt x="-59" y="950" on="1"/>
        <pt x="-194" y="810" on="1"/>
      </contour>
    </TTGlyph>
    <TTGlyph name="adieresis" xMin="64" yMin="-14" xMax="575" yMax="762">
      <contour>
        <pt x="221" y="-14" on="1"/>
        <pt x="153" y="-14" on="0"/>
        <pt x="64" y="66" on="0"/>
        <pt x="64" y="134" on="1"/>
        <pt x="64" y="191" on="0"/>
        <pt x="120" y="268" on="0"/>
        <pt x="209" y="313" on="0"/>
        <pt x="314" y="337" on="0"/>
        <pt x="413" y="349" on="0"/>
        <pt x="449" y="354" on="1"/>
        <pt x="452" y="370" on="0"/>
        <pt x="456" y="397" on="0"/>
        <pt x="456" y="410" on="1"/>
        <pt x="456" y="500" on="0"/>
        <pt x="359" y="500" on="1"/>
        <pt x="311" y="500" on="0"/>
        <pt x="243" y="454" on="0"/>
        <pt x="225" y="412" on="1"/>
        <pt x="146" y="438" on="1"/>
        <pt x="173" y="503" on="0"/>
        <pt x="279" y="579" on="0"/>
        <pt x="355" y="579" on="1"/>
        <pt x="447" y="579" on="0"/>
        <pt x="546" y="498" on="0"/>
        <pt x="546" y="415" on="1"/>
        <pt x="546" y="395" on="0"/>
        <pt x="541" y="356" on="0"/>
        <pt x="527" y="285" on="0"/>
        <pt x="513" y="215" on="1"/>
        <pt x="499" y="145" on="0"/>
        <pt x="490" y="40" on="0"/>
        <pt x="489" y="0" on="1"/>
        <pt x="406" y="0" on="1"/>
        <pt x="401" y="72" on="1"/>
        <pt x="366" y="29" on="0"/>
        <pt x="283" y="-14" on="0"/>
      </contour>
      <contour>
        <pt x="249" y="65" on="1"/>
        <pt x="321" y="65" on="0"/>
        <pt x="423" y="170" on="0"/>
        <pt x="437" y="257" on="1"/>
        <pt x="440" y="276" on="1"/>
        <pt x="353" y="268" on="0"/>
        <pt x="228" y="244" on="0"/>
        <pt x="163" y="193" on="0"/>
        <pt x="163" y="144" on="1"/>
        <pt x="163" y="104" on="0"/>
        <pt x="213" y="65" on="0"/>
      </contour>
      <contour>
        <pt x="295" y="645" on="1"/>
        <pt x="272" y="645" on="0"/>
        <pt x="238" y="680" on="0"/>
        <pt x="238" y="704" on="1"/>
        <pt x="238" y="728" on="0"/>
        <pt x="272" y="762" on="0"/>
        <pt x="295" y="762" on="1"/>
        <pt x="319" y="762" on="0"/>
        <pt x="352" y="728" on="0"/>
        <pt x="352" y="704" on="1"/>
        <pt x="352" y="680" on="0"/>
        <pt x="319" y="645" on="0"/>
      </contour>
      <contour>
        <pt x="518" y="645" on="1"/>
        <pt x="494" y="645" on="0"/>
        <pt x="462" y="680" on="0"/>
        <pt x="462" y="704" on="1"/>
        <pt x="462" y="728" on="0"/>
        <pt x="494" y="762" on="0"/>
        <pt x="518" y="762" on="1"/>
        <pt x="542" y="762" on="0"/>
        <pt x="575" y="728" on="0"/>
        <pt x="575" y="704" on="1"/>
        <pt x="575" y="680" on="0"/>
        <pt x="542" y="645" on="0"/>
      </contour>
    </TTGlyph>
    <TTGlyph name="ae" xMin="15" yMin="-14" xMax="593" yMax="579">
      <contour>
        <pt x="126" y="-14" on="1"/>
        <pt x="76" y="-14" on="0"/>
        <pt x="15" y="62" on="0"/>
        <pt x="15" y="135" on="1"/>
        <pt x="15" y="200" on="0"/>
        <pt x="53" y="279" on="0"/>
        <pt x="121" y="320" on="0"/>
        <pt x="212" y="335" on="0"/>
        <pt x="266" y="335" on="1"/>
        <pt x="269" y="357" on="0"/>
        <pt x="274" y="395" on="0"/>
        <pt x="274" y="410" on="1"/>
        <pt x="274" y="455" on="0"/>
        <pt x="243" y="499" on="0"/>
        <pt x="210" y="499" on="1"/>
        <pt x="179" y="499" on="0"/>
        <pt x="133" y="453" on="0"/>
        <pt x="123" y="411" on="1"/>
        <pt x="69" y="438" on="1"/>
        <pt x="87" y="502" on="0"/>
        <pt x="158" y="579" on="0"/>
        <pt x="206" y="579" on="1"/>
        <pt x="253" y="579" on="0"/>
        <pt x="308" y="534" on="0"/>
        <pt x="321" y="496" on="1"/>
        <pt x="374" y="579" on="0"/>
        <pt x="454" y="579" on="1"/>
        <pt x="500" y="579" on="0"/>
        <pt x="562" y="516" on="0"/>
        <pt x="593" y="408" on="0"/>
        <pt x="593" y="343" on="1"/>
        <pt x="593" y="301" on="0"/>
        <pt x="587" y="258" on="1"/>
        <pt x="319" y="258" on="1"/>
        <pt x="319" y="250" on="0"/>
        <pt x="319" y="234" on="0"/>
        <pt x="319" y="227" on="1"/>
        <pt x="319" y="168" on="0"/>
        <pt x="346" y="100" on="0"/>
        <pt x="389" y="71" on="0"/>
        <pt x="412" y="71" on="1"/>
        <pt x="440" y="71" on="0"/>
        <pt x="483" y="102" on="0"/>
        <pt x="497" y="127" on="1"/>
        <pt x="551" y="100" on="1"/>
        <pt x="528" y="49" on="0"/>
        <pt x="454" y="-14" on="0"/>
        <pt x="404" y="-14" on="1"/>
        <pt x="357" y="-14" on="0"/>
        <pt x="293" y="57" on="0"/>
        <pt x="277" y="114" on="1"/>
        <pt x="258" y="66" on="0"/>
        <pt x="206" y="11" on="0"/>
        <pt x="151" y="-14" on="0"/>
      </contour>
      <contour>
        <pt x="328" y="335" on="1"/>
        <pt x="531" y="335" on="1"/>
        <pt x="532" y="341" on="0"/>
        <pt x="532" y="351" on="0"/>
        <pt x="532" y="356" on="1"/>
        <pt x="532" y="391" on="0"/>
        <pt x="514" y="455" on="0"/>
        <pt x="476" y="496" on="0"/>
        <pt x="446" y="496" on="1"/>
        <pt x="420" y="496" on="0"/>
        <pt x="371" y="458" on="0"/>
        <pt x="335" y="386" on="0"/>
      </contour>
      <contour>
        <pt x="132" y="64" on="1"/>
        <pt x="182" y="65" on="0"/>
        <pt x="249" y="171" on="0"/>
        <pt x="261" y="257" on="1"/>
        <pt x="226" y="257" on="0"/>
        <pt x="161" y="250" on="0"/>
        <pt x="110" y="226" on="0"/>
        <pt x="81" y="177" on="0"/>
        <pt x="81" y="138" on="1"/>
        <pt x="81" y="108" on="0"/>
        <pt x="106" y="64" on="0"/>
      </contour>
    </TTGlyph>
    <TTGlyph name="aeacute" xMin="15" yMin="-14" xMax="593" yMax="785">
      <component glyphName="ae" x="0" y="0" flags="0x204"/>
      <component glyphName="acutecomb" x="611" y="0" flags="0x4"/>
    </TTGlyph>
    <TTGlyph name="agrave" xMin="64" yMin="-14" xMax="546" yMax="773">
      <contour>
        <pt x="221" y="-14" on="1"/>
        <pt x="153" y="-14" on="0"/>
        <pt x="64" y="66" on="0"/>
        <pt x="64" y="134" on="1"/>
        <pt x="64" y="191" on="0"/>
        <pt x="120" y="268" on="0"/>
        <pt x="209" y="313" on="0"/>
        <pt x="314" y="337" on="0"/>
        <pt x="413" y="349" on="0"/>
        <pt x="449" y="354" on="1"/>
        <pt x="452" y="370" on="0"/>
        <pt x="456" y="397" on="0"/>
        <pt x="456" y="410" on="1"/>
        <pt x="456" y="500" on="0"/>
        <pt x="359" y="500" on="1"/>
        <pt x="311" y="500" on="0"/>
        <pt x="243" y="454" on="0"/>
        <pt x="225" y="412" on="1"/>
        <pt x="146" y="438" on="1"/>
        <pt x="173" y="503" on="0"/>
        <pt x="279" y="579" on="0"/>
        <pt x="355" y="579" on="1"/>
        <pt x="447" y="579" on="0"/>
        <pt x="546" y="498" on="0"/>
        <pt x="546" y="415" on="1"/>
        <pt x="546" y="395" on="0"/>
        <pt x="541" y="356" on="0"/>
        <pt x="527" y="285" on="0"/>
        <pt x="513" y="215" on="1"/>
        <pt x="499" y="145" on="0"/>
        <pt x="490" y="40" on="0"/>
        <pt x="489" y="0" on="1"/>
        <pt x="406" y="0" on="1"/>
        <pt x="401" y="72" on="1"/>
        <pt x="366" y="29" on="0"/>
        <pt x="283" y="-14" on="0"/>
      </contour>
      <contour>
        <pt x="249" y="65" on="1"/>
        <pt x="321" y="65" on="0"/>
        <pt x="423" y="170" on="0"/>
        <pt x="437" y="257" on="1"/>
        <pt x="440" y="276" on="1"/>
        <pt x="353" y="268" on="0"/>
        <pt x="228" y="244" on="0"/>
        <pt x="163" y="193" on="0"/>
        <pt x="163" y="144" on="1"/>
        <pt x="163" y="104" on="0"/>
        <pt x="213" y="65" on="0"/>
      </contour>
      <contour>
        <pt x="365" y="624" on="1"/>
        <pt x="365" y="624" on="0"/>
        <pt x="336" y="656" on="0"/>
        <pt x="301" y="695" on="0"/>
        <pt x="293" y="707" on="1"/>
        <pt x="285" y="718" on="0"/>
        <pt x="285" y="731" on="1"/>
        <pt x="285" y="754" on="0"/>
        <pt x="301" y="765" on="1"/>
        <pt x="312" y="773" on="0"/>
        <pt x="325" y="773" on="1"/>
        <pt x="346" y="773" on="0"/>
        <pt x="357" y="756" on="1"/>
        <pt x="363" y="747" on="0"/>
        <pt x="390" y="705" on="0"/>
        <pt x="417" y="658" on="0"/>
        <pt x="437" y="624" on="0"/>
        <pt x="437" y="624" on="1"/>
      </contour>
    </TTGlyph>
    <TTGlyph name="alpha" xMin="64" yMin="-14" xMax="546" yMax="579">
      <component glyphName="a" x="0" y="0" flags="0x204"/>
    </TTGlyph>
    <TTGlyph name="alphatonos" xMin="64" yMin="-14" xMax="546" yMax="785">
      <component glyphName="tonos" x="24" y="0" flags="0x4"/>
      <component glyphName="a" x="0" y="0" flags="0x204"/>
    </TTGlyph>
    <TTGlyph name="amacron" xMin="64" yMin="-14" xMax="570" yMax="730">
      <contour>
        <pt x="221" y="-14" on="1"/>
        <pt x="153" y="-14" on="0"/>
        <pt x="64" y="66" on="0"/>
        <pt x="64" y="134" on="1"/>
        <pt x="64" y="191" on="0"/>
        <pt x="120" y="268" on="0"/>
        <pt x="209" y="313" on="0"/>
        <pt x="314" y="337" on="0"/>
        <pt x="413" y="349" on="0"/>
        <pt x="449" y="354" on="1"/>
        <pt x="452" y="370" on="0"/>
        <pt x="456" y="397" on="0"/>
        <pt x="456" y="410" on="1"/>
        <pt x="456" y="500" on="0"/>
        <pt x="359" y="500" on="1"/>
        <pt x="311" y="500" on="0"/>
        <pt x="243" y="454" on="0"/>
        <pt x="225" y="412" on="1"/>
        <pt x="146" y="438" on="1"/>
        <pt x="173" y="503" on="0"/>
        <pt x="279" y="579" on="0"/>
        <pt x="355" y="579" on="1"/>
        <pt x="447" y="579" on="0"/>
        <pt x="546" y="498" on="0"/>
        <pt x="546" y="415" on="1"/>
        <pt x="546" y="395" on="0"/>
        <pt x="541" y="356" on="0"/>
        <pt x="527" y="285" on="0"/>
        <pt x="513" y="215" on="1"/>
        <pt x="499" y="145" on="0"/>
        <pt x="490" y="40" on="0"/>
        <pt x="489" y="0" on="1"/>
        <pt x="406" y="0" on="1"/>
        <pt x="401" y="72" on="1"/>
        <pt x="366" y="29" on="0"/>
        <pt x="283" y="-14" on="0"/>
      </contour>
      <contour>
        <pt x="249" y="65" on="1"/>
        <pt x="321" y="65" on="0"/>
        <pt x="423" y="170" on="0"/>
        <pt x="437" y="257" on="1"/>
        <pt x="440" y="276" on="1"/>
        <pt x="353" y="268" on="0"/>
        <pt x="228" y="244" on="0"/>
        <pt x="163" y="193" on="0"/>
        <pt x="163" y="144" on="1"/>
        <pt x="163" y="104" on="0"/>
        <pt x="213" y="65" on="0"/>
      </contour>
      <contour>
        <pt x="264" y="657" on="1"/>
        <pt x="279" y="730" on="1"/>
        <pt x="570" y="730" on="1"/>
        <pt x="556" y="657" on="1"/>
      </contour>
    </TTGlyph>
    <TTGlyph name="ampersand" xMin="17" yMin="-10" xMax="581" yMax="740">
      <contour>
        <pt x="182" y="-10" on="1"/>
        <pt x="98" y="-10" on="0"/>
        <pt x="17" y="78" on="0"/>
        <pt x="31" y="155" on="1"/>
        <pt x="50" y="280" on="1"/>
        <pt x="58" y="333" on="0"/>
        <pt x="128" y="406" on="0"/>
        <pt x="182" y="421" on="1"/>
        <pt x="176" y="431" on="1"/>
        <pt x="129" y="512" on="0"/>
        <pt x="140" y="581" on="1"/>
        <pt x="151" y="653" on="0"/>
        <pt x="266" y="740" on="0"/>
        <pt x="349" y="740" on="1"/>
        <pt x="438" y="740" on="0"/>
        <pt x="527" y="648" on="0"/>
        <pt x="514" y="569" on="1"/>
        <pt x="422" y="569" on="1"/>
        <pt x="430" y="613" on="0"/>
        <pt x="384" y="662" on="0"/>
        <pt x="337" y="662" on="1"/>
        <pt x="295" y="662" on="0"/>
        <pt x="238" y="617" on="0"/>
        <pt x="232" y="579" on="1"/>
        <pt x="228" y="554" on="0"/>
        <pt x="240" y="496" on="0"/>
        <pt x="254" y="470" on="1"/>
        <pt x="392" y="233" on="1"/>
        <pt x="485" y="360" on="1"/>
        <pt x="581" y="360" on="1"/>
        <pt x="433" y="161" on="1"/>
        <pt x="526" y="0" on="1"/>
        <pt x="425" y="0" on="1"/>
        <pt x="375" y="87" on="1"/>
        <pt x="285" y="-10" on="0"/>
      </contour>
      <contour>
        <pt x="200" y="70" on="1"/>
        <pt x="235" y="70" on="0"/>
        <pt x="307" y="115" on="0"/>
        <pt x="336" y="155" on="1"/>
        <pt x="218" y="358" on="1"/>
        <pt x="153" y="347" on="0"/>
        <pt x="142" y="280" on="1"/>
        <pt x="123" y="155" on="1"/>
        <pt x="115" y="115" on="0"/>
        <pt x="156" y="70" on="0"/>
      </contour>
    </TTGlyph>
    <TTGlyph name="anoteleia" xMin="218" yMin="265" xMax="402" yMax="431">
      <component glyphName="period" x="44" y="275" flags="0x4"/>
    </TTGlyph>
    <TTGlyph name="aogonek" xMin="64" yMin="-198" xMax="546" yMax="579">
      <contour>
        <pt x="221" y="-14" on="1"/>
        <pt x="153" y="-14" on="0"/>
        <pt x="64" y="66" on="0"/>
        <pt x="64" y="134" on="1"/>
        <pt x="64" y="191" on="0"/>
        <pt x="120" y="268" on="0"/>
        <pt x="209" y="313" on="0"/>
        <pt x="314" y="337" on="0"/>
        <pt x="413" y="349" on="0"/>
        <pt x="449" y="354" on="1"/>
        <pt x="452" y="370" on="0"/>
        <pt x="456" y="397" on="0"/>
        <pt x="456" y="410" on="1"/>
        <pt x="456" y="500" on="0"/>
        <pt x="359" y="500" on="1"/>
        <pt x="311" y="500" on="0"/>
        <pt x="243" y="454" on="0"/>
        <pt x="225" y="412" on="1"/>
        <pt x="146" y="438" on="1"/>
        <pt x="173" y="503" on="0"/>
        <pt x="279" y="579" on="0"/>
        <pt x="355" y="579" on="1"/>
        <pt x="447" y="579" on="0"/>
        <pt x="546" y="498" on="0"/>
        <pt x="546" y="415" on="1"/>
        <pt x="546" y="395" on="0"/>
        <pt x="541" y="356" on="0"/>
        <pt x="527" y="285" on="0"/>
        <pt x="513" y="215" on="1"/>
        <pt x="499" y="145" on="0"/>
        <pt x="490" y="40" on="0"/>
        <pt x="489" y="0" on="1"/>
        <pt x="406" y="0" on="1"/>
        <pt x="401" y="72" on="1"/>
        <pt x="366" y="29" on="0"/>
        <pt x="283" y="-14" on="0"/>
      </contour>
      <contour>
        <pt x="249" y="65" on="1"/>
        <pt x="321" y="65" on="0"/>
        <pt x="423" y="170" on="0"/>
        <pt x="437" y="257" on="1"/>
        <pt x="440" y="276" on="1"/>
        <pt x="353" y="268" on="0"/>
        <pt x="228" y="244" on="0"/>
        <pt x="163" y="193" on="0"/>
        <pt x="163" y="144" on="1"/>
        <pt x="163" y="104" on="0"/>
        <pt x="213" y="65" on="0"/>
      </contour>
      <contour>
        <pt x="382" y="-198" on="1"/>
        <pt x="339" y="-198" on="0"/>
        <pt x="294" y="-153" on="0"/>
        <pt x="294" y="-122" on="1"/>
        <pt x="294" y="-83" on="0"/>
        <pt x="355" y="-16" on="0"/>
        <pt x="406" y="0" on="1"/>
        <pt x="489" y="0" on="1"/>
        <pt x="439" y="-20" on="0"/>
        <pt x="375" y="-72" on="0"/>
        <pt x="375" y="-102" on="1"/>
        <pt x="375" y="-115" on="0"/>
        <pt x="399" y="-133" on="0"/>
        <pt x="418" y="-133" on="1"/>
        <pt x="439" y="-133" on="0"/>
        <pt x="465" y="-123" on="1"/>
        <pt x="453" y="-185" on="1"/>
        <pt x="412" y="-198" on="0"/>
      </contour>
    </TTGlyph>
    <TTGlyph name="approxequal" xMin="63" yMin="105" xMax="537" yMax="555">
      <contour>
        <pt x="63" y="355" on="1"/>
        <pt x="63" y="425" on="1"/>
        <pt x="63" y="484" on="0"/>
        <pt x="137" y="555" on="0"/>
        <pt x="197" y="555" on="1"/>
        <pt x="235" y="555" on="0"/>
        <pt x="287" y="529" on="0"/>
        <pt x="322" y="490" on="0"/>
        <pt x="349" y="451" on="0"/>
        <pt x="380" y="425" on="0"/>
        <pt x="401" y="425" on="1"/>
        <pt x="449" y="425" on="0"/>
        <pt x="449" y="480" on="1"/>
        <pt x="449" y="550" on="1"/>
        <pt x="537" y="550" on="1"/>
        <pt x="537" y="480" on="1"/>
        <pt x="537" y="422" on="0"/>
        <pt x="464" y="350" on="0"/>
        <pt x="403" y="350" on="1"/>
        <pt x="365" y="350" on="0"/>
        <pt x="313" y="376" on="0"/>
        <pt x="278" y="415" on="0"/>
        <pt x="251" y="454" on="0"/>
        <pt x="220" y="480" on="0"/>
        <pt x="199" y="480" on="1"/>
        <pt x="151" y="480" on="0"/>
        <pt x="151" y="425" on="1"/>
        <pt x="151" y="355" on="1"/>
      </contour>
      <contour>
        <pt x="63" y="110" on="1"/>
        <pt x="63" y="180" on="1"/>
        <pt x="63" y="239" on="0"/>
        <pt x="137" y="310" on="0"/>
        <pt x="197" y="310" on="1"/>
        <pt x="235" y="310" on="0"/>
        <pt x="287" y="284" on="0"/>
        <pt x="322" y="245" on="0"/>
        <pt x="349" y="206" on="0"/>
        <pt x="380" y="180" on="0"/>
        <pt x="401" y="180" on="1"/>
        <pt x="449" y="180" on="0"/>
        <pt x="449" y="235" on="1"/>
        <pt x="449" y="305" on="1"/>
        <pt x="537" y="305" on="1"/>
        <pt x="537" y="235" on="1"/>
        <pt x="537" y="177" on="0"/>
        <pt x="464" y="105" on="0"/>
        <pt x="403" y="105" on="1"/>
        <pt x="365" y="105" on="0"/>
        <pt x="313" y="131" on="0"/>
        <pt x="278" y="170" on="0"/>
        <pt x="251" y="209" on="0"/>
        <pt x="220" y="235" on="0"/>
        <pt x="199" y="235" on="1"/>
        <pt x="151" y="235" on="0"/>
        <pt x="151" y="180" on="1"/>
        <pt x="151" y="110" on="1"/>
      </contour>
    </TTGlyph>
    <TTGlyph name="aring" xMin="64" yMin="-14" xMax="546" yMax="841">
      <contour>
        <pt x="221" y="-14" on="1"/>
        <pt x="153" y="-14" on="0"/>
        <pt x="64" y="66" on="0"/>
        <pt x="64" y="134" on="1"/>
        <pt x="64" y="191" on="0"/>
        <pt x="120" y="268" on="0"/>
        <pt x="209" y="313" on="0"/>
        <pt x="314" y="337" on="0"/>
        <pt x="413" y="349" on="0"/>
        <pt x="449" y="354" on="1"/>
        <pt x="452" y="370" on="0"/>
        <pt x="456" y="397" on="0"/>
        <pt x="456" y="410" on="1"/>
        <pt x="456" y="500" on="0"/>
        <pt x="359" y="500" on="1"/>
        <pt x="311" y="500" on="0"/>
        <pt x="243" y="454" on="0"/>
        <pt x="225" y="412" on="1"/>
        <pt x="146" y="438" on="1"/>
        <pt x="173" y="503" on="0"/>
        <pt x="279" y="579" on="0"/>
        <pt x="355" y="579" on="1"/>
        <pt x="447" y="579" on="0"/>
        <pt x="546" y="498" on="0"/>
        <pt x="546" y="415" on="1"/>
        <pt x="546" y="395" on="0"/>
        <pt x="541" y="356" on="0"/>
        <pt x="527" y="285" on="0"/>
        <pt x="513" y="215" on="1"/>
        <pt x="499" y="145" on="0"/>
        <pt x="490" y="40" on="0"/>
        <pt x="489" y="0" on="1"/>
        <pt x="406" y="0" on="1"/>
        <pt x="401" y="72" on="1"/>
        <pt x="366" y="29" on="0"/>
        <pt x="283" y="-14" on="0"/>
      </contour>
      <contour>
        <pt x="249" y="65" on="1"/>
        <pt x="321" y="65" on="0"/>
        <pt x="423" y="170" on="0"/>
        <pt x="437" y="257" on="1"/>
        <pt x="440" y="276" on="1"/>
        <pt x="353" y="268" on="0"/>
        <pt x="228" y="244" on="0"/>
        <pt x="163" y="193" on="0"/>
        <pt x="163" y="144" on="1"/>
        <pt x="163" y="104" on="0"/>
        <pt x="213" y="65" on="0"/>
      </contour>
      <contour>
        <pt x="426" y="603" on="1"/>
        <pt x="393" y="603" on="0"/>
        <pt x="340" y="636" on="0"/>
        <pt x="308" y="691" on="0"/>
        <pt x="308" y="722" on="1"/>
        <pt x="308" y="755" on="0"/>
        <pt x="340" y="809" on="0"/>
        <pt x="393" y="841" on="0"/>
        <pt x="426" y="841" on="1"/>
        <pt x="474" y="841" on="0"/>
        <pt x="538" y="770" on="0"/>
        <pt x="538" y="722" on="1"/>
        <pt x="538" y="674" on="0"/>
        <pt x="474" y="603" on="0"/>
      </contour>
      <contour>
        <pt x="423" y="667" on="1"/>
        <pt x="447" y="667" on="0"/>
        <pt x="478" y="699" on="0"/>
        <pt x="478" y="722" on="1"/>
        <pt x="478" y="745" on="0"/>
        <pt x="447" y="778" on="0"/>
        <pt x="423" y="778" on="1"/>
        <pt x="400" y="778" on="0"/>
        <pt x="369" y="745" on="0"/>
        <pt x="369" y="722" on="1"/>
        <pt x="369" y="699" on="0"/>
        <pt x="400" y="667" on="0"/>
      </contour>
    </TTGlyph>
    <TTGlyph name="arrowboth" xMin="-91" yMin="35" xMax="691" yMax="625">
      <contour>
        <pt x="148" y="35" on="1"/>
        <pt x="-91" y="330" on="1"/>
        <pt x="147" y="625" on="1"/>
        <pt x="256" y="625" on="1"/>
        <pt x="89" y="420" on="1"/>
        <pt x="79" y="407" on="0"/>
        <pt x="52" y="382" on="0"/>
        <pt x="43" y="375" on="1"/>
        <pt x="43" y="366" on="1"/>
        <pt x="56" y="368" on="0"/>
        <pt x="98" y="370" on="0"/>
        <pt x="115" y="370" on="1"/>
        <pt x="485" y="370" on="1"/>
        <pt x="503" y="370" on="0"/>
        <pt x="544" y="367" on="0"/>
        <pt x="558" y="365" on="1"/>
        <pt x="558" y="374" on="1"/>
        <pt x="550" y="380" on="0"/>
        <pt x="525" y="406" on="0"/>
        <pt x="511" y="421" on="1"/>
        <pt x="344" y="625" on="1"/>
        <pt x="452" y="625" on="1"/>
        <pt x="691" y="330" on="1"/>
        <pt x="453" y="35" on="1"/>
        <pt x="344" y="35" on="1"/>
        <pt x="511" y="240" on="1"/>
        <pt x="521" y="253" on="0"/>
        <pt x="548" y="278" on="0"/>
        <pt x="558" y="285" on="1"/>
        <pt x="558" y="294" on="1"/>
        <pt x="544" y="293" on="0"/>
        <pt x="503" y="290" on="0"/>
        <pt x="485" y="290" on="1"/>
        <pt x="115" y="290" on="1"/>
        <pt x="98" y="290" on="0"/>
        <pt x="56" y="294" on="0"/>
        <pt x="43" y="295" on="1"/>
        <pt x="43" y="286" on="1"/>
        <pt x="50" y="280" on="0"/>
        <pt x="75" y="254" on="0"/>
        <pt x="89" y="239" on="1"/>
        <pt x="256" y="35" on="1"/>
      </contour>
    </TTGlyph>
    <TTGlyph name="arrowdblboth" xMin="-91" yMin="35" xMax="691" yMax="625">
      <contour>
        <pt x="147" y="35" on="1"/>
        <pt x="-91" y="330" on="1"/>
        <pt x="148" y="625" on="1"/>
        <pt x="256" y="625" on="1"/>
        <pt x="147" y="490" on="1"/>
        <pt x="453" y="490" on="1"/>
        <pt x="344" y="625" on="1"/>
        <pt x="452" y="625" on="1"/>
        <pt x="691" y="330" on="1"/>
        <pt x="453" y="35" on="1"/>
        <pt x="344" y="35" on="1"/>
        <pt x="453" y="170" on="1"/>
        <pt x="147" y="170" on="1"/>
        <pt x="256" y="35" on="1"/>
      </contour>
      <contour>
        <pt x="82" y="250" on="1"/>
        <pt x="518" y="250" on="1"/>
        <pt x="583" y="330" on="1"/>
        <pt x="518" y="410" on="1"/>
        <pt x="82" y="410" on="1"/>
        <pt x="17" y="330" on="1"/>
      </contour>
    </TTGlyph>
    <TTGlyph name="arrowdbldown" xMin="-19" yMin="-190" xMax="619" yMax="829">
      <contour>
        <pt x="367" y="829" on="1"/>
        <pt x="367" y="-190" on="1"/>
        <pt x="619" y="48" on="1"/>
        <pt x="619" y="113" on="1"/>
        <pt x="418" y="-76" on="1"/>
        <pt x="418" y="829" on="1"/>
      </contour>
      <contour>
        <pt x="182" y="829" on="1"/>
        <pt x="182" y="-76" on="1"/>
        <pt x="-19" y="113" on="1"/>
        <pt x="-19" y="48" on="1"/>
        <pt x="233" y="-190" on="1"/>
        <pt x="233" y="829" on="1"/>
      </contour>
    </TTGlyph>
    <TTGlyph name="arrowdblright" xMin="-91" yMin="35" xMax="691" yMax="625">
      <contour>
        <pt x="344" y="35" on="1"/>
        <pt x="453" y="170" on="1"/>
        <pt x="-91" y="170" on="1"/>
        <pt x="-91" y="250" on="1"/>
        <pt x="518" y="250" on="1"/>
        <pt x="583" y="330" on="1"/>
        <pt x="518" y="410" on="1"/>
        <pt x="-91" y="410" on="1"/>
        <pt x="-91" y="490" on="1"/>
        <pt x="453" y="490" on="1"/>
        <pt x="344" y="625" on="1"/>
        <pt x="452" y="625" on="1"/>
        <pt x="691" y="330" on="1"/>
        <pt x="453" y="35" on="1"/>
      </contour>
    </TTGlyph>
    <TTGlyph name="arrowdblup" xMin="-19" yMin="-180" xMax="619" yMax="839">
      <contour>
        <pt x="367" y="-180" on="1"/>
        <pt x="367" y="839" on="1"/>
        <pt x="619" y="601" on="1"/>
        <pt x="619" y="536" on="1"/>
        <pt x="418" y="725" on="1"/>
        <pt x="418" y="-180" on="1"/>
      </contour>
      <contour>
        <pt x="182" y="-180" on="1"/>
        <pt x="182" y="725" on="1"/>
        <pt x="-19" y="536" on="1"/>
        <pt x="-19" y="601" on="1"/>
        <pt x="233" y="839" on="1"/>
        <pt x="233" y="-180" on="1"/>
      </contour>
    </TTGlyph>
    <TTGlyph name="arrowdown" xMin="1" yMin="-10" xMax="599" yMax="730">
      <contour>
        <pt x="299" y="-10" on="1"/>
        <pt x="1" y="236" on="1"/>
        <pt x="1" y="341" on="1"/>
        <pt x="193" y="183" on="1"/>
        <pt x="216" y="164" on="0"/>
        <pt x="244" y="136" on="0"/>
        <pt x="249" y="130" on="1"/>
        <pt x="259" y="130" on="1"/>
        <pt x="258" y="143" on="0"/>
        <pt x="254" y="188" on="0"/>
        <pt x="254" y="210" on="1"/>
        <pt x="254" y="730" on="1"/>
        <pt x="346" y="730" on="1"/>
        <pt x="346" y="210" on="1"/>
        <pt x="346" y="188" on="0"/>
        <pt x="343" y="143" on="0"/>
        <pt x="341" y="130" on="1"/>
        <pt x="352" y="130" on="1"/>
        <pt x="362" y="145" on="0"/>
        <pt x="408" y="184" on="1"/>
        <pt x="599" y="342" on="1"/>
        <pt x="599" y="237" on="1"/>
      </contour>
    </TTGlyph>
    <TTGlyph name="arrowleft" xMin="32" yMin="35" xMax="578" yMax="625">
      <contour>
        <pt x="271" y="35" on="1"/>
        <pt x="32" y="330" on="1"/>
        <pt x="270" y="625" on="1"/>
        <pt x="379" y="625" on="1"/>
        <pt x="212" y="420" on="1"/>
        <pt x="202" y="407" on="0"/>
        <pt x="175" y="382" on="0"/>
        <pt x="166" y="375" on="1"/>
        <pt x="166" y="366" on="1"/>
        <pt x="179" y="368" on="0"/>
        <pt x="222" y="370" on="0"/>
        <pt x="238" y="370" on="1"/>
        <pt x="578" y="370" on="1"/>
        <pt x="578" y="290" on="1"/>
        <pt x="238" y="290" on="1"/>
        <pt x="222" y="290" on="0"/>
        <pt x="179" y="294" on="0"/>
        <pt x="166" y="295" on="1"/>
        <pt x="166" y="286" on="1"/>
        <pt x="173" y="280" on="0"/>
        <pt x="199" y="254" on="0"/>
        <pt x="212" y="239" on="1"/>
        <pt x="379" y="35" on="1"/>
      </contour>
    </TTGlyph>
    <TTGlyph name="arrowright" xMin="32" yMin="35" xMax="578" yMax="625">
      <contour>
        <pt x="231" y="35" on="1"/>
        <pt x="398" y="240" on="1"/>
        <pt x="408" y="253" on="0"/>
        <pt x="435" y="278" on="0"/>
        <pt x="444" y="285" on="1"/>
        <pt x="444" y="294" on="1"/>
        <pt x="431" y="293" on="0"/>
        <pt x="390" y="290" on="0"/>
        <pt x="372" y="290" on="1"/>
        <pt x="32" y="290" on="1"/>
        <pt x="32" y="370" on="1"/>
        <pt x="372" y="370" on="1"/>
        <pt x="390" y="370" on="0"/>
        <pt x="431" y="367" on="0"/>
        <pt x="444" y="365" on="1"/>
        <pt x="444" y="374" on="1"/>
        <pt x="437" y="380" on="0"/>
        <pt x="411" y="406" on="0"/>
        <pt x="398" y="421" on="1"/>
        <pt x="231" y="625" on="1"/>
        <pt x="339" y="625" on="1"/>
        <pt x="578" y="330" on="1"/>
        <pt x="340" y="35" on="1"/>
      </contour>
    </TTGlyph>
    <TTGlyph name="arrowup" xMin="1" yMin="0" xMax="599" yMax="740">
      <contour>
        <pt x="254" y="0" on="1"/>
        <pt x="254" y="520" on="1"/>
        <pt x="254" y="542" on="0"/>
        <pt x="258" y="587" on="0"/>
        <pt x="259" y="600" on="1"/>
        <pt x="249" y="600" on="1"/>
        <pt x="238" y="585" on="0"/>
        <pt x="192" y="546" on="1"/>
        <pt x="1" y="388" on="1"/>
        <pt x="1" y="493" on="1"/>
        <pt x="301" y="740" on="1"/>
        <pt x="599" y="494" on="1"/>
        <pt x="599" y="389" on="1"/>
        <pt x="407" y="547" on="1"/>
        <pt x="384" y="566" on="0"/>
        <pt x="357" y="594" on="0"/>
        <pt x="352" y="600" on="1"/>
        <pt x="341" y="600" on="1"/>
        <pt x="343" y="587" on="0"/>
        <pt x="346" y="542" on="0"/>
        <pt x="346" y="520" on="1"/>
        <pt x="346" y="0" on="1"/>
      </contour>
    </TTGlyph>
    <TTGlyph name="arrowupdn" xMin="1" yMin="-170" xMax="599" yMax="900">
      <contour>
        <pt x="300" y="-170" on="1"/>
        <pt x="1" y="76" on="1"/>
        <pt x="1" y="181" on="1"/>
        <pt x="193" y="23" on="1"/>
        <pt x="216" y="4" on="0"/>
        <pt x="244" y="-24" on="0"/>
        <pt x="249" y="-30" on="1"/>
        <pt x="259" y="-30" on="1"/>
        <pt x="258" y="-17" on="0"/>
        <pt x="254" y="28" on="0"/>
        <pt x="254" y="50" on="1"/>
        <pt x="254" y="680" on="1"/>
        <pt x="254" y="702" on="0"/>
        <pt x="258" y="747" on="0"/>
        <pt x="259" y="760" on="1"/>
        <pt x="249" y="760" on="1"/>
        <pt x="238" y="745" on="0"/>
        <pt x="192" y="706" on="1"/>
        <pt x="1" y="548" on="1"/>
        <pt x="1" y="653" on="1"/>
        <pt x="300" y="900" on="1"/>
        <pt x="599" y="654" on="1"/>
        <pt x="599" y="549" on="1"/>
        <pt x="407" y="707" on="1"/>
        <pt x="384" y="726" on="0"/>
        <pt x="357" y="754" on="0"/>
        <pt x="352" y="760" on="1"/>
        <pt x="341" y="760" on="1"/>
        <pt x="343" y="747" on="0"/>
        <pt x="346" y="702" on="0"/>
        <pt x="346" y="680" on="1"/>
        <pt x="346" y="50" on="1"/>
        <pt x="346" y="28" on="0"/>
        <pt x="343" y="-17" on="0"/>
        <pt x="341" y="-30" on="1"/>
        <pt x="352" y="-30" on="1"/>
        <pt x="362" y="-15" on="0"/>
        <pt x="408" y="24" on="1"/>
        <pt x="599" y="182" on="1"/>
        <pt x="599" y="77" on="1"/>
      </contour>
    </TTGlyph>
    <TTGlyph name="asciicircum" xMin="73" yMin="340" xMax="527" yMax="730">
      <contour>
        <pt x="73" y="340" on="1"/>
        <pt x="258" y="730" on="1"/>
        <pt x="344" y="730" on="1"/>
        <pt x="527" y="340" on="1"/>
        <pt x="443" y="340" on="1"/>
        <pt x="328" y="598" on="1"/>
        <pt x="320" y="618" on="0"/>
        <pt x="306" y="655" on="0"/>
        <pt x="303" y="665" on="1"/>
        <pt x="299" y="655" on="0"/>
        <pt x="285" y="618" on="0"/>
        <pt x="275" y="598" on="1"/>
        <pt x="157" y="340" on="1"/>
      </contour>
    </TTGlyph>
    <TTGlyph name="asciitilde" xMin="63" yMin="250" xMax="537" yMax="455">
      <contour>
        <pt x="63" y="255" on="1"/>
        <pt x="63" y="325" on="1"/>
        <pt x="63" y="384" on="0"/>
        <pt x="137" y="455" on="0"/>
        <pt x="197" y="455" on="1"/>
        <pt x="235" y="455" on="0"/>
        <pt x="287" y="429" on="0"/>
        <pt x="322" y="390" on="0"/>
        <pt x="349" y="351" on="0"/>
        <pt x="380" y="325" on="0"/>
        <pt x="401" y="325" on="1"/>
        <pt x="449" y="325" on="0"/>
        <pt x="449" y="380" on="1"/>
        <pt x="449" y="450" on="1"/>
        <pt x="537" y="450" on="1"/>
        <pt x="537" y="380" on="1"/>
        <pt x="537" y="322" on="0"/>
        <pt x="464" y="250" on="0"/>
        <pt x="403" y="250" on="1"/>
        <pt x="365" y="250" on="0"/>
        <pt x="313" y="276" on="0"/>
        <pt x="278" y="315" on="0"/>
        <pt x="251" y="354" on="0"/>
        <pt x="220" y="380" on="0"/>
        <pt x="199" y="380" on="1"/>
        <pt x="151" y="380" on="0"/>
        <pt x="151" y="325" on="1"/>
        <pt x="151" y="255" on="1"/>
      </contour>
    </TTGlyph>
    <TTGlyph name="asterisk" xMin="46" yMin="94" xMax="591" yMax="610">
      <contour>
        <pt x="149" y="94" on="1"/>
        <pt x="83" y="144" on="1"/>
        <pt x="151" y="222" on="1"/>
        <pt x="175" y="250" on="0"/>
        <pt x="244" y="305" on="0"/>
        <pt x="270" y="323" on="1"/>
        <pt x="268" y="330" on="1"/>
        <pt x="239" y="332" on="0"/>
        <pt x="161" y="344" on="0"/>
        <pt x="131" y="355" on="1"/>
        <pt x="46" y="387" on="1"/>
        <pt x="90" y="470" on="1"/>
        <pt x="175" y="438" on="1"/>
        <pt x="206" y="427" on="0"/>
        <pt x="270" y="384" on="0"/>
        <pt x="291" y="367" on="1"/>
        <pt x="297" y="371" on="1"/>
        <pt x="294" y="399" on="0"/>
        <pt x="290" y="481" on="0"/>
        <pt x="295" y="515" on="1"/>
        <pt x="310" y="610" on="1"/>
        <pt x="401" y="610" on="1"/>
        <pt x="385" y="515" on="1"/>
        <pt x="380" y="481" on="0"/>
        <pt x="348" y="399" on="0"/>
        <pt x="335" y="371" on="1"/>
        <pt x="339" y="367" on="1"/>
        <pt x="366" y="384" on="0"/>
        <pt x="443" y="427" on="0"/>
        <pt x="477" y="438" on="1"/>
        <pt x="574" y="470" on="1"/>
        <pt x="591" y="387" on="1"/>
        <pt x="495" y="355" on="1"/>
        <pt x="462" y="344" on="0"/>
        <pt x="380" y="332" on="0"/>
        <pt x="350" y="330" on="1"/>
        <pt x="345" y="322" on="1"/>
        <pt x="366" y="304" on="0"/>
        <pt x="415" y="249" on="0"/>
        <pt x="431" y="222" on="1"/>
        <pt x="475" y="144" on="1"/>
        <pt x="393" y="94" on="1"/>
        <pt x="348" y="172" on="1"/>
        <pt x="333" y="199" on="0"/>
        <pt x="313" y="273" on="0"/>
        <pt x="308" y="300" on="1"/>
        <pt x="301" y="300" on="1"/>
        <pt x="287" y="273" on="0"/>
        <pt x="240" y="200" on="0"/>
        <pt x="217" y="172" on="1"/>
      </contour>
    </TTGlyph>
    <TTGlyph name="at" xMin="-2" yMin="-180" xMax="618" yMax="740">
      <contour>
        <pt x="251" y="-180" on="1"/>
        <pt x="164" y="-180" on="0"/>
        <pt x="47" y="-109" on="0"/>
        <pt x="-2" y="22" on="0"/>
        <pt x="12" y="110" on="1"/>
        <pt x="67" y="450" on="1"/>
        <pt x="83" y="540" on="0"/>
        <pt x="169" y="670" on="0"/>
        <pt x="304" y="740" on="0"/>
        <pt x="390" y="740" on="1"/>
        <pt x="506" y="740" on="0"/>
        <pt x="618" y="609" on="0"/>
        <pt x="600" y="495" on="1"/>
        <pt x="531" y="65" on="1"/>
        <pt x="451" y="65" on="1"/>
        <pt x="462" y="130" on="1"/>
        <pt x="459" y="130" on="1"/>
        <pt x="450" y="96" on="0"/>
        <pt x="386" y="55" on="0"/>
        <pt x="340" y="55" on="1"/>
        <pt x="273" y="55" on="0"/>
        <pt x="215" y="134" on="0"/>
        <pt x="228" y="210" on="1"/>
        <pt x="247" y="330" on="1"/>
        <pt x="259" y="406" on="0"/>
        <pt x="343" y="485" on="0"/>
        <pt x="409" y="485" on="1"/>
        <pt x="455" y="485" on="0"/>
        <pt x="505" y="444" on="0"/>
        <pt x="504" y="410" on="1"/>
        <pt x="508" y="410" on="1"/>
        <pt x="518" y="490" on="1"/>
        <pt x="518" y="495" on="1"/>
        <pt x="533" y="580" on="0"/>
        <pt x="460" y="670" on="0"/>
        <pt x="379" y="670" on="1"/>
        <pt x="287" y="670" on="0"/>
        <pt x="166" y="554" on="0"/>
        <pt x="149" y="450" on="1"/>
        <pt x="94" y="110" on="1"/>
        <pt x="78" y="10" on="0"/>
        <pt x="168" y="-105" on="0"/>
        <pt x="263" y="-105" on="1"/>
        <pt x="335" y="-105" on="1"/>
        <pt x="322" y="-180" on="1"/>
      </contour>
      <contour>
        <pt x="377" y="118" on="1"/>
        <pt x="458" y="118" on="0"/>
        <pt x="474" y="220" on="1"/>
        <pt x="492" y="331" on="1"/>
        <pt x="500" y="378" on="0"/>
        <pt x="467" y="422" on="0"/>
        <pt x="425" y="422" on="1"/>
        <pt x="344" y="422" on="0"/>
        <pt x="329" y="330" on="1"/>
        <pt x="309" y="210" on="1"/>
        <pt x="294" y="118" on="0"/>
      </contour>
    </TTGlyph>
    <TTGlyph name="atilde" xMin="64" yMin="-14" xMax="604" yMax="743">
      <contour>
        <pt x="221" y="-14" on="1"/>
        <pt x="153" y="-14" on="0"/>
        <pt x="64" y="66" on="0"/>
        <pt x="64" y="134" on="1"/>
        <pt x="64" y="191" on="0"/>
        <pt x="120" y="268" on="0"/>
        <pt x="209" y="313" on="0"/>
        <pt x="314" y="337" on="0"/>
        <pt x="413" y="349" on="0"/>
        <pt x="449" y="354" on="1"/>
        <pt x="452" y="370" on="0"/>
        <pt x="456" y="397" on="0"/>
        <pt x="456" y="410" on="1"/>
        <pt x="456" y="500" on="0"/>
        <pt x="359" y="500" on="1"/>
        <pt x="311" y="500" on="0"/>
        <pt x="243" y="454" on="0"/>
        <pt x="225" y="412" on="1"/>
        <pt x="146" y="438" on="1"/>
        <pt x="173" y="503" on="0"/>
        <pt x="279" y="579" on="0"/>
        <pt x="355" y="579" on="1"/>
        <pt x="447" y="579" on="0"/>
        <pt x="546" y="498" on="0"/>
        <pt x="546" y="415" on="1"/>
        <pt x="546" y="395" on="0"/>
        <pt x="541" y="356" on="0"/>
        <pt x="527" y="285" on="0"/>
        <pt x="513" y="215" on="1"/>
        <pt x="499" y="145" on="0"/>
        <pt x="490" y="40" on="0"/>
        <pt x="489" y="0" on="1"/>
        <pt x="406" y="0" on="1"/>
        <pt x="401" y="72" on="1"/>
        <pt x="366" y="29" on="0"/>
        <pt x="283" y="-14" on="0"/>
      </contour>
      <contour>
        <pt x="249" y="65" on="1"/>
        <pt x="321" y="65" on="0"/>
        <pt x="423" y="170" on="0"/>
        <pt x="437" y="257" on="1"/>
        <pt x="440" y="276" on="1"/>
        <pt x="353" y="268" on="0"/>
        <pt x="228" y="244" on="0"/>
        <pt x="163" y="193" on="0"/>
        <pt x="163" y="144" on="1"/>
        <pt x="163" y="104" on="0"/>
        <pt x="213" y="65" on="0"/>
      </contour>
      <contour>
        <pt x="490" y="628" on="1"/>
        <pt x="460" y="628" on="0"/>
        <pt x="420" y="651" on="0"/>
        <pt x="382" y="674" on="0"/>
        <pt x="354" y="674" on="1"/>
        <pt x="308" y="674" on="0"/>
        <pt x="289" y="631" on="1"/>
        <pt x="220" y="631" on="1"/>
        <pt x="241" y="688" on="0"/>
        <pt x="313" y="743" on="0"/>
        <pt x="355" y="743" on="1"/>
        <pt x="390" y="743" on="0"/>
        <pt x="433" y="720" on="0"/>
        <pt x="469" y="697" on="0"/>
        <pt x="490" y="697" on="1"/>
        <pt x="510" y="697" on="0"/>
        <pt x="534" y="718" on="0"/>
        <pt x="544" y="729" on="1"/>
        <pt x="558" y="743" on="0"/>
        <pt x="573" y="743" on="1"/>
        <pt x="586" y="743" on="0"/>
        <pt x="604" y="723" on="0"/>
        <pt x="604" y="709" on="1"/>
        <pt x="604" y="699" on="0"/>
        <pt x="599" y="691" on="1"/>
        <pt x="585" y="669" on="0"/>
        <pt x="534" y="628" on="0"/>
      </contour>
    </TTGlyph>
    <TTGlyph name="b" xMin="39" yMin="-13" xMax="569" yMax="730">
      <contour>
        <pt x="313" y="-13" on="1"/>
        <pt x="254" y="-13" on="0"/>
        <pt x="174" y="43" on="0"/>
        <pt x="150" y="90" on="1"/>
        <pt x="107" y="0" on="1"/>
        <pt x="39" y="0" on="1"/>
        <pt x="189" y="730" on="1"/>
        <pt x="280" y="730" on="1"/>
        <pt x="226" y="470" on="1"/>
        <pt x="262" y="518" on="0"/>
        <pt x="340" y="551" on="0"/>
        <pt x="374" y="551" on="1"/>
        <pt x="449" y="551" on="0"/>
        <pt x="533" y="483" on="0"/>
        <pt x="569" y="377" on="0"/>
        <pt x="569" y="320" on="1"/>
        <pt x="569" y="261" on="0"/>
        <pt x="536" y="144" on="0"/>
        <pt x="472" y="46" on="0"/>
        <pt x="376" y="-13" on="0"/>
      </contour>
      <contour>
        <pt x="303" y="66" on="1"/>
        <pt x="349" y="66" on="0"/>
        <pt x="413" y="115" on="0"/>
        <pt x="454" y="191" on="0"/>
        <pt x="474" y="279" on="0"/>
        <pt x="474" y="318" on="1"/>
        <pt x="474" y="386" on="0"/>
        <pt x="417" y="472" on="0"/>
        <pt x="356" y="472" on="1"/>
        <pt x="313" y="472" on="0"/>
        <pt x="246" y="427" on="0"/>
        <pt x="201" y="355" on="0"/>
        <pt x="178" y="270" on="0"/>
        <pt x="178" y="231" on="1"/>
        <pt x="178" y="188" on="0"/>
        <pt x="205" y="113" on="0"/>
        <pt x="261" y="66" on="0"/>
      </contour>
    </TTGlyph>
    <TTGlyph name="backslash" xMin="158" yMin="-110" xMax="469" yMax="830">
      <contour>
        <pt x="376" y="-110" on="1"/>
        <pt x="158" y="830" on="1"/>
        <pt x="251" y="830" on="1"/>
        <pt x="469" y="-110" on="1"/>
      </contour>
    </TTGlyph>
    <TTGlyph name="backspacecontrol" xMin="104" yMin="241" xMax="494" yMax="493">
      <component glyphName="B" x="99" y="245" scale="0.33" flags="0x4"/>
      <component glyphName="S" x="302" y="245" scale="0.33" flags="0x4"/>
    </TTGlyph>
    <TTGlyph name="bar" xMin="250" yMin="-110" xMax="350" yMax="830">
      <contour>
        <pt x="300" y="-110" on="1"/>
        <pt x="300" y="-110" on="1"/>
        <pt x="350" y="-110" on="0"/>
        <pt x="350" y="-60" on="1"/>
        <pt x="350" y="780" on="1"/>
        <pt x="350" y="830" on="0"/>
        <pt x="300" y="830" on="1"/>
        <pt x="300" y="830" on="1"/>
        <pt x="250" y="830" on="0"/>
        <pt x="250" y="780" on="1"/>
        <pt x="250" y="-60" on="1"/>
        <pt x="250" y="-110" on="0"/>
      </contour>
    </TTGlyph>
    <TTGlyph name="bellcontrol" xMin="1" yMin="245" xMax="588" yMax="489">
      <component glyphName="B" x="-4" y="245" scale="0.33" flags="0x4"/>
      <component glyphName="E" x="201" y="245" scale="0.33" flags="0x4"/>
      <component glyphName="L" x="406" y="245" scale="0.33" flags="0x4"/>
    </TTGlyph>
    <TTGlyph name="beta" xMin="4" yMin="-180" xMax="589" yMax="740">
      <contour>
        <pt x="4" y="-180" on="1"/>
        <pt x="124" y="534" on="1"/>
        <pt x="134" y="596" on="0"/>
        <pt x="204" y="689" on="0"/>
        <pt x="313" y="740" on="0"/>
        <pt x="380" y="740" on="1"/>
        <pt x="481" y="740" on="0"/>
        <pt x="589" y="644" on="0"/>
        <pt x="574" y="554" on="1"/>
        <pt x="564" y="493" on="0"/>
        <pt x="484" y="407" on="0"/>
        <pt x="423" y="391" on="1"/>
        <pt x="486" y="375" on="0"/>
        <pt x="543" y="280" on="0"/>
        <pt x="531" y="208" on="1"/>
        <pt x="520" y="147" on="0"/>
        <pt x="449" y="53" on="0"/>
        <pt x="338" y="0" on="0"/>
        <pt x="269" y="0" on="1"/>
        <pt x="129" y="0" on="1"/>
        <pt x="98" y="-180" on="1"/>
      </contour>
      <contour>
        <pt x="143" y="82" on="1"/>
        <pt x="273" y="82" on="1"/>
        <pt x="336" y="82" on="0"/>
        <pt x="421" y="153" on="0"/>
        <pt x="431" y="211" on="1"/>
        <pt x="441" y="269" on="0"/>
        <pt x="379" y="335" on="0"/>
        <pt x="315" y="335" on="1"/>
        <pt x="268" y="335" on="1"/>
        <pt x="281" y="413" on="1"/>
        <pt x="325" y="413" on="1"/>
        <pt x="384" y="413" on="0"/>
        <pt x="464" y="483" on="0"/>
        <pt x="472" y="536" on="1"/>
        <pt x="481" y="594" on="0"/>
        <pt x="424" y="658" on="0"/>
        <pt x="366" y="658" on="1"/>
        <pt x="308" y="658" on="0"/>
        <pt x="228" y="592" on="0"/>
        <pt x="219" y="534" on="1"/>
      </contour>
    </TTGlyph>
    <TTGlyph name="block" xMin="-9" yMin="-300" xMax="609" yMax="1020">
      <contour>
        <pt x="-9" y="-300" on="1"/>
        <pt x="-9" y="1020" on="1"/>
        <pt x="609" y="1020" on="1"/>
        <pt x="609" y="-300" on="1"/>
      </contour>
    </TTGlyph>
    <TTGlyph name="braceleft" xMin="88" yMin="-110" xMax="608" yMax="830">
      <contour>
        <pt x="411" y="-110" on="1"/>
        <pt x="321" y="-110" on="0"/>
        <pt x="232" y="-23" on="0"/>
        <pt x="249" y="56" on="1"/>
        <pt x="286" y="220" on="1"/>
        <pt x="297" y="273" on="0"/>
        <pt x="266" y="320" on="0"/>
        <pt x="200" y="320" on="1"/>
        <pt x="88" y="320" on="1"/>
        <pt x="100" y="400" on="1"/>
        <pt x="212" y="400" on="1"/>
        <pt x="279" y="400" on="0"/>
        <pt x="326" y="447" on="0"/>
        <pt x="331" y="500" on="1"/>
        <pt x="347" y="664" on="1"/>
        <pt x="355" y="743" on="0"/>
        <pt x="472" y="830" on="0"/>
        <pt x="562" y="830" on="1"/>
        <pt x="608" y="830" on="1"/>
        <pt x="596" y="750" on="1"/>
        <pt x="550" y="750" on="1"/>
        <pt x="502" y="750" on="0"/>
        <pt x="444" y="707" on="0"/>
        <pt x="439" y="664" on="1"/>
        <pt x="422" y="500" on="1"/>
        <pt x="416" y="443" on="0"/>
        <pt x="350" y="369" on="0"/>
        <pt x="298" y="360" on="1"/>
        <pt x="347" y="351" on="0"/>
        <pt x="390" y="276" on="0"/>
        <pt x="378" y="220" on="1"/>
        <pt x="341" y="56" on="1"/>
        <pt x="332" y="13" on="0"/>
        <pt x="375" y="-30" on="0"/>
        <pt x="423" y="-30" on="1"/>
        <pt x="469" y="-30" on="1"/>
        <pt x="457" y="-110" on="1"/>
      </contour>
    </TTGlyph>
    <TTGlyph name="braceright" xMin="18" yMin="-110" xMax="539" yMax="830">
      <contour>
        <pt x="18" y="-110" on="1"/>
        <pt x="31" y="-30" on="1"/>
        <pt x="77" y="-30" on="1"/>
        <pt x="125" y="-30" on="0"/>
        <pt x="184" y="13" on="0"/>
        <pt x="188" y="56" on="1"/>
        <pt x="204" y="220" on="1"/>
        <pt x="209" y="277" on="0"/>
        <pt x="277" y="352" on="0"/>
        <pt x="329" y="360" on="1"/>
        <pt x="280" y="369" on="0"/>
        <pt x="237" y="443" on="0"/>
        <pt x="249" y="500" on="1"/>
        <pt x="286" y="664" on="1"/>
        <pt x="295" y="707" on="0"/>
        <pt x="251" y="750" on="0"/>
        <pt x="203" y="750" on="1"/>
        <pt x="157" y="750" on="1"/>
        <pt x="169" y="830" on="1"/>
        <pt x="215" y="830" on="1"/>
        <pt x="306" y="830" on="0"/>
        <pt x="395" y="743" on="0"/>
        <pt x="378" y="664" on="1"/>
        <pt x="341" y="500" on="1"/>
        <pt x="330" y="447" on="0"/>
        <pt x="360" y="400" on="0"/>
        <pt x="426" y="400" on="1"/>
        <pt x="539" y="400" on="1"/>
        <pt x="526" y="320" on="1"/>
        <pt x="414" y="320" on="1"/>
        <pt x="349" y="320" on="0"/>
        <pt x="301" y="273" on="0"/>
        <pt x="296" y="220" on="1"/>
        <pt x="280" y="56" on="1"/>
        <pt x="271" y="-23" on="0"/>
        <pt x="155" y="-110" on="0"/>
        <pt x="64" y="-110" on="1"/>
      </contour>
    </TTGlyph>
    <TTGlyph name="bracketleft" xMin="111" yMin="-110" xMax="503" yMax="830">
      <contour>
        <pt x="145" y="-110" on="1"/>
        <pt x="177" y="-110" on="1"/>
        <pt x="211" y="-110" on="0"/>
        <pt x="216" y="-76" on="1"/>
        <pt x="354" y="796" on="1"/>
        <pt x="359" y="830" on="0"/>
        <pt x="325" y="830" on="1"/>
        <pt x="293" y="830" on="1"/>
        <pt x="259" y="830" on="0"/>
        <pt x="254" y="796" on="1"/>
        <pt x="116" y="-76" on="1"/>
        <pt x="111" y="-110" on="0"/>
      </contour>
      <contour>
        <pt x="275" y="740" on="1"/>
        <pt x="459" y="740" on="1"/>
        <pt x="489" y="740" on="0"/>
        <pt x="494" y="770" on="1"/>
        <pt x="499" y="800" on="1"/>
        <pt x="503" y="830" on="0"/>
        <pt x="473" y="830" on="1"/>
        <pt x="289" y="830" on="1"/>
        <pt x="259" y="830" on="0"/>
        <pt x="255" y="800" on="1"/>
        <pt x="250" y="770" on="1"/>
        <pt x="245" y="740" on="0"/>
      </contour>
      <contour>
        <pt x="141" y="-110" on="1"/>
        <pt x="325" y="-110" on="1"/>
        <pt x="355" y="-110" on="0"/>
        <pt x="359" y="-80" on="1"/>
        <pt x="364" y="-50" on="1"/>
        <pt x="369" y="-20" on="0"/>
        <pt x="339" y="-20" on="1"/>
        <pt x="155" y="-20" on="1"/>
        <pt x="125" y="-20" on="0"/>
        <pt x="120" y="-50" on="1"/>
        <pt x="115" y="-80" on="1"/>
        <pt x="111" y="-110" on="0"/>
      </contour>
    </TTGlyph>
</ttFont>
